<svg width="48" height="49" viewBox="0 0 48 49" fill="none" xmlns="http://www.w3.org/2000/svg">
<path d="M33.1657 35.7667C33.1385 35.8463 33.0865 35.915 33.0174 35.9629C32.9482 36.0107 32.8656 36.0352 32.7816 36.0327H31.9431L32.4639 33.4342C32.5263 33.5574 32.5824 33.6837 32.632 33.8125L33.1769 35.5131C33.2058 35.5959 33.2018 35.6867 33.1657 35.7667ZM14.8346 35.7679C14.7984 35.6879 14.7941 35.597 14.8227 35.5139L15.3613 33.8319C15.4126 33.6967 15.471 33.5642 15.536 33.435L16.0569 36.0327H15.2184C15.1437 36.0334 15.0703 36.0135 15.0062 35.9753C14.9421 35.937 14.8897 35.8819 14.8549 35.8159C14.8471 35.8003 14.8404 35.7843 14.8346 35.7679ZM20.4799 33.6948C20.5759 33.8091 20.7015 33.8949 20.843 33.9426L22.0371 36.0327H21.0193L20.4799 33.6948ZM21.7364 33.841L22.8066 33.5366C23.1362 33.8273 23.5605 33.9877 24 33.9877C24.4394 33.9877 24.8637 33.8273 25.1933 33.5366L26.2635 33.841L25.0111 36.0327H22.9888L21.7364 33.841ZM27.157 33.9426C27.2402 33.9141 27.3184 33.8726 27.3887 33.8195C27.4368 33.7828 27.4809 33.741 27.52 33.6948L26.9806 36.0327H25.9628L27.157 33.9426ZM25.805 28.2862C25.2946 28.7004 24.6573 28.9265 24 28.9265C23.3426 28.9265 22.7053 28.7004 22.1949 28.2862C21.8975 28.0425 21.6331 27.8112 21.3812 27.5758C21.3853 27.6171 21.3936 27.6584 21.3977 27.6956C21.4419 28.0602 21.4654 28.427 21.4679 28.7943L24 30.967L26.532 28.7943C26.5346 28.427 26.558 28.0602 26.6022 27.6956C26.6064 27.6543 26.6146 27.6171 26.6187 27.5758C26.3668 27.8112 26.1024 28.0425 25.805 28.2862ZM17.1143 31.7394C16.4617 32.2144 16.3625 32.297 16.3295 32.3301C16.2799 32.3796 16.2345 32.4375 16.1891 32.487L16.8995 36.0311H18.1056L17.1143 31.7394ZM22.3766 32.2805L21.1086 31.537V33.1603L22.3766 32.8009C22.3586 32.7153 22.349 32.6282 22.3477 32.5407C22.3492 32.4533 22.3589 32.3661 22.3766 32.2805ZM22.3766 32.2805L21.1086 31.537V33.1603L22.3766 32.8009C22.3586 32.7153 22.349 32.6282 22.3477 32.5407C22.3492 32.4533 22.3589 32.3661 22.3766 32.2805ZM19.0515 31.1074C18.6497 31.1331 18.2534 31.2152 17.8743 31.3511L18.9524 36.0311H20.1709L19.0557 31.19C19.0502 31.1628 19.0488 31.135 19.0515 31.1074ZM22.3766 32.2805L21.1086 31.537V33.1603L22.3766 32.8009C22.3586 32.7153 22.349 32.6282 22.3477 32.5407C22.3492 32.4533 22.3589 32.3661 22.3766 32.2805ZM22.3766 32.2805L21.1086 31.537V33.1603L22.3766 32.8009C22.3586 32.7153 22.349 32.6282 22.3477 32.5407C22.3492 32.4533 22.3589 32.3661 22.3766 32.2805ZM24 31.9211C23.5539 31.9211 23.1738 32.2061 23.1738 32.5407C23.1738 32.8794 23.5539 33.1603 24 33.1603C24.4461 33.1603 24.8261 32.8794 24.8261 32.5407C24.8261 32.2061 24.4461 31.9211 24 31.9211ZM28.9484 31.1074C28.9511 31.135 28.9498 31.1628 28.9443 31.19L27.829 36.0311H29.0475L30.1256 31.3511C29.7465 31.2152 29.3503 31.1331 28.9484 31.1074ZM31.6704 32.3301C31.6374 32.297 31.5383 32.2144 30.8856 31.7394L29.8943 36.0311H31.1004L31.8109 32.487C31.7654 32.4375 31.72 32.3796 31.6704 32.3301ZM24 31.9211C23.5539 31.9211 23.1738 32.2061 23.1738 32.5407C23.1738 32.8794 23.5539 33.1603 24 33.1603C24.4461 33.1603 24.8261 32.8794 24.8261 32.5407C24.8261 32.2061 24.4461 31.9211 24 31.9211ZM24 31.9211C23.5539 31.9211 23.1738 32.2061 23.1738 32.5407C23.1738 32.8794 23.5539 33.1603 24 33.1603C24.4461 33.1603 24.8261 32.8794 24.8261 32.5407C24.8261 32.2061 24.4461 31.9211 24 31.9211ZM25.6233 32.2805C25.641 32.3661 25.6507 32.4533 25.6522 32.5407C25.651 32.6282 25.6413 32.7153 25.6233 32.8009L26.8914 33.1603V31.537L25.6233 32.2805ZM24 31.9211C23.5539 31.9211 23.1738 32.2061 23.1738 32.5407C23.1738 32.8794 23.5539 33.1603 24 33.1603C24.4461 33.1603 24.8261 32.8794 24.8261 32.5407C24.8261 32.2061 24.4461 31.9211 24 31.9211ZM24 31.9211C23.5539 31.9211 23.1738 32.2061 23.1738 32.5407C23.1738 32.8794 23.5539 33.1603 24 33.1603C24.4461 33.1603 24.8261 32.8794 24.8261 32.5407C24.8261 32.2061 24.4461 31.9211 24 31.9211ZM22.3766 32.2805L21.1086 31.537V33.1603L22.3766 32.8009C22.3586 32.7153 22.349 32.6282 22.3477 32.5407C22.3492 32.4533 22.3589 32.3661 22.3766 32.2805ZM26.8707 29.5956L24.8633 31.3139C24.9896 31.3822 25.1062 31.4669 25.2102 31.5659L26.6064 30.7481C26.6453 30.7231 26.6888 30.7063 26.7344 30.6985C26.8538 30.6755 26.9767 30.6791 27.0945 30.7091C27.2124 30.7391 27.3221 30.7947 27.4159 30.872C27.5588 30.9886 27.6578 31.1502 27.6968 31.3305L28.0273 30.7522L26.8707 29.5956ZM28.8782 20.9792C28.8505 20.9913 28.8213 20.9996 28.7914 21.004C28.7695 21.0159 28.7488 21.0297 28.7295 21.0453C28.5507 21.8281 28.4716 22.6302 28.494 23.4328C28.5476 23.5038 28.6085 23.5689 28.6758 23.6269C28.7749 23.4452 28.9566 22.8669 28.9566 21.5741C28.9684 21.3726 28.9417 21.1708 28.8782 20.9792ZM28.5932 12.999C28.271 12.8048 27.6142 13.1642 26.9161 13.5483C26.0611 14.0192 25.0904 14.5521 24 14.5521C19.2415 14.5521 18.6302 16.2084 18.6302 17.65C18.6284 17.8381 18.6422 18.026 18.6715 18.2118C18.7511 18.8098 18.9567 19.3842 19.2746 19.897L21.154 17.4972C21.2405 17.3747 21.351 17.2711 21.4788 17.1927C21.6066 17.1142 21.749 17.0626 21.8974 17.041C22.0458 17.0194 22.197 17.0281 22.3419 17.0668C22.4868 17.1055 22.6223 17.1732 22.7401 17.2659C23.1008 17.5427 23.5425 17.6932 23.9972 17.6939C24.4519 17.6947 24.8941 17.5457 25.2557 17.27C25.3734 17.1764 25.509 17.1079 25.6541 17.0685C25.7992 17.0292 25.9509 17.0198 26.0997 17.0411C26.2486 17.0624 26.3915 17.1138 26.5198 17.1922C26.6482 17.2706 26.7591 17.3744 26.8459 17.4972L28.6179 19.7607L28.8079 19.7649C29.175 19.1204 29.3686 18.3917 29.3697 17.65C29.3697 14.1845 28.9484 13.2055 28.5932 12.999ZM19.2705 21.0495C19.246 21.0292 19.2197 21.0113 19.192 20.9958C19.1682 20.9918 19.1448 20.9863 19.1218 20.9792C19.0577 21.1707 19.0311 21.3726 19.0433 21.5741C19.0433 22.8669 19.225 23.4452 19.3242 23.6269C19.3914 23.5689 19.4524 23.5038 19.5059 23.4328C19.5283 22.6316 19.4492 21.8308 19.2705 21.0495ZM26.1974 18.0094C26.1758 17.9739 26.1471 17.9432 26.113 17.9194C26.079 17.8956 26.0403 17.8791 25.9996 17.8709C25.9588 17.8628 25.9168 17.8632 25.8762 17.8721C25.8356 17.881 25.7973 17.8982 25.7637 17.9226C25.2583 18.31 24.6395 18.5204 24.0027 18.5211C23.3659 18.5218 22.7466 18.313 22.2403 17.9268C22.2069 17.9015 22.1685 17.8835 22.1276 17.8739C22.0868 17.8644 22.0444 17.8635 22.0032 17.8712C21.9619 17.879 21.9228 17.8953 21.8882 17.9191C21.8537 17.9429 21.8245 17.9736 21.8025 18.0094L19.9603 20.3638C19.9644 20.3803 19.9685 20.401 19.9727 20.4216C19.9768 20.4413 19.9823 20.4606 19.9892 20.4795V20.4918C20.3118 21.6888 20.4153 22.9342 20.2948 24.1681C20.2866 24.2507 20.2824 24.3415 20.2824 24.4324C20.2824 25.2337 21.1457 26.3738 22.7154 27.6419C23.0782 27.937 23.5315 28.0985 23.9992 28.0993C24.467 28.1 24.9208 27.94 25.2846 27.646C26.8542 26.3738 27.7175 25.2337 27.7175 24.4324C27.7175 24.3415 27.7133 24.2507 27.7051 24.1598C27.59 22.9659 27.6837 21.761 27.9818 20.5992C27.986 20.5868 27.9901 20.5621 27.9984 20.5373L28.019 20.4629C28.0273 20.4299 28.0314 20.3968 28.0397 20.3597L26.1974 18.0094ZM23.5869 24.0524H24.413C24.5226 24.0524 24.6276 24.0959 24.7051 24.1734C24.7826 24.2508 24.8261 24.3559 24.8261 24.4655C24.8261 24.575 24.7826 24.6801 24.7051 24.7575C24.6276 24.835 24.5226 24.8785 24.413 24.8785H23.5869C23.4774 24.8785 23.3723 24.835 23.2948 24.7575C23.2174 24.6801 23.1738 24.575 23.1738 24.4655C23.1738 24.3559 23.2174 24.2508 23.2948 24.1734C23.3723 24.0959 23.4774 24.0524 23.5869 24.0524ZM22.3477 21.9871V22.4002C22.3477 22.5097 22.3042 22.6148 22.2268 22.6922C22.1493 22.7697 22.0442 22.8132 21.9347 22.8132C21.8251 22.8132 21.7201 22.7697 21.6426 22.6922C21.5651 22.6148 21.5216 22.5097 21.5216 22.4002V21.9871H21.1086C20.999 21.9871 20.8939 21.9436 20.8165 21.8661C20.739 21.7887 20.6955 21.6836 20.6955 21.5741C20.6955 21.4645 20.739 21.3594 20.8165 21.282C20.8939 21.2045 20.999 21.161 21.1086 21.161H22.7608C22.8703 21.161 22.9754 21.2045 23.0529 21.282C23.1303 21.3594 23.1738 21.4645 23.1738 21.5741C23.1738 21.6836 23.1303 21.7887 23.0529 21.8661C22.9754 21.9436 22.8703 21.9871 22.7608 21.9871H22.3477ZM24.8261 26.5307H23.1738C23.0643 26.5307 22.9592 26.4872 22.8818 26.4098C22.8043 26.3323 22.7608 26.2272 22.7608 26.1177C22.7608 26.0081 22.8043 25.9031 22.8818 25.8256C22.9592 25.7481 23.0643 25.7046 23.1738 25.7046H24.8261C24.9356 25.7046 25.0407 25.7481 25.1182 25.8256C25.1956 25.9031 25.2391 26.0081 25.2391 26.1177C25.2391 26.2272 25.1956 26.3323 25.1182 26.4098C25.0407 26.4872 24.9356 26.5307 24.8261 26.5307ZM26.8914 21.9871H26.4783V22.4002C26.4783 22.5097 26.4348 22.6148 26.3573 22.6922C26.2799 22.7697 26.1748 22.8132 26.0653 22.8132C25.9557 22.8132 25.8506 22.7697 25.7732 22.6922C25.6957 22.6148 25.6522 22.5097 25.6522 22.4002V21.9871H25.2391C25.1296 21.9871 25.0245 21.9436 24.9471 21.8661C24.8696 21.7887 24.8261 21.6836 24.8261 21.5741C24.8261 21.4645 24.8696 21.3594 24.9471 21.282C25.0245 21.2045 25.1296 21.161 25.2391 21.161H26.8914C27.0009 21.161 27.106 21.2045 27.1834 21.282C27.2609 21.3594 27.3044 21.4645 27.3044 21.5741C27.3044 21.6836 27.2609 21.7887 27.1834 21.8661C27.106 21.9436 27.0009 21.9871 26.8914 21.9871ZM21.1292 29.5956L19.9727 30.7522L20.3031 31.3305C20.3496 31.1205 20.4761 30.937 20.6559 30.8189C20.8357 30.7009 21.0544 30.6577 21.2655 30.6985C21.3111 30.7063 21.3546 30.7231 21.3936 30.7481L22.7897 31.5659C22.8937 31.4669 23.0104 31.3822 23.1367 31.3139L21.1292 29.5956Z" fill="black"/>
<path d="M3.67016 17.8376L3.24283 19.1721L0.0895588 18.1621L0.497646 16.8876C0.602947 16.5589 0.752679 16.3457 0.947014 16.2476C1.1417 16.1484 1.37067 16.1409 1.63392 16.2252C1.75532 16.264 1.85747 16.3158 1.94038 16.3802C2.02207 16.4442 2.08382 16.5176 2.12545 16.6004C2.16568 16.684 2.1823 16.7758 2.17547 16.8759C2.21308 16.8134 2.26188 16.7559 2.32171 16.7031C2.38048 16.6499 2.45027 16.6091 2.53126 16.5808C2.61225 16.5525 2.70146 16.5381 2.79889 16.5378C2.89509 16.5371 2.99987 16.5547 3.11322 16.5911C3.32277 16.6583 3.48002 16.7484 3.58515 16.8615C3.68923 16.9744 3.74643 17.1127 3.7571 17.2764C3.76707 17.4388 3.73803 17.6258 3.67016 17.8376ZM2.15238 18.0123L2.8204 18.2263L3.00529 17.6492C3.02541 17.5862 3.02943 17.5287 3.01701 17.4767C3.00582 17.4251 2.97923 17.38 2.93725 17.3415C2.89422 17.3025 2.83492 17.2709 2.75935 17.2465C2.69061 17.2245 2.62834 17.2178 2.57254 17.2266C2.51674 17.2352 2.46899 17.2565 2.42893 17.2904C2.38783 17.324 2.35721 17.3723 2.3371 17.4351L2.15238 18.0123ZM0.984447 17.6382L1.59579 17.8341L1.76861 17.2948C1.79205 17.2215 1.7812 17.1549 1.73608 17.0949C1.692 17.0354 1.62588 16.9915 1.53772 16.9632C1.4221 16.9261 1.33429 16.9245 1.27411 16.9583C1.21517 16.9924 1.17581 17.0405 1.15604 17.1024L0.984447 17.6382Z" fill="black"/>
<path d="M4.49788 15.8096L4.14314 16.5194L1.63182 14.1377L2.06213 13.2762L5.4748 13.8543L5.11762 14.569L4.50313 14.4515L4.03312 15.392L4.49788 15.8096ZM2.43663 14.0076L3.49507 14.9236L3.80537 14.3025L2.43663 14.0076Z" fill="black"/>
<path d="M6.19355 12.7915L5.75537 13.427L3.02926 11.5477L3.81954 10.4014C3.89878 10.2867 3.98606 10.1906 4.08175 10.1133C4.17568 10.0364 4.28115 9.9851 4.39835 9.95922C4.51555 9.93333 4.64586 9.94015 4.78964 9.97933C4.93238 10.018 5.09191 10.0979 5.26822 10.2193C5.38804 10.3019 5.48285 10.3834 5.55299 10.464C5.62209 10.5438 5.67246 10.6223 5.70395 10.6995C5.73613 10.7757 5.75415 10.8501 5.758 10.9228C5.76185 10.9956 5.75992 11.0673 5.75205 11.1378L7.16085 11.3885L6.71551 12.0345L5.46448 11.7742C5.44734 11.7988 5.42775 11.8263 5.40571 11.8564C5.38262 11.8858 5.36111 11.9146 5.34134 11.9433C5.32088 11.9731 5.30006 12.0031 5.27889 12.0339C5.25773 12.0645 5.23796 12.0934 5.21942 12.12L6.19355 12.7915ZM4.03767 11.3052L4.71758 11.774L4.99098 11.3776C5.02176 11.333 5.04275 11.2898 5.05395 11.248C5.06689 11.2059 5.06812 11.1628 5.05745 11.1191C5.0452 11.0756 5.02159 11.0323 4.98695 10.9893C4.95057 10.9468 4.89984 10.9029 4.83442 10.858C4.76813 10.8123 4.70901 10.7803 4.65741 10.7621C4.60598 10.7457 4.56068 10.7415 4.52149 10.7495C4.48074 10.7579 4.44295 10.7756 4.40815 10.8027C4.37404 10.8287 4.34168 10.8642 4.31089 10.9089L4.03767 11.3052Z" fill="black"/>
<path d="M8.48254 9.94784L7.53448 10.9797L5.0961 8.73968L6.00149 7.75418C6.235 7.50002 6.46048 7.36918 6.6779 7.36184C6.8962 7.35344 7.10715 7.44282 7.31076 7.62981C7.40469 7.71605 7.47571 7.80578 7.52399 7.89901C7.57139 7.99155 7.59658 8.08408 7.59955 8.17661C7.60095 8.26932 7.57751 8.35958 7.52923 8.44773C7.58958 8.4068 7.65797 8.37497 7.73459 8.35223C7.81015 8.32862 7.89062 8.32092 7.97615 8.32914C8.06151 8.33736 8.14862 8.36185 8.23713 8.40226C8.32477 8.44196 8.4124 8.50196 8.50004 8.5826C8.66201 8.73146 8.76696 8.87926 8.81489 9.02619C8.86194 9.17225 8.856 9.32181 8.79687 9.47504C8.73775 9.62652 8.63297 9.78412 8.48254 9.94784ZM7.03141 9.46944L7.54812 9.944L7.95796 9.49778C8.00274 9.44915 8.03038 9.3986 8.04087 9.3463C8.05224 9.2947 8.04717 9.24257 8.0253 9.18992C8.00257 9.13639 7.96198 9.08287 7.90374 9.02917C7.85056 8.98037 7.79686 8.94818 7.74263 8.93261C7.68841 8.91704 7.63593 8.91635 7.58556 8.93034C7.53413 8.94363 7.4862 8.97459 7.44142 9.02322L7.03141 9.46944ZM6.1283 8.6398L6.60111 9.07412L6.98418 8.65711C7.03631 8.60044 7.05433 8.53537 7.03858 8.46208C7.02354 8.38949 6.98209 8.32197 6.91369 8.25935C6.82431 8.17713 6.74524 8.13883 6.67668 8.14425C6.60881 8.15055 6.55301 8.17766 6.50893 8.22541L6.1283 8.6398Z" fill="black"/>
<path d="M10.3143 8.28279C10.2596 8.32792 10.1903 8.37514 10.106 8.4243C10.0217 8.4752 9.92965 8.51001 9.8296 8.52872C9.72955 8.54744 9.62389 8.53642 9.51247 8.49584C9.40192 8.45456 9.29085 8.36622 9.17907 8.23101L8.0456 6.85859C7.94677 6.73895 7.88345 6.62368 7.85563 6.5126C7.82695 6.40048 7.82362 6.29815 7.84514 6.20544C7.86683 6.11274 7.90619 6.02633 7.96338 5.94639C8.01971 5.86557 8.08233 5.79666 8.15072 5.74016C8.33421 5.5885 8.49636 5.46011 8.63717 5.35481C8.77711 5.24863 8.90113 5.15628 9.0094 5.07756C9.11943 4.9992 9.21826 4.92923 9.30607 4.86766L9.7208 5.3695L8.78498 6.14247C8.72288 6.19372 8.6865 6.24795 8.67601 6.30515C8.66551 6.36217 8.6858 6.42182 8.73705 6.48391L8.97022 6.76606L9.96131 6.00359L10.3484 6.4722L9.41014 7.29869L9.63177 7.56702C9.67392 7.61792 9.71433 7.6508 9.75299 7.66567C9.79339 7.68054 9.83275 7.68386 9.87123 7.67564C9.91059 7.66655 9.94645 7.6487 9.97881 7.62177L10.9312 6.83515L11.3435 7.3342C11.2517 7.42883 11.1474 7.53203 11.0309 7.64398C10.9153 7.75505 10.7952 7.86525 10.6703 7.97475C10.5455 8.0825 10.4269 8.18518 10.3143 8.28279Z" fill="black"/>
<path d="M12.4006 6.74035L11.72 7.14826L10.8824 3.78998L11.7084 3.29478L14.2754 5.61666L13.5902 6.02737L13.1351 5.59777L12.2332 6.13827L12.4006 6.74035ZM11.6311 4.11288L12.0313 5.45416L12.6267 5.09715L11.6311 4.11288Z" fill="black"/>
<path d="M15.4527 5.1066L14.7417 5.40694L13.4531 2.35686L14.7356 1.81514C14.864 1.76091 14.9894 1.7268 15.1113 1.71299C15.2318 1.69864 15.3485 1.71194 15.4611 1.75322C15.5738 1.79432 15.6801 1.87006 15.7804 1.98044C15.8801 2.08976 15.9715 2.24299 16.0548 2.44013C16.1115 2.57411 16.1477 2.69393 16.1636 2.79941C16.179 2.90384 16.1792 2.99707 16.1643 3.07911C16.1505 3.16062 16.1257 3.23321 16.0898 3.29653C16.0539 3.36003 16.0137 3.41933 15.9693 3.47478L17.0225 4.4433L16.2999 4.74854L15.3847 3.8568C15.3571 3.86852 15.3257 3.88111 15.2909 3.89441C15.2556 3.90665 15.222 3.9196 15.1898 3.93324C15.1566 3.94723 15.1228 3.96158 15.0886 3.97609C15.0543 3.99061 15.0221 4.00426 14.9922 4.01685L15.4527 5.1066ZM14.4335 2.69446L14.755 3.45536L15.1986 3.26785C15.2484 3.24686 15.2894 3.22167 15.3214 3.19246C15.355 3.16394 15.3791 3.12826 15.3936 3.08558C15.4066 3.0422 15.4101 2.99322 15.4039 2.9383C15.3962 2.88285 15.3768 2.81865 15.3459 2.74554C15.3145 2.67137 15.2818 2.6126 15.2481 2.56957C15.2136 2.52811 15.1776 2.50012 15.1403 2.48596C15.1015 2.47109 15.06 2.46566 15.0161 2.46986C14.9733 2.47354 14.9269 2.48596 14.8771 2.50695L14.4335 2.69446Z" fill="black"/>
<path d="M18.3345 4.05306L17.5964 4.27853L16.6292 1.11179L17.3676 0.886317L18.3345 4.05306Z" fill="black"/>
<path d="M19.6312 3.78876L18.8498 3.92642L19.2683 0.490649L20.2167 0.323601L21.7839 3.40971L20.9972 3.54824L20.7257 2.98448L19.6902 3.16692L19.6312 3.78876ZM19.852 1.06001L19.7461 2.45569L20.4301 2.33518L19.852 1.06001Z" fill="black"/>
<path d="M25.4522 3.39291L24.4899 3.35146L23.6253 0L24.4235 0.0344591L25.0107 2.53808L25.8127 0.0942816L26.6017 0.128216L25.4522 3.39291Z" fill="black"/>
<path d="M27.3689 3.60596L26.5893 3.45798L28.1972 0.393044L29.1433 0.572686L29.5163 4.0137L28.7314 3.86467L28.6772 3.24126L27.6443 3.04517L27.3689 3.60596ZM28.5416 1.13208L27.9485 2.3999L28.6306 2.52934L28.5416 1.13208Z" fill="black"/>
<path d="M30.7369 4.42144L30.0106 4.17095L31.09 1.04077L31.6679 1.24L32.2133 3.54737L32.8665 1.65334L33.5963 1.90487L32.5168 5.03506L31.9338 4.83407L31.3883 2.53231L30.7369 4.42144Z" fill="black"/>
<path d="M33.9443 5.8012C33.7626 5.70517 33.6332 5.5899 33.5559 5.45521C33.4798 5.32122 33.4444 5.17062 33.4499 5.00357C33.4553 4.83635 33.4925 4.65636 33.562 4.46307C33.6309 4.26838 33.7215 4.0646 33.8336 3.85208C33.9548 3.62241 34.079 3.42352 34.206 3.25525C34.3341 3.08768 34.4716 2.95981 34.6187 2.87165C34.7665 2.78244 34.9319 2.74204 35.1151 2.75043C35.2979 2.75726 35.505 2.8218 35.7367 2.94424C35.8814 3.02068 36.0063 3.09415 36.1119 3.16464C36.2174 3.23531 36.314 3.30738 36.4014 3.38084C36.488 3.45378 36.5758 3.53075 36.665 3.61191L36.3862 4.13964C36.3317 4.10134 36.262 4.05428 36.1772 3.99866C36.0918 3.94408 35.9949 3.88409 35.8868 3.81884C35.7786 3.75342 35.6628 3.68835 35.5394 3.62311C35.381 3.5395 35.2482 3.50259 35.141 3.51256C35.0322 3.52305 34.9309 3.58585 34.8375 3.70095C34.743 3.81552 34.636 3.98606 34.5162 4.21259C34.4235 4.38803 34.3554 4.53496 34.312 4.65338C34.2674 4.77128 34.2459 4.86993 34.2473 4.94952C34.2482 5.03016 34.2711 5.09733 34.3162 5.1512C34.3601 5.20438 34.4215 5.25178 34.5002 5.29324C34.6022 5.34711 34.6998 5.39049 34.7925 5.4232C34.8849 5.45434 34.9594 5.47673 35.0161 5.4902L35.262 5.02456L34.8013 4.78125L35.0868 4.24057C35.1481 4.26349 35.219 4.2927 35.2994 4.32838C35.3799 4.36407 35.4642 4.40255 35.5526 4.44383C35.6398 4.48459 35.7191 4.52359 35.7903 4.5612C35.8818 4.60948 35.9619 4.65321 36.031 4.69239C36.1006 4.73052 36.1627 4.76743 36.2173 4.80311L35.3194 6.50298L34.806 6.23186L34.8195 5.98609C34.7257 5.99362 34.5977 5.98644 34.4352 5.96458C34.2737 5.94324 34.1102 5.88884 33.9443 5.8012Z" fill="black"/>
<path d="M36.9204 7.68421C36.7724 7.57506 36.643 7.46171 36.5325 7.34434C36.4216 7.22522 36.3413 7.09718 36.2914 6.96039C36.2416 6.82343 36.2323 6.67703 36.2636 6.52082C36.2951 6.36479 36.3778 6.19582 36.5122 6.01391L37.8363 4.21853L38.4574 4.67665L37.1354 6.46922C37.0768 6.54864 37.0472 6.62525 37.0464 6.69924C37.0448 6.77428 37.0688 6.84722 37.1181 6.91806C37.1667 6.98978 37.2376 7.05992 37.3304 7.12832C37.4214 7.19549 37.5083 7.24167 37.5912 7.26703C37.6745 7.29397 37.7511 7.29537 37.8214 7.27088C37.8919 7.24814 37.9565 7.19724 38.0149 7.11782L39.3369 5.32542L39.9581 5.78354L38.6339 7.57891C38.4998 7.76083 38.3633 7.89027 38.2245 7.96706C38.0847 8.04315 37.9414 8.07726 37.795 8.06938C37.6495 8.06221 37.5045 8.02391 37.3598 7.95446C37.2159 7.88414 37.0695 7.79406 36.9204 7.68421Z" fill="black"/>
<path d="M38.7781 9.22998L38.2189 8.66691L41.2787 7.04908L41.9572 7.73232L40.3184 10.7808L39.7553 10.2141L40.0632 9.6692L39.3224 8.92317L38.7781 9.22998ZM41.1446 7.85318L39.9383 8.56318L40.4276 9.05593L41.1446 7.85318Z" fill="black"/>
<path d="M41.0951 11.8016L40.6333 11.1831L43.2861 9.20181L44.1192 10.3173C44.2027 10.429 44.2656 10.5426 44.3082 10.6578C44.351 10.7714 44.3659 10.8879 44.3529 11.0072C44.34 11.1265 44.2919 11.2478 44.2086 11.3715C44.1264 11.4945 43.9996 11.6199 43.8282 11.7479C43.7117 11.8351 43.6039 11.8989 43.5053 11.9397C43.4075 11.9795 43.3171 12.0021 43.234 12.0072C43.1514 12.0133 43.0751 12.0065 43.0048 11.9869C42.9347 11.9673 42.8673 11.9425 42.803 11.9125L42.1148 13.1671L41.6454 12.5386L42.2922 11.4364C42.2742 11.4123 42.2546 11.385 42.2333 11.3545C42.213 11.3232 42.1923 11.2937 42.1713 11.2657C42.1498 11.2368 42.1278 11.2074 42.1056 11.1775C42.0832 11.1476 42.0624 11.1198 42.0429 11.0937L41.0951 11.8016ZM43.193 10.2347L42.5313 10.7289L42.8194 11.1147C42.8518 11.1581 42.8861 11.1919 42.9221 11.216C42.9579 11.2419 42.9982 11.2568 43.0431 11.2606C43.0883 11.2629 43.1369 11.2545 43.1885 11.2353C43.2404 11.2144 43.2982 11.1803 43.3618 11.1328C43.4264 11.0845 43.4755 11.0388 43.5093 10.9956C43.5413 10.9522 43.5598 10.9106 43.5647 10.8709C43.5698 10.8296 43.5651 10.788 43.5506 10.7465C43.5368 10.7059 43.5137 10.6638 43.4813 10.6204L43.193 10.2347Z" fill="black"/>
<path d="M43.0633 14.9061L42.3793 13.6481L45.2882 12.0665L45.9723 13.3245C46.0843 13.5305 46.1392 13.7196 46.1369 13.8918C46.1359 14.0633 46.0913 14.2245 46.0035 14.3749C45.916 14.5237 45.7915 14.6619 45.6297 14.7896C45.4694 14.9178 45.2847 15.0387 45.0755 15.1526C44.7418 15.334 44.4476 15.4447 44.1929 15.4846C43.9387 15.5255 43.7188 15.4973 43.5331 15.3999C43.3463 15.303 43.1897 15.1384 43.0633 14.9061ZM45.0486 13.0754L43.3548 13.9964L43.634 14.5096C43.6921 14.6163 43.768 14.6843 43.8621 14.7141C43.9557 14.7426 44.0727 14.7364 44.2133 14.6955C44.354 14.6546 44.5193 14.5825 44.7094 14.4791C44.8901 14.381 45.0309 14.2913 45.132 14.2105C45.2347 14.13 45.305 14.0555 45.343 13.9869C45.382 13.9178 45.3986 13.8513 45.3927 13.7875C45.3862 13.7226 45.3645 13.6563 45.3278 13.5888L45.0486 13.0754Z" fill="black"/>
<path d="M44.0202 17.0291L43.7547 16.2813L47.2122 16.1232L47.5345 17.0309L44.7516 19.0888L44.4843 18.3359L44.9951 17.9746L44.6433 16.9838L44.0202 17.0291ZM46.7478 16.7933L45.354 16.921L45.5863 17.5752L46.7478 16.7933Z" fill="black"/>
<path d="M1.38449 32.8256L0.956985 31.4911L4.11026 30.4811L4.51852 31.7554C4.62382 32.0841 4.62592 32.3447 4.52464 32.5375C4.42389 32.7313 4.2418 32.8705 3.97854 32.9548C3.85715 32.9937 3.74398 33.011 3.6392 33.0066C3.53547 33.0019 3.44259 32.9781 3.36055 32.9349C3.27939 32.8903 3.2124 32.8252 3.15975 32.7399C3.16534 32.8126 3.15922 32.8878 3.1412 32.9655C3.12424 33.0428 3.09118 33.1166 3.04167 33.1866C2.99217 33.2567 2.92798 33.3202 2.84891 33.3773C2.77107 33.4338 2.67539 33.4801 2.56205 33.5163C2.35249 33.5835 2.17215 33.6015 2.02067 33.5705C1.87041 33.5391 1.74342 33.4598 1.6397 33.3327C1.53737 33.2064 1.45236 33.0372 1.38449 32.8256ZM2.51832 31.8014L1.8503 32.0155L2.03519 32.5926C2.0553 32.6555 2.08556 32.7045 2.1258 32.7397C2.16498 32.7752 2.21273 32.7964 2.26923 32.8035C2.32695 32.8103 2.3936 32.8016 2.46916 32.7773C2.53791 32.7552 2.59248 32.7246 2.63289 32.6851C2.67329 32.6456 2.69988 32.6006 2.71265 32.5497C2.72664 32.4985 2.7235 32.4414 2.70321 32.3785L2.51832 31.8014ZM3.68625 31.4274L3.07491 31.6232L3.24755 32.1624C3.27099 32.2357 3.31857 32.2837 3.39011 32.3062C3.46061 32.3291 3.53984 32.3265 3.62818 32.2982C3.7438 32.2611 3.81622 32.2114 3.84543 32.149C3.87359 32.0869 3.87761 32.025 3.85785 31.9632L3.68625 31.4274Z" fill="black"/>
<path d="M2.35074 35.1941L1.99601 34.4843L5.40868 33.9062L5.83899 34.7677L3.32767 37.1494L2.97066 36.4347L3.43367 36.0138L2.96366 35.0733L2.35074 35.1941ZM5.02928 34.6279L3.66141 34.9242L3.97172 35.5454L5.02928 34.6279Z" fill="black"/>
<path d="M4.21748 38.5017L3.77931 37.8662L6.50526 35.9869L7.29554 37.133C7.37478 37.2477 7.43338 37.3635 7.47151 37.4805C7.50999 37.5956 7.52049 37.7125 7.50317 37.8311C7.48568 37.9497 7.43303 38.0693 7.34504 38.1898C7.25828 38.3096 7.12674 38.4302 6.9506 38.5515C6.83078 38.6341 6.72093 38.6939 6.6207 38.7308C6.52152 38.7671 6.43039 38.7861 6.34695 38.7882C6.26422 38.7912 6.1883 38.7816 6.11886 38.7592C6.04941 38.737 5.98312 38.7097 5.91997 38.6773L5.18479 39.9049L4.73944 39.2589L5.42758 38.1821C5.41043 38.1575 5.39189 38.1293 5.37178 38.098C5.35254 38.066 5.33312 38.0355 5.31318 38.0069C5.29271 37.9771 5.2719 37.947 5.25073 37.9164C5.22957 37.8858 5.2098 37.8569 5.19143 37.8302L4.21748 38.5017ZM6.37337 37.0154L5.69328 37.4842L5.96668 37.8806C5.99746 37.9252 6.03035 37.9601 6.06533 37.9857C6.10014 38.0128 6.13985 38.0292 6.18463 38.0348C6.22976 38.0389 6.27838 38.0322 6.33086 38.0151C6.38351 37.9962 6.44263 37.9643 6.50805 37.9192C6.57435 37.8736 6.62525 37.8297 6.66041 37.7877C6.69417 37.7455 6.71411 37.7046 6.72058 37.6652C6.72723 37.6241 6.72408 37.5825 6.71113 37.5403C6.69889 37.4992 6.67738 37.4564 6.64659 37.4118L6.37337 37.0154Z" fill="black"/>
<path d="M6.71498 41.6069L5.76692 40.575L8.2053 38.335L9.11068 39.3203C9.3442 39.5745 9.45545 39.8101 9.44443 40.0275C9.43428 40.2458 9.32741 40.4484 9.1238 40.6355C9.02987 40.7218 8.93454 40.7849 8.83763 40.8252C8.7416 40.8645 8.64714 40.8818 8.55461 40.8769C8.46208 40.8705 8.37409 40.8395 8.29048 40.784C8.32599 40.8477 8.35205 40.9186 8.36832 40.9967C8.38546 41.0741 8.38634 41.1549 8.37077 41.2394C8.3552 41.3238 8.32354 41.4083 8.27579 41.493C8.22891 41.577 8.16157 41.6592 8.07376 41.7398C7.91178 41.8887 7.75558 41.9807 7.60515 42.016C7.45559 42.0505 7.30709 42.0319 7.15945 41.9602C7.01357 41.8885 6.86541 41.7708 6.71498 41.6069ZM7.31443 40.2016L6.7979 40.6761L7.20773 41.1223C7.25251 41.171 7.30044 41.2028 7.35187 41.2178C7.40224 41.2336 7.45454 41.2329 7.50894 41.2156C7.56422 41.1976 7.62107 41.1615 7.67931 41.1078C7.73249 41.059 7.76905 41.0083 7.78916 40.9555C7.80928 40.9026 7.81453 40.8505 7.80473 40.7993C7.79581 40.747 7.76905 40.6964 7.72444 40.6478L7.31443 40.2016ZM8.21754 39.3719L7.74473 39.8062L8.12781 40.2233C8.17993 40.2799 8.24308 40.3034 8.3176 40.2938C8.39106 40.285 8.46208 40.2493 8.53012 40.1867C8.61951 40.1045 8.66446 40.0291 8.66481 39.96C8.66429 39.892 8.64207 39.8339 8.59817 39.7861L8.21754 39.3719Z" fill="black"/>
<path d="M8.75122 43.5404C8.69647 43.4953 8.637 43.436 8.57298 43.3627C8.50703 43.2896 8.45561 43.2056 8.41835 43.111C8.38109 43.0164 8.37199 42.9105 8.39054 42.7933C8.41013 42.677 8.4759 42.5513 8.58767 42.4159L9.72132 41.0435C9.82015 40.9238 9.92143 40.8398 10.0253 40.7917C10.1299 40.7424 10.2298 40.7197 10.325 40.7233C10.4201 40.727 10.5123 40.7494 10.6017 40.7905C10.6918 40.8306 10.771 40.879 10.8396 40.9357C11.0231 41.0874 11.1798 41.2222 11.3099 41.3405C11.4406 41.4578 11.5548 41.5623 11.6523 41.6537C11.75 41.747 11.8373 41.8308 11.9146 41.9055L11.4999 42.4075L10.5643 41.6345C10.5022 41.5833 10.4422 41.5577 10.3839 41.5581C10.3258 41.5584 10.2713 41.5897 10.22 41.6518L9.98685 41.9341L10.9228 42.7634L10.5357 43.232L9.54693 42.4666L9.32531 42.7351C9.28315 42.786 9.25849 42.832 9.25132 42.8728C9.24432 42.9153 9.24852 42.9546 9.26374 42.9907C9.28 43.0276 9.30449 43.0594 9.33703 43.0862L10.2895 43.8729L9.877 44.3722C9.7668 44.2998 9.64576 44.217 9.51387 44.1236C9.38285 44.0311 9.25201 43.9338 9.121 43.8318C8.99173 43.7297 8.86842 43.6326 8.75122 43.5404Z" fill="black"/>
<path d="M11.1667 45.2494L10.4861 44.8415L13.053 42.5196L13.879 43.0148L13.0415 46.3731L12.3561 45.9624L12.5204 45.3585L11.6187 44.818L11.1667 45.2494ZM13.1211 43.3321L12.1268 44.3174L12.7224 44.6743L13.1211 43.3321Z" fill="black"/>
<path d="M14.5185 47.0353L13.8074 46.735L15.0961 43.6849L16.3786 44.2266C16.507 44.2809 16.6188 44.347 16.7137 44.425C16.808 44.5014 16.8797 44.5943 16.9289 44.7038C16.9779 44.8133 16.9978 44.9424 16.9884 45.0913C16.9794 45.2389 16.9334 45.4114 16.8502 45.6083C16.7935 45.7423 16.733 45.8518 16.6683 45.9368C16.6041 46.0206 16.5374 46.0859 16.4683 46.1322C16.4003 46.1791 16.3308 46.2118 16.2603 46.2305C16.1898 46.2491 16.1194 46.2617 16.0487 46.2683L16.0884 47.6986L15.3658 47.3932L15.3672 46.1154C15.3396 46.1037 15.3088 46.0901 15.2748 46.0745C15.2414 46.0577 15.2087 46.0427 15.1767 46.029C15.1435 46.015 15.1097 46.0007 15.0753 45.9863C15.041 45.9718 15.0088 45.9582 14.9791 45.9456L14.5185 47.0353ZM15.5377 44.6232L15.2162 45.3841L15.6598 45.5714C15.7097 45.5924 15.7562 45.6043 15.7994 45.6069C15.8433 45.6111 15.8857 45.6036 15.9264 45.5842C15.9666 45.5634 16.0041 45.5315 16.0392 45.489C16.0735 45.4448 16.1062 45.3862 16.137 45.3131C16.1683 45.2389 16.1877 45.1745 16.1949 45.1201C16.2007 45.0664 16.1956 45.0213 16.1799 44.9846C16.1634 44.9463 16.1384 44.9128 16.1047 44.8843C16.0721 44.8562 16.031 44.8317 15.9812 44.8105L15.5377 44.6232Z" fill="black"/>
<path d="M17.6336 48.1734L16.8953 47.9479L17.8624 44.7811L18.6006 45.0066L17.6336 48.1734Z" fill="black"/>
<path d="M19.2149 48.5059L18.4334 48.3682L20.0006 45.2823L20.9491 45.4493L21.3675 48.8851L20.5807 48.7464L20.5182 48.1238L19.4829 47.9414L19.2149 48.5059ZM20.3547 46.0166L19.7785 47.2921L20.4623 47.4126L20.3547 46.0166Z" fill="black"/>
<path d="M25.5554 48.936L24.5933 48.9774L23.4436 45.7127L24.2417 45.6785L25.042 48.1223L25.6309 45.6186L26.4202 45.5845L25.5554 48.936Z" fill="black"/>
<path d="M27.8166 48.6829L27.037 48.831L27.4099 45.3899L28.356 45.2104L29.9639 48.2753L29.179 48.4244L28.9002 47.8641L27.8671 48.0602L27.8166 48.6829ZM28.0011 45.9513L27.9138 47.3484L28.596 47.2188L28.0011 45.9513Z" fill="black"/>
<path d="M31.5193 47.7786L30.793 48.029L29.7137 44.8989L30.2917 44.6994L32.1434 46.1805L31.4902 44.2863L32.22 44.0346L33.2992 47.1649L32.7162 47.3659L30.8679 45.8896L31.5193 47.7786Z" fill="black"/>
<path d="M35.0855 46.2903C34.9038 46.3864 34.7355 46.4284 34.5809 46.4161C34.4273 46.4033 34.283 46.3477 34.148 46.2492C34.0129 46.1506 33.8852 46.0182 33.7649 45.852C33.6428 45.6853 33.5256 45.4957 33.4133 45.283C33.2921 45.0533 33.1976 44.8387 33.1303 44.6391C33.064 44.4388 33.0358 44.2532 33.0461 44.0818C33.0558 43.9095 33.1156 43.75 33.2258 43.6036C33.3344 43.4565 33.5046 43.3218 33.7364 43.1992C33.881 43.1227 34.0122 43.061 34.1299 43.0137C34.2477 42.9665 34.3617 42.9273 34.4717 42.8964C34.5807 42.8659 34.6939 42.8369 34.8111 42.8091L35.0899 43.3368C35.0274 43.3603 34.9494 43.3914 34.8555 43.4301C34.7623 43.4698 34.6582 43.5159 34.5433 43.5684C34.4283 43.6211 34.3091 43.6798 34.1857 43.7451C34.0273 43.8287 33.922 43.9177 33.8698 44.0118C33.8172 44.1077 33.8119 44.2266 33.8544 44.3688C33.8957 44.5116 33.9764 44.6961 34.0958 44.9225C34.1885 45.0979 34.2714 45.237 34.3447 45.3397C34.417 45.4429 34.4864 45.5163 34.5529 45.5601C34.6201 45.6048 34.6885 45.6237 34.7582 45.6167C34.827 45.6104 34.9006 45.5865 34.9793 45.5448C35.0813 45.491 35.1721 45.4348 35.2515 45.3767C35.3292 45.318 35.3897 45.269 35.4329 45.2298L35.187 44.7642L34.7262 45.0077L34.4406 44.467C34.4941 44.4292 34.5581 44.3872 34.633 44.3409C34.7079 44.2945 34.7871 44.2466 34.8711 44.1969C34.9538 44.1478 35.0309 44.1044 35.1021 44.0668C35.1936 44.0185 35.275 43.9769 35.3462 43.9419C35.4168 43.9058 35.4824 43.8754 35.5426 43.8504L36.4404 45.5503L35.9269 45.8216L35.7317 45.6718C35.6851 45.7535 35.607 45.8553 35.4973 45.9771C35.3887 46.0983 35.2513 46.2027 35.0855 46.2903Z" fill="black"/>
<path d="M38.3709 44.2132C38.2229 44.3223 38.0763 44.4124 37.9315 44.4834C37.7849 44.5541 37.6388 44.5931 37.4933 44.6003C37.3478 44.6074 37.205 44.573 37.0653 44.4969C36.9255 44.4208 36.7884 44.2917 36.6544 44.11L35.3302 42.3146L35.9514 41.8563L37.2734 43.6489C37.332 43.7283 37.3964 43.7792 37.4669 43.8019C37.5381 43.8255 37.6149 43.8243 37.6971 43.7979C37.78 43.7725 37.868 43.7257 37.9608 43.6573C38.0518 43.5901 38.1216 43.5208 38.1702 43.4489C38.2206 43.3774 38.2446 43.3045 38.2419 43.2303C38.2411 43.1563 38.2113 43.0795 38.1529 43.0001L36.8309 41.2077L37.4522 40.7496L38.7763 42.545C38.9105 42.7269 38.9937 42.8955 39.0261 43.0508C39.0576 43.2069 39.0478 43.3538 38.9969 43.4913C38.947 43.6282 38.8676 43.7554 38.7587 43.8731C38.649 43.9898 38.5197 44.1031 38.3709 44.2132Z" fill="black"/>
<path d="M40.4811 42.3923L39.9219 42.9553L38.2829 39.9068L38.9616 39.2234L42.0213 40.8414L41.4584 41.4083L40.9116 41.1042L40.1706 41.8502L40.4811 42.3923ZM39.088 40.0354L39.8062 41.2367L40.2957 40.744L39.088 40.0354Z" fill="black"/>
<path d="M43.0181 39.5656L42.5562 40.1841L39.9033 38.2026L40.7365 37.0871C40.8199 36.9754 40.9109 36.8828 41.0093 36.8092C41.1061 36.7359 41.2135 36.6885 41.3314 36.6671C41.4494 36.6458 41.5796 36.6573 41.7218 36.7021C41.863 36.746 42.0193 36.8321 42.1908 36.9601C42.3072 37.0472 42.3991 37.1323 42.4663 37.2153C42.5324 37.2977 42.5796 37.378 42.6081 37.4564C42.6373 37.5337 42.6525 37.6089 42.6536 37.6817C42.6546 37.7546 42.6501 37.8262 42.6396 37.8963L44.0379 38.2001L43.5684 38.8286L42.3282 38.5213C42.3102 38.5454 42.2896 38.572 42.2663 38.6012C42.242 38.6296 42.2196 38.6579 42.1986 38.6857C42.1771 38.7146 42.1551 38.744 42.1329 38.7739C42.1105 38.8038 42.0896 38.8316 42.0702 38.8577L43.0181 39.5656ZM40.92 37.9986L41.5819 38.493L41.8699 38.1071C41.9023 38.0637 41.925 38.0214 41.9378 37.9799C41.9523 37.9383 41.9551 37.8954 41.9462 37.8512C41.9355 37.8073 41.9137 37.7632 41.8808 37.7189C41.8462 37.675 41.797 37.6294 41.7333 37.5818C41.6688 37.5335 41.6111 37.4994 41.56 37.4795C41.5093 37.4611 41.4641 37.4552 41.4246 37.4616C41.3835 37.4684 41.345 37.4847 41.3093 37.5106C41.2743 37.5354 41.2406 37.5696 41.2082 37.6128L40.92 37.9986Z" fill="black"/>
<path d="M45.1719 36.1712L44.488 37.4293L41.5791 35.8476L42.263 34.5898C42.3749 34.3837 42.5039 34.2349 42.6496 34.1431C42.7942 34.0507 42.9536 34.0005 43.1276 33.9924C43.3001 33.9849 43.4838 34.0143 43.679 34.0808C43.8737 34.1455 44.0755 34.2349 44.2847 34.3484C44.6185 34.5298 44.8714 34.7166 45.0435 34.9088C45.2162 35.0999 45.312 35.2998 45.3311 35.5086C45.3514 35.718 45.2982 35.9389 45.1719 36.1712ZM42.5562 35.5004L44.2499 36.4212L44.5289 35.908C44.587 35.8013 44.6027 35.7004 44.5765 35.6054C44.5495 35.5114 44.4808 35.4165 44.3699 35.3206C44.2592 35.2248 44.1087 35.1252 43.9186 35.0218C43.7379 34.9237 43.5863 34.8541 43.4635 34.8133C43.3401 34.7708 43.2394 34.7523 43.161 34.7577C43.0818 34.7624 43.0171 34.7848 42.9667 34.8245C42.9158 34.8653 42.8719 34.9195 42.8352 34.987L42.5562 35.5004Z" fill="black"/>
<path d="M46.2819 33.7051L46.0164 34.4528L43.2336 32.3949L43.5558 31.4873L47.0135 31.6454L46.746 32.3982L46.1217 32.3564L45.7698 33.3472L46.2819 33.7051ZM44.0166 32.1677L45.1787 32.9478L45.411 32.2935L44.0166 32.1677Z" fill="black"/>
<path d="M0 24.9656C0 24.2606 0.571462 23.6893 1.27621 23.6892C1.98114 23.6892 2.55242 24.2606 2.55242 24.9656C2.55242 25.6705 1.98096 26.2418 1.27621 26.2418C0.571287 26.2418 0 25.6703 0 24.9656Z" fill="black"/>
<path d="M45.4476 24.9656C45.4476 24.2606 46.019 23.6893 46.7238 23.6892C47.4287 23.6892 48 24.2606 48 24.9656C48 25.6705 47.4285 26.2418 46.7238 26.2418C46.0189 26.2418 45.4476 25.6703 45.4476 24.9656Z" fill="black"/>
</svg>
