<svg width="100" height="100" viewBox="0 0 100 100" fill="none" xmlns="http://www.w3.org/2000/svg">
<path d="M6.17889 5.21969C6.17889 5.62156 6.50464 5.94727 6.90648 5.94727C7.30832 5.94727 7.63408 5.62156 7.63408 5.21969C7.63408 4.81781 7.30832 4.4921 6.90648 4.4921C6.50464 4.4921 6.17889 4.81781 6.17889 5.21969ZM6.09807 5.21969C6.09807 4.77319 6.46001 4.41125 6.90648 4.41125C7.35295 4.41125 7.71489 4.77319 7.71489 5.21969C7.71489 5.66618 7.35295 6.02812 6.90648 6.02812C6.46001 6.02812 6.09807 5.66618 6.09807 5.21969Z" fill="black"/>
<path d="M5.88789 14.9834C5.88789 15.546 6.34392 16.002 6.90648 16.002C7.46904 16.002 7.92508 15.546 7.92508 14.9834C7.92508 14.4208 7.46904 13.9647 6.90648 13.9647C6.34392 13.9647 5.88789 14.4208 5.88789 14.9834ZM5.77469 14.9834C5.77469 14.3583 6.28141 13.8516 6.90648 13.8516C7.53156 13.8516 8.03828 14.3583 8.03828 14.9834C8.03828 15.6085 7.53156 16.1152 6.90648 16.1152C6.28141 16.1152 5.77469 15.6085 5.77469 14.9834Z" fill="black"/>
<path d="M5.5968 24.7471C5.5968 25.4704 6.18316 26.0568 6.90648 26.0568C7.6298 26.0568 8.21616 25.4704 8.21616 24.7471C8.21616 24.0238 7.6298 23.4374 6.90648 23.4374C6.18316 23.4374 5.5968 24.0238 5.5968 24.7471ZM5.4513 24.7471C5.4513 23.9435 6.10281 23.2919 6.90648 23.2919C7.71017 23.2919 8.36166 23.9435 8.36166 24.7471C8.36166 25.5508 7.71017 26.2023 6.90648 26.2023C6.10281 26.2023 5.4513 25.5508 5.4513 24.7471Z" fill="black"/>
<path d="M5.30576 34.5108C5.30576 35.3948 6.02244 36.1116 6.90648 36.1116C7.79052 36.1116 8.5072 35.3948 8.5072 34.5108C8.5072 33.6268 7.79052 32.9101 6.90648 32.9101C6.02244 32.9101 5.30576 33.6268 5.30576 34.5108ZM5.12795 34.5108C5.12795 33.5285 5.9242 32.7323 6.90648 32.7323C7.88876 32.7323 8.68501 33.5285 8.68501 34.5108C8.68501 35.4932 7.88876 36.2894 6.90648 36.2894C5.9242 36.2894 5.12795 35.4932 5.12795 34.5108Z" fill="black"/>
<path d="M5.01475 44.2746C5.01475 45.3193 5.86168 46.1663 6.90648 46.1663C7.95128 46.1663 8.79821 45.3193 8.79821 44.2746C8.79821 43.2298 7.95128 42.3828 6.90648 42.3828C5.86168 42.3828 5.01475 43.2298 5.01475 44.2746ZM4.80457 44.2746C4.80457 43.1137 5.74562 42.1726 6.90648 42.1726C8.06734 42.1726 9.00839 43.1137 9.00839 44.2746C9.00839 45.4355 8.06734 46.3765 6.90648 46.3765C5.74562 46.3765 4.80457 45.4355 4.80457 44.2746Z" fill="black"/>
<path d="M4.72371 54.0383C4.72371 55.2438 5.70096 56.2211 6.90648 56.2211C8.112 56.2211 9.08926 55.2438 9.08926 54.0383C9.08926 52.8328 8.112 51.8555 6.90648 51.8555C5.70096 51.8555 4.72371 52.8328 4.72371 54.0383ZM4.48118 54.0383C4.48118 52.6988 5.56702 51.613 6.90648 51.613C8.24595 51.613 9.33178 52.6988 9.33178 54.0383C9.33178 55.3778 8.24595 56.4636 6.90648 56.4636C5.56702 56.4636 4.48118 55.3778 4.48118 54.0383Z" fill="black"/>
<path d="M4.43267 63.802C4.43267 65.1682 5.5402 66.2758 6.90648 66.2758C8.27276 66.2758 9.3803 65.1682 9.3803 63.802C9.3803 62.4358 8.27276 61.3282 6.90648 61.3282C5.5402 61.3282 4.43267 62.4358 4.43267 63.802ZM4.15779 63.802C4.15779 62.2839 5.38841 61.0533 6.90648 61.0533C8.42455 61.0533 9.65518 62.2839 9.65518 63.802C9.65518 65.3201 8.42455 66.5507 6.90648 66.5507C5.38841 66.5507 4.15779 65.3201 4.15779 63.802Z" fill="black"/>
<path d="M4.14162 73.5657C4.14162 75.0928 5.37952 76.3305 6.90648 76.3305C8.43345 76.3305 9.67134 75.0928 9.67134 73.5657C9.67134 72.0387 8.43345 70.8009 6.90648 70.8009C5.37952 70.8009 4.14162 72.0387 4.14162 73.5657ZM3.8344 73.5657C3.8344 71.8691 5.20983 70.4937 6.90648 70.4937C8.60313 70.4937 9.97856 71.8691 9.97856 73.5657C9.97856 75.2624 8.60313 76.6378 6.90648 76.6378C5.20983 76.6378 3.8344 75.2624 3.8344 73.5657Z" fill="black"/>
<path d="M3.85058 83.3294C3.85058 85.0171 5.21877 86.3854 6.90648 86.3854C8.5942 86.3854 9.96238 85.0171 9.96238 83.3294C9.96238 81.6418 8.5942 80.2735 6.90648 80.2735C5.21877 80.2735 3.85058 81.6418 3.85058 83.3294ZM3.51106 83.3294C3.51106 81.4542 5.03124 79.934 6.90648 79.934C8.78174 79.934 10.3019 81.4542 10.3019 83.3294C10.3019 85.2047 8.78174 86.7249 6.90648 86.7249C5.03124 86.7249 3.51106 85.2047 3.51106 83.3294Z" fill="black"/>
<path d="M3.55953 93.0932C3.55953 94.9416 5.05805 96.4401 6.90648 96.4401C8.75492 96.4401 10.2534 94.9416 10.2534 93.0932C10.2534 91.2447 8.75492 89.7463 6.90648 89.7463C5.05805 89.7463 3.55953 91.2447 3.55953 93.0932ZM3.18767 93.0932C3.18767 91.0393 4.85263 89.3744 6.90648 89.3744C8.96034 89.3744 10.6253 91.0393 10.6253 93.0932C10.6253 95.1469 8.96034 96.812 6.90648 96.812C4.85263 96.812 3.18767 95.1469 3.18767 93.0932Z" fill="black"/>
<path d="M16.0059 5.21968C16.0059 5.5866 16.3033 5.88401 16.6702 5.88401C17.0372 5.88401 17.3346 5.5866 17.3346 5.21968C17.3346 4.85276 17.0372 4.55536 16.6702 4.55536C16.3033 4.55536 16.0059 4.85276 16.0059 5.21968ZM15.9321 5.21968C15.9321 4.81205 16.2626 4.48155 16.6702 4.48155C17.0779 4.48155 17.4084 4.81205 17.4084 5.21968C17.4084 5.62732 17.0779 5.95781 16.6702 5.95781C16.2626 5.95781 15.9321 5.62732 15.9321 5.21968Z" fill="black"/>
<path d="M15.7402 14.9834C15.7402 15.4971 16.1566 15.9134 16.6702 15.9134C17.1839 15.9134 17.6002 15.4971 17.6002 14.9834C17.6002 14.4697 17.1839 14.0534 16.6702 14.0534C16.1566 14.0534 15.7402 14.4697 15.7402 14.9834ZM15.6368 14.9834C15.6368 14.4127 16.0995 13.95 16.6702 13.95C17.2409 13.95 17.7036 14.4127 17.7036 14.9834C17.7036 15.5541 17.2409 16.0168 16.6702 16.0168C16.0995 16.0168 15.6368 15.5541 15.6368 14.9834Z" fill="black"/>
<path d="M15.4745 24.7471C15.4745 25.4075 16.0098 25.9429 16.6702 25.9429C17.3307 25.9429 17.866 25.4075 17.866 24.7471C17.866 24.0867 17.3307 23.5514 16.6702 23.5514C16.0098 23.5514 15.4745 24.0867 15.4745 24.7471ZM15.3416 24.7471C15.3416 24.0133 15.9364 23.4185 16.6702 23.4185C17.4041 23.4185 17.9989 24.0133 17.9989 24.7471C17.9989 25.481 17.4041 26.0758 16.6702 26.0758C15.9364 26.0758 15.3416 25.481 15.3416 24.7471Z" fill="black"/>
<path d="M15.2087 34.5108C15.2087 35.318 15.8631 35.9724 16.6702 35.9724C17.4774 35.9724 18.1318 35.318 18.1318 34.5108C18.1318 33.7037 17.4774 33.0493 16.6702 33.0493C15.8631 33.0493 15.2087 33.7037 15.2087 34.5108ZM15.0463 34.5108C15.0463 33.6139 15.7733 32.8869 16.6702 32.8869C17.5671 32.8869 18.2941 33.6139 18.2941 34.5108C18.2941 35.4077 17.5671 36.1347 16.6702 36.1347C15.7733 36.1347 15.0463 35.4077 15.0463 34.5108Z" fill="black"/>
<path d="M14.943 44.2746C14.943 45.2286 15.7163 46.0018 16.6702 46.0018C17.6242 46.0018 18.3974 45.2286 18.3974 44.2746C18.3974 43.3205 17.6242 42.5474 16.6702 42.5474C15.7163 42.5474 14.943 43.3205 14.943 44.2746ZM14.7511 44.2746C14.7511 43.2147 15.6104 42.3554 16.6702 42.3554C17.7301 42.3554 18.5894 43.2147 18.5894 44.2746C18.5894 45.3344 17.7301 46.1937 16.6702 46.1937C15.6104 46.1937 14.7511 45.3344 14.7511 44.2746Z" fill="black"/>
<path d="M14.6773 54.0383C14.6773 55.139 15.5696 56.0313 16.6702 56.0313C17.7709 56.0313 18.6632 55.139 18.6632 54.0383C18.6632 52.9376 17.7709 52.0453 16.6702 52.0453C15.5696 52.0453 14.6773 52.9376 14.6773 54.0383ZM14.4558 54.0383C14.4558 52.8154 15.4472 51.8239 16.6702 51.8239C17.8932 51.8239 18.8847 52.8154 18.8847 54.0383C18.8847 55.2612 17.8932 56.2527 16.6702 56.2527C15.4472 56.2527 14.4558 55.2612 14.4558 54.0383Z" fill="black"/>
<path d="M14.4115 63.802C14.4115 65.0494 15.4228 66.0607 16.6702 66.0607C17.9177 66.0607 18.929 65.0494 18.929 63.802C18.929 62.5546 17.9177 61.5433 16.6702 61.5433C15.4228 61.5433 14.4115 62.5546 14.4115 63.802ZM14.1606 63.802C14.1606 62.4159 15.2842 61.2923 16.6702 61.2923C18.0563 61.2923 19.1799 62.4159 19.1799 63.802C19.1799 65.1881 18.0563 66.3117 16.6702 66.3117C15.2842 66.3117 14.1606 65.1881 14.1606 63.802Z" fill="black"/>
<path d="M14.1458 73.5657C14.1458 74.9599 15.2761 76.0901 16.6702 76.0901C18.0644 76.0901 19.1947 74.9599 19.1947 73.5657C19.1947 72.1716 18.0644 71.0413 16.6702 71.0413C15.2761 71.0413 14.1458 72.1716 14.1458 73.5657ZM13.8653 73.5657C13.8653 72.0166 15.1211 70.7608 16.6702 70.7608C18.2194 70.7608 19.4752 72.0166 19.4752 73.5657C19.4752 75.1148 18.2194 76.3706 16.6702 76.3706C15.1211 76.3706 13.8653 75.1148 13.8653 73.5657Z" fill="black"/>
<path d="M13.8801 83.3294C13.8801 84.8704 15.1292 86.1196 16.6702 86.1196C18.2113 86.1196 19.4604 84.8704 19.4604 83.3294C19.4604 81.7885 18.2113 80.5393 16.6702 80.5393C15.1292 80.5393 13.8801 81.7885 13.8801 83.3294ZM13.5701 83.3294C13.5701 81.6173 14.9581 80.2293 16.6702 80.2293C18.3824 80.2293 19.7704 81.6173 19.7704 83.3294C19.7704 85.0416 18.3824 86.4296 16.6702 86.4296C14.9581 86.4296 13.5701 85.0416 13.5701 83.3294Z" fill="black"/>
<path d="M13.6144 93.0932C13.6144 94.7808 14.9825 96.1491 16.6702 96.1491C18.358 96.1491 19.7261 94.7808 19.7261 93.0932C19.7261 91.4055 18.358 90.0372 16.6702 90.0372C14.9825 90.0372 13.6144 91.4055 13.6144 93.0932ZM13.2748 93.0932C13.2748 91.218 14.795 89.6977 16.6702 89.6977C18.5455 89.6977 20.0657 91.218 20.0657 93.0932C20.0657 94.9684 18.5455 96.4886 16.6702 96.4886C14.795 96.4886 13.2748 94.9684 13.2748 93.0932Z" fill="black"/>
<path d="M25.8329 5.21968C25.8329 5.55165 26.102 5.82073 26.434 5.82073C26.766 5.82073 27.0351 5.55165 27.0351 5.21968C27.0351 4.88772 26.766 4.61863 26.434 4.61863C26.102 4.61863 25.8329 4.88772 25.8329 5.21968ZM25.7662 5.21968C25.7662 4.85081 26.0651 4.55184 26.434 4.55184C26.8029 4.55184 27.1018 4.85081 27.1018 5.21968C27.1018 5.58856 26.8029 5.88752 26.434 5.88752C26.0651 5.88752 25.7662 5.58856 25.7662 5.21968Z" fill="black"/>
<path d="M25.5926 14.9834C25.5926 15.4482 25.9692 15.8248 26.434 15.8248C26.8988 15.8248 27.2754 15.4482 27.2754 14.9834C27.2754 14.5186 26.8988 14.142 26.434 14.142C25.9692 14.142 25.5926 14.5186 25.5926 14.9834ZM25.499 14.9834C25.499 14.467 25.9176 14.0484 26.434 14.0484C26.9504 14.0484 27.369 14.467 27.369 14.9834C27.369 15.4998 26.9504 15.9184 26.434 15.9184C25.9176 15.9184 25.499 15.4998 25.499 14.9834Z" fill="black"/>
<path d="M25.3521 24.7471C25.3521 25.3447 25.8365 25.829 26.434 25.829C27.0315 25.829 27.5159 25.3447 27.5159 24.7471C27.5159 24.1496 27.0315 23.6652 26.434 23.6652C25.8365 23.6652 25.3521 24.1496 25.3521 24.7471ZM25.2319 24.7471C25.2319 24.0832 25.7701 23.545 26.434 23.545C27.0979 23.545 27.6361 24.0832 27.6361 24.7471C27.6361 25.411 27.0979 25.9492 26.434 25.9492C25.7701 25.9492 25.2319 25.411 25.2319 24.7471Z" fill="black"/>
<path d="M25.1117 34.5108C25.1117 35.2411 25.7038 35.8331 26.434 35.8331C27.1642 35.8331 27.7563 35.2411 27.7563 34.5108C27.7563 33.7806 27.1642 33.1885 26.434 33.1885C25.7038 33.1885 25.1117 33.7806 25.1117 34.5108ZM24.9647 34.5108C24.9647 33.6994 25.6225 33.0416 26.434 33.0416C27.2455 33.0416 27.9032 33.6994 27.9032 34.5108C27.9032 35.3223 27.2455 35.9801 26.434 35.9801C25.6225 35.9801 24.9647 35.3223 24.9647 34.5108Z" fill="black"/>
<path d="M24.8713 44.2746C24.8713 45.1377 25.5709 45.8373 26.434 45.8373C27.2971 45.8373 27.9968 45.1377 27.9968 44.2746C27.9968 43.4114 27.2971 42.7118 26.434 42.7118C25.5709 42.7118 24.8713 43.4114 24.8713 44.2746ZM24.6976 44.2746C24.6976 43.3156 25.475 42.5382 26.434 42.5382C27.393 42.5382 28.1704 43.3156 28.1704 44.2746C28.1704 45.2336 27.393 46.0109 26.434 46.0109C25.475 46.0109 24.6976 45.2336 24.6976 44.2746Z" fill="black"/>
<path d="M24.6308 54.0383C24.6308 55.0341 25.4381 55.8414 26.434 55.8414C27.4299 55.8414 28.2372 55.0341 28.2372 54.0383C28.2372 53.0425 27.4299 52.2351 26.434 52.2351C25.4381 52.2351 24.6308 53.0425 24.6308 54.0383ZM24.4305 54.0383C24.4305 52.9318 25.3275 52.0348 26.434 52.0348C27.5405 52.0348 28.4375 52.9318 28.4375 54.0383C28.4375 55.1448 27.5405 56.0418 26.434 56.0418C25.3275 56.0418 24.4305 55.1448 24.4305 54.0383Z" fill="black"/>
<path d="M24.3904 63.802C24.3904 64.9307 25.3053 65.8456 26.434 65.8456C27.5627 65.8456 28.4776 64.9307 28.4776 63.802C28.4776 62.6733 27.5627 61.7584 26.434 61.7584C25.3053 61.7584 24.3904 62.6733 24.3904 63.802ZM24.1633 63.802C24.1633 62.548 25.1799 61.5314 26.434 61.5314C27.6881 61.5314 28.7047 62.548 28.7047 63.802C28.7047 65.0561 27.6881 66.0727 26.434 66.0727C25.1799 66.0727 24.1633 65.0561 24.1633 63.802Z" fill="black"/>
<path d="M24.15 73.5657C24.15 74.8272 25.1726 75.8498 26.434 75.8498C27.6954 75.8498 28.718 74.8272 28.718 73.5657C28.718 72.3043 27.6954 71.2817 26.434 71.2817C25.1726 71.2817 24.15 72.3043 24.15 73.5657ZM23.8962 73.5657C23.8962 72.1641 25.0324 71.0279 26.434 71.0279C27.8356 71.0279 28.9718 72.1641 28.9718 73.5657C28.9718 74.9673 27.8356 76.1035 26.434 76.1035C25.0324 76.1035 23.8962 74.9673 23.8962 73.5657Z" fill="black"/>
<path d="M23.9096 83.3295C23.9096 84.7236 25.0398 85.8539 26.434 85.8539C27.8282 85.8539 28.9584 84.7236 28.9584 83.3295C28.9584 81.9353 27.8282 80.805 26.434 80.805C25.0398 80.805 23.9096 81.9353 23.9096 83.3295ZM23.6291 83.3295C23.6291 81.7803 24.8849 80.5245 26.434 80.5245C27.9831 80.5245 29.2389 81.7803 29.2389 83.3295C29.2389 84.8786 27.9831 86.1344 26.434 86.1344C24.8849 86.1344 23.6291 84.8786 23.6291 83.3295Z" fill="black"/>
<path d="M23.6692 93.0932C23.6692 94.6202 24.907 95.8579 26.434 95.8579C27.961 95.8579 29.1988 94.6202 29.1988 93.0932C29.1988 91.5661 27.961 90.3284 26.434 90.3284C24.907 90.3284 23.6692 91.5661 23.6692 93.0932ZM23.3619 93.0932C23.3619 91.3965 24.7374 90.0211 26.434 90.0211C28.1306 90.0211 29.5061 91.3965 29.5061 93.0932C29.5061 94.7898 28.1306 96.1652 26.434 96.1652C24.7374 96.1652 23.3619 94.7898 23.3619 93.0932Z" fill="black"/>
<path d="M35.66 5.21968C35.66 5.51669 35.9007 5.75746 36.1978 5.75746C36.4948 5.75746 36.7355 5.51669 36.7355 5.21968C36.7355 4.92267 36.4948 4.68189 36.1978 4.68189C35.9007 4.68189 35.66 4.92267 35.66 5.21968ZM35.6002 5.21968C35.6002 4.88966 35.8677 4.62214 36.1978 4.62214C36.5278 4.62214 36.7953 4.88966 36.7953 5.21968C36.7953 5.54969 36.5278 5.81722 36.1978 5.81722C35.8677 5.81722 35.6002 5.54969 35.6002 5.21968Z" fill="black"/>
<path d="M35.4449 14.9834C35.4449 15.3992 35.7819 15.7363 36.1978 15.7363C36.6136 15.7363 36.9506 15.3992 36.9506 14.9834C36.9506 14.5676 36.6136 14.2305 36.1978 14.2305C35.7819 14.2305 35.4449 14.5676 35.4449 14.9834ZM35.3612 14.9834C35.3612 14.5214 35.7357 14.1468 36.1978 14.1468C36.6598 14.1468 37.0343 14.5214 37.0343 14.9834C37.0343 15.4454 36.6598 15.82 36.1978 15.82C35.7357 15.82 35.3612 15.4454 35.3612 14.9834Z" fill="black"/>
<path d="M35.2298 24.7471C35.2298 25.2818 35.6631 25.7152 36.1978 25.7152C36.7324 25.7152 37.1657 25.2818 37.1657 24.7471C37.1657 24.2125 36.7324 23.779 36.1978 23.779C35.6631 23.779 35.2298 24.2125 35.2298 24.7471ZM35.1222 24.7471C35.1222 24.1531 35.6037 23.6715 36.1978 23.6715C36.7918 23.6715 37.2733 24.1531 37.2733 24.7471C37.2733 25.3411 36.7918 25.8227 36.1978 25.8227C35.6037 25.8227 35.1222 25.3411 35.1222 24.7471Z" fill="black"/>
<path d="M35.0147 34.5108C35.0147 35.1642 35.5444 35.694 36.1978 35.694C36.8511 35.694 37.3808 35.1642 37.3808 34.5108C37.3808 33.8575 36.8511 33.3277 36.1978 33.3277C35.5444 33.3277 35.0147 33.8575 35.0147 34.5108ZM34.8832 34.5108C34.8832 33.7848 35.4717 33.1963 36.1978 33.1963C36.9238 33.1963 37.5123 33.7848 37.5123 34.5108C37.5123 35.2369 36.9238 35.8254 36.1978 35.8254C35.4717 35.8254 34.8832 35.2369 34.8832 34.5108Z" fill="black"/>
<path d="M34.7996 44.2746C34.7996 45.0468 35.4255 45.6727 36.1978 45.6727C36.97 45.6727 37.5959 45.0468 37.5959 44.2746C37.5959 43.5023 36.97 42.8764 36.1978 42.8764C35.4255 42.8764 34.7996 43.5023 34.7996 44.2746ZM34.6441 44.2746C34.6441 43.4165 35.3397 42.721 36.1978 42.721C37.0558 42.721 37.7514 43.4165 37.7514 44.2746C37.7514 45.1326 37.0558 45.8282 36.1978 45.8282C35.3397 45.8282 34.6441 45.1326 34.6441 44.2746Z" fill="black"/>
<path d="M34.5844 54.0383C34.5844 54.9293 35.3067 55.6516 36.1978 55.6516C37.0888 55.6516 37.8111 54.9293 37.8111 54.0383C37.8111 53.1472 37.0888 52.4249 36.1978 52.4249C35.3067 52.4249 34.5844 53.1472 34.5844 54.0383ZM34.4051 54.0383C34.4051 53.0482 35.2077 52.2457 36.1978 52.2457C37.1878 52.2457 37.9904 53.0482 37.9904 54.0383C37.9904 55.0283 37.1878 55.8309 36.1978 55.8309C35.2077 55.8309 34.4051 55.0283 34.4051 54.0383Z" fill="black"/>
<path d="M34.3692 63.802C34.3692 64.8119 35.1879 65.6306 36.1978 65.6306C37.2076 65.6306 38.0263 64.8119 38.0263 63.802C38.0263 62.7921 37.2076 61.9735 36.1978 61.9735C35.1879 61.9735 34.3692 62.7921 34.3692 63.802ZM34.1661 63.802C34.1661 62.68 35.0757 61.7704 36.1978 61.7704C37.3198 61.7704 38.2294 62.68 38.2294 63.802C38.2294 64.9241 37.3198 65.8336 36.1978 65.8336C35.0757 65.8336 34.1661 64.9241 34.1661 63.802Z" fill="black"/>
<path d="M34.1541 73.5657C34.1541 74.6944 35.0691 75.6094 36.1978 75.6094C37.3264 75.6094 38.2414 74.6944 38.2414 73.5657C38.2414 72.437 37.3264 71.5221 36.1978 71.5221C35.0691 71.5221 34.1541 72.437 34.1541 73.5657ZM33.9271 73.5657C33.9271 72.3117 34.9437 71.2951 36.1978 71.2951C37.4518 71.2951 38.4684 72.3117 38.4684 73.5657C38.4684 74.8198 37.4518 75.8364 36.1978 75.8364C34.9437 75.8364 33.9271 74.8198 33.9271 73.5657Z" fill="black"/>
<path d="M33.939 83.3294C33.939 84.5769 34.9503 85.5882 36.1978 85.5882C37.4452 85.5882 38.4565 84.5769 38.4565 83.3294C38.4565 82.082 37.4452 81.0707 36.1978 81.0707C34.9503 81.0707 33.939 82.082 33.939 83.3294ZM33.6881 83.3294C33.6881 81.9434 34.8117 80.8198 36.1978 80.8198C37.5838 80.8198 38.7074 81.9434 38.7074 83.3294C38.7074 84.7155 37.5838 85.8391 36.1978 85.8391C34.8117 85.8391 33.6881 84.7155 33.6881 83.3294Z" fill="black"/>
<path d="M33.7239 93.0932C33.7239 94.4594 34.8315 95.567 36.1978 95.567C37.564 95.567 38.6716 94.4594 38.6716 93.0932C38.6716 91.7269 37.564 90.6193 36.1978 90.6193C34.8315 90.6193 33.7239 91.7269 33.7239 93.0932ZM33.4491 93.0932C33.4491 91.5751 34.6797 90.3445 36.1978 90.3445C37.7158 90.3445 38.9464 91.5751 38.9464 93.0932C38.9464 94.6112 37.7158 95.8419 36.1978 95.8419C34.6797 95.8419 33.4491 94.6112 33.4491 93.0932Z" fill="black"/>
<path d="M45.487 5.21968C45.487 5.48174 45.6994 5.69419 45.9615 5.69419C46.2237 5.69419 46.436 5.48174 46.436 5.21968C46.436 4.95762 46.2237 4.74517 45.9615 4.74517C45.6994 4.74517 45.487 4.95762 45.487 5.21968ZM45.4343 5.21968C45.4343 4.92853 45.6704 4.69244 45.9615 4.69244C46.2527 4.69244 46.4888 4.92853 46.4888 5.21968C46.4888 5.51084 46.2527 5.74692 45.9615 5.74692C45.6704 5.74692 45.4343 5.51084 45.4343 5.21968Z" fill="black"/>
<path d="M45.2972 14.9834C45.2972 15.3503 45.5946 15.6477 45.9615 15.6477C46.3284 15.6477 46.6258 15.3503 46.6258 14.9834C46.6258 14.6165 46.3284 14.3191 45.9615 14.3191C45.5946 14.3191 45.2972 14.6165 45.2972 14.9834ZM45.2234 14.9834C45.2234 14.5758 45.5539 14.2453 45.9615 14.2453C46.3692 14.2453 46.6997 14.5758 46.6997 14.9834C46.6997 15.391 46.3692 15.7215 45.9615 15.7215C45.5539 15.7215 45.2234 15.391 45.2234 14.9834Z" fill="black"/>
<path d="M45.1074 24.7471C45.1074 25.2189 45.4898 25.6012 45.9615 25.6012C46.4332 25.6012 46.8156 25.2189 46.8156 24.7471C46.8156 24.2753 46.4332 23.893 45.9615 23.893C45.4898 23.893 45.1074 24.2753 45.1074 24.7471ZM45.0125 24.7471C45.0125 24.223 45.4374 23.7981 45.9615 23.7981C46.4856 23.7981 46.9106 24.223 46.9106 24.7471C46.9106 25.2712 46.4856 25.6962 45.9615 25.6962C45.4374 25.6962 45.0125 25.2712 45.0125 24.7471Z" fill="black"/>
<path d="M44.9176 34.5108C44.9176 35.0874 45.385 35.5548 45.9615 35.5548C46.5381 35.5548 47.0055 35.0874 47.0055 34.5108C47.0055 33.9343 46.5381 33.4669 45.9615 33.4669C45.385 33.4669 44.9176 33.9343 44.9176 34.5108ZM44.8016 34.5108C44.8016 33.8702 45.3208 33.3509 45.9615 33.3509C46.6022 33.3509 47.1214 33.8702 47.1214 34.5108C47.1214 35.1514 46.6022 35.6708 45.9615 35.6708C45.3208 35.6708 44.8016 35.1514 44.8016 34.5108Z" fill="black"/>
<path d="M44.7278 44.2746C44.7278 44.956 45.2801 45.5083 45.9615 45.5083C46.6429 45.5083 47.1953 44.956 47.1953 44.2746C47.1953 43.5932 46.6429 43.0408 45.9615 43.0408C45.2801 43.0408 44.7278 43.5932 44.7278 44.2746ZM44.5907 44.2746C44.5907 43.5175 45.2044 42.9037 45.9615 42.9037C46.7186 42.9037 47.3324 43.5175 47.3324 44.2746C47.3324 45.0316 46.7186 45.6454 45.9615 45.6454C45.2044 45.6454 44.5907 45.0316 44.5907 44.2746Z" fill="black"/>
<path d="M44.538 54.0383C44.538 54.8246 45.1752 55.4618 45.9615 55.4618C46.7478 55.4618 47.3851 54.8246 47.3851 54.0383C47.3851 53.252 46.7478 52.6147 45.9615 52.6147C45.1752 52.6147 44.538 53.252 44.538 54.0383ZM44.3798 54.0383C44.3798 53.1647 45.0879 52.4566 45.9615 52.4566C46.8351 52.4566 47.5432 53.1647 47.5432 54.0383C47.5432 54.9118 46.8351 55.62 45.9615 55.62C45.0879 55.62 44.3798 54.9118 44.3798 54.0383Z" fill="black"/>
<path d="M44.3481 63.802C44.3481 64.693 45.0705 65.4154 45.9615 65.4154C46.8526 65.4154 47.5749 64.693 47.5749 63.802C47.5749 62.911 46.8526 62.1886 45.9615 62.1886C45.0705 62.1886 44.3481 62.911 44.3481 63.802ZM44.1689 63.802C44.1689 62.812 44.9715 62.0094 45.9615 62.0094C46.9516 62.0094 47.7541 62.812 47.7541 63.802C47.7541 64.792 46.9516 65.5946 45.9615 65.5946C44.9715 65.5946 44.1689 64.792 44.1689 63.802Z" fill="black"/>
<path d="M44.1583 73.5657C44.1583 74.5615 44.9657 75.3689 45.9615 75.3689C46.9573 75.3689 47.7647 74.5615 47.7647 73.5657C47.7647 72.5699 46.9573 71.7626 45.9615 71.7626C44.9657 71.7626 44.1583 72.5699 44.1583 73.5657ZM43.958 73.5657C43.958 72.4592 44.855 71.5622 45.9615 71.5622C47.068 71.5622 47.965 72.4592 47.965 73.5657C47.965 74.6722 47.068 75.5692 45.9615 75.5692C44.855 75.5692 43.958 74.6722 43.958 73.5657Z" fill="black"/>
<path d="M43.9685 83.3294C43.9685 84.4301 44.8608 85.3224 45.9615 85.3224C47.0622 85.3224 47.9545 84.4301 47.9545 83.3294C47.9545 82.2288 47.0622 81.3365 45.9615 81.3365C44.8608 81.3365 43.9685 82.2288 43.9685 83.3294ZM43.7471 83.3294C43.7471 82.1065 44.7386 81.115 45.9615 81.115C47.1844 81.115 48.1759 82.1065 48.1759 83.3294C48.1759 84.5524 47.1844 85.5439 45.9615 85.5439C44.7386 85.5439 43.7471 84.5524 43.7471 83.3294Z" fill="black"/>
<path d="M43.7787 93.0932C43.7787 94.2987 44.756 95.2759 45.9615 95.2759C47.167 95.2759 48.1443 94.2987 48.1443 93.0932C48.1443 91.8876 47.167 90.9104 45.9615 90.9104C44.756 90.9104 43.7787 91.8876 43.7787 93.0932ZM43.5362 93.0932C43.5362 91.7537 44.622 90.6678 45.9615 90.6678C47.301 90.6678 48.3868 91.7537 48.3868 93.0932C48.3868 94.4326 47.301 95.5185 45.9615 95.5185C44.622 95.5185 43.5362 94.4326 43.5362 93.0932Z" fill="black"/>
<path d="M55.314 5.21968C55.314 5.44678 55.4982 5.63093 55.7253 5.63093C55.9524 5.63093 56.1365 5.44678 56.1365 5.21968C56.1365 4.99257 55.9524 4.80843 55.7253 4.80843C55.4982 4.80843 55.314 4.99257 55.314 5.21968ZM55.2683 5.21968C55.2683 4.96729 55.4729 4.76274 55.7253 4.76274C55.9777 4.76274 56.1822 4.96729 56.1822 5.21968C56.1822 5.47207 55.9777 5.67662 55.7253 5.67662C55.4729 5.67662 55.2683 5.47207 55.2683 5.21968Z" fill="black"/>
<path d="M55.1496 14.9834C55.1496 15.3014 55.4073 15.5592 55.7253 15.5592C56.0433 15.5592 56.3009 15.3014 56.3009 14.9834C56.3009 14.6654 56.0433 14.4076 55.7253 14.4076C55.4073 14.4076 55.1496 14.6654 55.1496 14.9834ZM55.0856 14.9834C55.0856 14.6301 55.372 14.3437 55.7253 14.3437C56.0785 14.3437 56.365 14.6301 56.365 14.9834C56.365 15.3368 56.0785 15.6231 55.7253 15.6231C55.372 15.6231 55.0856 15.3368 55.0856 14.9834Z" fill="black"/>
<path d="M54.985 24.7471C54.985 25.1559 55.3165 25.4874 55.7253 25.4874C56.1342 25.4874 56.4656 25.1559 56.4656 24.7471C56.4656 24.3383 56.1342 24.0068 55.7253 24.0068C55.3165 24.0068 54.985 24.3383 54.985 24.7471ZM54.9028 24.7471C54.9028 24.2929 55.2711 23.9246 55.7253 23.9246C56.1795 23.9246 56.5478 24.2929 56.5478 24.7471C56.5478 25.2013 56.1795 25.5696 55.7253 25.5696C55.2711 25.5696 54.9028 25.2013 54.9028 24.7471Z" fill="black"/>
<path d="M54.8205 34.5108C54.8205 35.0105 55.2257 35.4156 55.7253 35.4156C56.2249 35.4156 56.6301 35.0105 56.6301 34.5108C56.6301 34.0111 56.2249 33.606 55.7253 33.606C55.2257 33.606 54.8205 34.0111 54.8205 34.5108ZM54.72 34.5108C54.72 33.9556 55.17 33.5056 55.7253 33.5056C56.2805 33.5056 56.7305 33.9556 56.7305 34.5108C56.7305 35.0661 56.2805 35.5161 55.7253 35.5161C55.17 35.5161 54.72 35.0661 54.72 34.5108Z" fill="black"/>
<path d="M54.656 44.2746C54.656 44.8651 55.1348 45.3438 55.7253 45.3438C56.3158 45.3438 56.7945 44.8651 56.7945 44.2746C56.7945 43.684 56.3158 43.2053 55.7253 43.2053C55.1348 43.2053 54.656 43.684 54.656 44.2746ZM54.5372 44.2746C54.5372 43.6183 55.069 43.0865 55.7253 43.0865C56.3815 43.0865 56.9133 43.6183 56.9133 44.2746C56.9133 44.9308 56.3815 45.4626 55.7253 45.4626C55.069 45.4626 54.5372 44.9308 54.5372 44.2746Z" fill="black"/>
<path d="M54.4915 54.0383C54.4915 54.7197 55.0439 55.272 55.7253 55.272C56.4067 55.272 56.959 54.7197 56.959 54.0383C56.959 53.3569 56.4067 52.8045 55.7253 52.8045C55.0439 52.8045 54.4915 53.3569 54.4915 54.0383ZM54.3544 54.0383C54.3544 53.2812 54.9682 52.6675 55.7253 52.6675C56.4824 52.6675 57.0961 53.2812 57.0961 54.0383C57.0961 54.7954 56.4824 55.4091 55.7253 55.4091C54.9682 55.4091 54.3544 54.7954 54.3544 54.0383Z" fill="black"/>
<path d="M54.3271 63.802C54.3271 64.5742 54.9531 65.2002 55.7253 65.2002C56.4975 65.2002 57.1234 64.5742 57.1234 63.802C57.1234 63.0298 56.4975 62.4038 55.7253 62.4038C54.9531 62.4038 54.3271 63.0298 54.3271 63.802ZM54.1717 63.802C54.1717 62.944 54.8672 62.2484 55.7253 62.2484C56.5833 62.2484 57.2789 62.944 57.2789 63.802C57.2789 64.66 56.5833 65.3556 55.7253 65.3556C54.8672 65.3556 54.1717 64.66 54.1717 63.802Z" fill="black"/>
<path d="M54.1625 73.5657C54.1625 74.4288 54.8622 75.1285 55.7253 75.1285C56.5884 75.1285 57.2881 74.4288 57.2881 73.5657C57.2881 72.7026 56.5884 72.0029 55.7253 72.0029C54.8622 72.0029 54.1625 72.7026 54.1625 73.5657ZM53.9889 73.5657C53.9889 72.6067 54.7663 71.8293 55.7253 71.8293C56.6843 71.8293 57.4617 72.6067 57.4617 73.5657C57.4617 74.5247 56.6843 75.3021 55.7253 75.3021C54.7663 75.3021 53.9889 74.5247 53.9889 73.5657Z" fill="black"/>
<path d="M53.9981 83.3294C53.9981 84.2835 54.7713 85.0566 55.7253 85.0566C56.6793 85.0566 57.4525 84.2835 57.4525 83.3294C57.4525 82.3754 56.6793 81.6022 55.7253 81.6022C54.7713 81.6022 53.9981 82.3754 53.9981 83.3294ZM53.8061 83.3294C53.8061 82.2696 54.6654 81.4103 55.7253 81.4103C56.7851 81.4103 57.6444 82.2696 57.6444 83.3294C57.6444 84.3893 56.7851 85.2486 55.7253 85.2486C54.6654 85.2486 53.8061 84.3893 53.8061 83.3294Z" fill="black"/>
<path d="M53.8335 93.0932C53.8335 94.1379 54.6806 94.9849 55.7253 94.9849C56.77 94.9849 57.617 94.1379 57.617 93.0932C57.617 92.0484 56.77 91.2014 55.7253 91.2014C54.6806 91.2014 53.8335 92.0484 53.8335 93.0932ZM53.6233 93.0932C53.6233 91.9322 54.5644 90.9912 55.7253 90.9912C56.8862 90.9912 57.8272 91.9322 57.8272 93.0932C57.8272 94.2541 56.8862 95.1951 55.7253 95.1951C54.5644 95.1951 53.6233 94.2541 53.6233 93.0932Z" fill="black"/>
<path d="M65.141 5.21968C65.141 5.41183 65.2968 5.56766 65.489 5.56766C65.6813 5.56766 65.837 5.41183 65.837 5.21968C65.837 5.02753 65.6813 4.87171 65.489 4.87171C65.2968 4.87171 65.141 5.02753 65.141 5.21968ZM65.1024 5.21968C65.1024 5.00615 65.2755 4.83304 65.489 4.83304C65.7027 4.83304 65.8757 5.00615 65.8757 5.21968C65.8757 5.43321 65.7027 5.60632 65.489 5.60632C65.2755 5.60632 65.1024 5.43321 65.1024 5.21968Z" fill="black"/>
<path d="M65.0019 14.9834C65.0019 15.2525 65.2199 15.4706 65.489 15.4706C65.7581 15.4706 65.9761 15.2525 65.9761 14.9834C65.9761 14.7143 65.7581 14.4962 65.489 14.4962C65.2199 14.4962 65.0019 14.7143 65.0019 14.9834ZM64.9477 14.9834C64.9477 14.6844 65.1901 14.4421 65.489 14.4421C65.788 14.4421 66.0303 14.6844 66.0303 14.9834C66.0303 15.2824 65.788 15.5247 65.489 15.5247C65.1901 15.5247 64.9477 15.2824 64.9477 14.9834Z" fill="black"/>
<path d="M64.8627 24.7471C64.8627 25.0931 65.1431 25.3735 65.489 25.3735C65.835 25.3735 66.1154 25.0931 66.1154 24.7471C66.1154 24.4012 65.835 24.1208 65.489 24.1208C65.1431 24.1208 64.8627 24.4012 64.8627 24.7471ZM64.7931 24.7471C64.7931 24.3627 65.1046 24.0512 65.489 24.0512C65.8734 24.0512 66.185 24.3627 66.185 24.7471C66.185 25.1315 65.8734 25.4431 65.489 25.4431C65.1046 25.4431 64.7931 25.1315 64.7931 24.7471Z" fill="black"/>
<path d="M64.7234 34.5108C64.7234 34.9337 65.0663 35.2764 65.489 35.2764C65.9118 35.2764 66.2546 34.9337 66.2546 34.5108C66.2546 34.088 65.9118 33.7453 65.489 33.7453C65.0663 33.7453 64.7234 34.088 64.7234 34.5108ZM64.6384 34.5108C64.6384 34.041 65.0192 33.6602 65.489 33.6602C65.9589 33.6602 66.3397 34.041 66.3397 34.5108C66.3397 34.9807 65.9589 35.3615 65.489 35.3615C65.0192 35.3615 64.6384 34.9807 64.6384 34.5108Z" fill="black"/>
<path d="M64.5842 44.2746C64.5842 44.7743 64.9894 45.1794 65.489 45.1794C65.9886 45.1794 66.3938 44.7743 66.3938 44.2746C66.3938 43.7749 65.9886 43.3698 65.489 43.3698C64.9894 43.3698 64.5842 43.7749 64.5842 44.2746ZM64.4837 44.2746C64.4837 43.7193 64.9338 43.2693 65.489 43.2693C66.0443 43.2693 66.4943 43.7193 66.4943 44.2746C66.4943 44.8298 66.0443 45.2798 65.489 45.2798C64.9338 45.2798 64.4837 44.8298 64.4837 44.2746Z" fill="black"/>
<path d="M64.4451 54.0383C64.4451 54.6148 64.9125 55.0822 65.489 55.0822C66.0656 55.0822 66.533 54.6148 66.533 54.0383C66.533 53.4617 66.0656 52.9943 65.489 52.9943C64.9125 52.9943 64.4451 53.4617 64.4451 54.0383ZM64.3291 54.0383C64.3291 53.3976 64.8483 52.8784 65.489 52.8784C66.1297 52.8784 66.649 53.3976 66.649 54.0383C66.649 54.679 66.1297 55.1982 65.489 55.1982C64.8483 55.1982 64.3291 54.679 64.3291 54.0383Z" fill="black"/>
<path d="M64.306 63.802C64.306 64.4554 64.8356 64.9851 65.489 64.9851C66.1424 64.9851 66.6721 64.4554 66.6721 63.802C66.6721 63.1486 66.1424 62.6189 65.489 62.6189C64.8356 62.6189 64.306 63.1486 64.306 63.802ZM64.1744 63.802C64.1744 63.076 64.763 62.4874 65.489 62.4874C66.2151 62.4874 66.8036 63.076 66.8036 63.802C66.8036 64.528 66.2151 65.1166 65.489 65.1166C64.763 65.1166 64.1744 64.528 64.1744 63.802Z" fill="black"/>
<path d="M64.1667 73.5657C64.1667 74.296 64.7588 74.888 65.489 74.888C66.2193 74.888 66.8113 74.296 66.8113 73.5657C66.8113 72.8355 66.2193 72.2434 65.489 72.2434C64.7588 72.2434 64.1667 72.8355 64.1667 73.5657ZM64.0198 73.5657C64.0198 72.7543 64.6776 72.0965 65.489 72.0965C66.3005 72.0965 66.9583 72.7543 66.9583 73.5657C66.9583 74.3772 66.3005 75.035 65.489 75.035C64.6776 75.035 64.0198 74.3772 64.0198 73.5657Z" fill="black"/>
<path d="M64.0275 83.3294C64.0275 84.1366 64.6819 84.791 65.489 84.791C66.2962 84.791 66.9506 84.1366 66.9506 83.3294C66.9506 82.5223 66.2962 81.8679 65.489 81.8679C64.6819 81.8679 64.0275 82.5223 64.0275 83.3294ZM63.8651 83.3294C63.8651 82.4325 64.5921 81.7056 65.489 81.7056C66.3859 81.7056 67.1129 82.4325 67.1129 83.3294C67.1129 84.2263 66.3859 84.9533 65.489 84.9533C64.5921 84.9533 63.8651 84.2263 63.8651 83.3294Z" fill="black"/>
<path d="M63.8883 93.0932C63.8883 93.9773 64.6049 94.6939 65.489 94.6939C66.3731 94.6939 67.0898 93.9773 67.0898 93.0932C67.0898 92.209 66.3731 91.4924 65.489 91.4924C64.6049 91.4924 63.8883 92.209 63.8883 93.0932ZM63.7105 93.0932C63.7105 92.1108 64.5067 91.3146 65.489 91.3146C66.4714 91.3146 67.2676 92.1108 67.2676 93.0932C67.2676 94.0755 66.4714 94.8717 65.489 94.8717C64.5067 94.8717 63.7105 94.0755 63.7105 93.0932Z" fill="black"/>
<path d="M74.9681 5.21968C74.9681 5.37688 75.0956 5.50439 75.2528 5.50439C75.41 5.50439 75.5375 5.37688 75.5375 5.21968C75.5375 5.06239 75.41 4.93497 75.2528 4.93497C75.0956 4.93497 74.9681 5.06239 74.9681 5.21968ZM74.9364 5.21968C74.9364 5.04491 75.0781 4.90333 75.2528 4.90333C75.4275 4.90333 75.5691 5.04491 75.5691 5.21968C75.5691 5.39435 75.4275 5.53603 75.2528 5.53603C75.0781 5.53603 74.9364 5.39435 74.9364 5.21968Z" fill="black"/>
<path d="M74.8542 14.9834C74.8542 15.2036 75.0326 15.382 75.2528 15.382C75.473 15.382 75.6513 15.2036 75.6513 14.9834C75.6513 14.7632 75.473 14.5847 75.2528 14.5847C75.0326 14.5847 74.8542 14.7632 74.8542 14.9834ZM74.8099 14.9834C74.8099 14.7388 75.0082 14.5405 75.2528 14.5405C75.4974 14.5405 75.6957 14.7388 75.6957 14.9834C75.6957 15.228 75.4974 15.4263 75.2528 15.4263C75.0082 15.4263 74.8099 15.228 74.8099 14.9834Z" fill="black"/>
<path d="M74.7403 24.7471C74.7403 25.0302 74.9698 25.2596 75.2528 25.2596C75.5357 25.2596 75.7653 25.0302 75.7653 24.7471C75.7653 24.4641 75.5357 24.2346 75.2528 24.2346C74.9698 24.2346 74.7403 24.4641 74.7403 24.7471ZM74.6834 24.7471C74.6834 24.4326 74.9383 24.1777 75.2528 24.1777C75.5673 24.1777 75.8222 24.4326 75.8222 24.7471C75.8222 25.0616 75.5673 25.3165 75.2528 25.3165C74.9383 25.3165 74.6834 25.0616 74.6834 24.7471Z" fill="black"/>
<path d="M74.6264 34.5108C74.6264 34.8568 74.9069 35.1372 75.2528 35.1372C75.5987 35.1372 75.8791 34.8568 75.8791 34.5108C75.8791 34.1649 75.5987 33.8845 75.2528 33.8845C74.9069 33.8845 74.6264 34.1649 74.6264 34.5108ZM74.5568 34.5108C74.5568 34.1264 74.8684 33.8149 75.2528 33.8149C75.6372 33.8149 75.9487 34.1264 75.9487 34.5108C75.9487 34.8952 75.6372 35.2068 75.2528 35.2068C74.8684 35.2068 74.5568 34.8952 74.5568 34.5108Z" fill="black"/>
<path d="M74.5125 44.2746C74.5125 44.6835 74.844 45.0148 75.2528 45.0148C75.6617 45.0148 75.9931 44.6835 75.9931 44.2746C75.9931 43.8658 75.6617 43.5343 75.2528 43.5343C74.844 43.5343 74.5125 43.8658 74.5125 44.2746ZM74.4303 44.2746C74.4303 43.8204 74.7986 43.4521 75.2528 43.4521C75.707 43.4521 76.0753 43.8204 76.0753 44.2746C76.0753 44.7288 75.707 45.0971 75.2528 45.0971C74.7986 45.0971 74.4303 44.7288 74.4303 44.2746Z" fill="black"/>
<path d="M74.3987 54.0383C74.3987 54.51 74.7811 54.8924 75.2528 54.8924C75.7245 54.8924 76.1069 54.51 76.1069 54.0383C76.1069 53.5666 75.7245 53.1842 75.2528 53.1842C74.7811 53.1842 74.3987 53.5666 74.3987 54.0383ZM74.3037 54.0383C74.3037 53.5142 74.7287 53.0892 75.2528 53.0892C75.7769 53.0892 76.2018 53.5142 76.2018 54.0383C76.2018 54.5624 75.7769 54.9873 75.2528 54.9873C74.7287 54.9873 74.3037 54.5624 74.3037 54.0383Z" fill="black"/>
<path d="M74.2848 63.802C74.2848 64.3367 74.7181 64.77 75.2528 64.77C75.7875 64.77 76.2208 64.3367 76.2208 63.802C76.2208 63.2673 75.7875 62.834 75.2528 62.834C74.7181 62.834 74.2848 63.2673 74.2848 63.802ZM74.1772 63.802C74.1772 63.208 74.6588 62.7264 75.2528 62.7264C75.8468 62.7264 76.3284 63.208 76.3284 63.802C76.3284 64.396 75.8468 64.8776 75.2528 64.8776C74.6588 64.8776 74.1772 64.396 74.1772 63.802Z" fill="black"/>
<path d="M74.1709 73.5657C74.1709 74.1633 74.6552 74.6476 75.2528 74.6476C75.8503 74.6476 76.3347 74.1633 76.3347 73.5657C76.3347 72.9682 75.8503 72.4838 75.2528 72.4838C74.6552 72.4838 74.1709 72.9682 74.1709 73.5657ZM74.0507 73.5657C74.0507 72.9018 74.5889 72.3636 75.2528 72.3636C75.9167 72.3636 76.455 72.9018 76.455 73.5657C76.455 74.2297 75.9167 74.7678 75.2528 74.7678C74.5889 74.7678 74.0507 74.2297 74.0507 73.5657Z" fill="black"/>
<path d="M74.057 83.3295C74.057 83.9899 74.5924 84.5252 75.2528 84.5252C75.9132 84.5252 76.4486 83.9899 76.4486 83.3295C76.4486 82.669 75.9132 82.1337 75.2528 82.1337C74.5924 82.1337 74.057 82.669 74.057 83.3295ZM73.9241 83.3295C73.9241 82.5956 74.5189 82.0008 75.2528 82.0008C75.9866 82.0008 76.5814 82.5956 76.5814 83.3295C76.5814 84.0633 75.9866 84.6581 75.2528 84.6581C74.5189 84.6581 73.9241 84.0633 73.9241 83.3295Z" fill="black"/>
<path d="M73.9431 93.0932C73.9431 93.8164 74.5295 94.4029 75.2528 94.4029C75.9761 94.4029 76.5625 93.8164 76.5625 93.0932C76.5625 92.3699 75.9761 91.7834 75.2528 91.7834C74.5295 91.7834 73.9431 92.3699 73.9431 93.0932ZM73.7976 93.0932C73.7976 92.2895 74.4491 91.638 75.2528 91.638C76.0564 91.638 76.708 92.2895 76.708 93.0932C76.708 93.8968 76.0564 94.5483 75.2528 94.5483C74.4491 94.5483 73.7976 93.8968 73.7976 93.0932Z" fill="black"/>
<path d="M84.7951 5.21969C84.7951 5.34193 84.8942 5.44112 85.0165 5.44112C85.1389 5.44112 85.238 5.34193 85.238 5.21969C85.238 5.09744 85.1389 4.99825 85.0165 4.99825C84.8942 4.99825 84.7951 5.09744 84.7951 5.21969ZM84.7705 5.21969C84.7705 5.08377 84.8806 4.97364 85.0165 4.97364C85.1525 4.97364 85.2626 5.08377 85.2626 5.21969C85.2626 5.3555 85.1525 5.46573 85.0165 5.46573C84.8806 5.46573 84.7705 5.3555 84.7705 5.21969Z" fill="black"/>
<path d="M84.7065 14.9834C84.7065 15.1546 84.8453 15.2934 85.0165 15.2934C85.1878 15.2934 85.3265 15.1546 85.3265 14.9834C85.3265 14.8122 85.1878 14.6734 85.0165 14.6734C84.8453 14.6734 84.7065 14.8122 84.7065 14.9834ZM84.6721 14.9834C84.6721 14.7932 84.8263 14.6389 85.0165 14.6389C85.2067 14.6389 85.361 14.7932 85.361 14.9834C85.361 15.1736 85.2067 15.3279 85.0165 15.3279C84.8263 15.3279 84.6721 15.1736 84.6721 14.9834Z" fill="black"/>
<path d="M84.618 24.7471C84.618 24.9673 84.7964 25.1458 85.0165 25.1458C85.2367 25.1458 85.4151 24.9673 85.4151 24.7471C85.4151 24.5269 85.2367 24.3485 85.0165 24.3485C84.7964 24.3485 84.618 24.5269 84.618 24.7471ZM84.5737 24.7471C84.5737 24.5025 84.772 24.3042 85.0165 24.3042C85.2611 24.3042 85.4594 24.5025 85.4594 24.7471C85.4594 24.9917 85.2611 25.19 85.0165 25.19C84.772 25.19 84.5737 24.9917 84.5737 24.7471Z" fill="black"/>
<path d="M84.5294 34.5108C84.5294 34.7799 84.7475 34.9981 85.0165 34.9981C85.2856 34.9981 85.5036 34.7799 85.5036 34.5108C85.5036 34.2418 85.2856 34.0236 85.0165 34.0236C84.7475 34.0236 84.5294 34.2418 84.5294 34.5108ZM84.4752 34.5108C84.4752 34.2119 84.7176 33.9695 85.0165 33.9695C85.3155 33.9695 85.5578 34.2119 85.5578 34.5108C85.5578 34.8098 85.3155 35.0521 85.0165 35.0521C84.7176 35.0521 84.4752 34.8098 84.4752 34.5108Z" fill="black"/>
<path d="M84.4409 44.2746C84.4409 44.5926 84.6985 44.8502 85.0165 44.8502C85.3345 44.8502 85.5922 44.5926 85.5922 44.2746C85.5922 43.9566 85.3345 43.6989 85.0165 43.6989C84.6985 43.6989 84.4409 43.9566 84.4409 44.2746ZM84.3768 44.2746C84.3768 43.9213 84.6633 43.6348 85.0165 43.6348C85.3698 43.6348 85.6563 43.9213 85.6563 44.2746C85.6563 44.6278 85.3698 44.9143 85.0165 44.9143C84.6633 44.9143 84.3768 44.6278 84.3768 44.2746Z" fill="black"/>
<path d="M84.3522 54.0383C84.3522 54.4052 84.6496 54.7026 85.0165 54.7026C85.3835 54.7026 85.6809 54.4052 85.6809 54.0383C85.6809 53.6714 85.3835 53.374 85.0165 53.374C84.6496 53.374 84.3522 53.6714 84.3522 54.0383ZM84.2784 54.0383C84.2784 53.6306 84.6088 53.3001 85.0165 53.3001C85.4243 53.3001 85.7547 53.6306 85.7547 54.0383C85.7547 54.4459 85.4243 54.7764 85.0165 54.7764C84.6088 54.7764 84.2784 54.4459 84.2784 54.0383Z" fill="black"/>
<path d="M84.2636 63.802C84.2636 64.2178 84.6007 64.5549 85.0165 64.5549C85.4324 64.5549 85.7694 64.2178 85.7694 63.802C85.7694 63.3862 85.4324 63.0491 85.0165 63.0491C84.6007 63.0491 84.2636 63.3862 84.2636 63.802ZM84.18 63.802C84.18 63.34 84.5545 62.9655 85.0165 62.9655C85.4786 62.9655 85.8531 63.34 85.8531 63.802C85.8531 64.264 85.4786 64.6386 85.0165 64.6386C84.5545 64.6386 84.18 64.264 84.18 63.802Z" fill="black"/>
<path d="M84.1751 73.5657C84.1751 74.0305 84.5518 74.4072 85.0165 74.4072C85.4813 74.4072 85.858 74.0305 85.858 73.5657C85.858 73.101 85.4813 72.7243 85.0165 72.7243C84.5518 72.7243 84.1751 73.101 84.1751 73.5657ZM84.0816 73.5657C84.0816 73.0493 84.5001 72.6308 85.0165 72.6308C85.5329 72.6308 85.9515 73.0493 85.9515 73.5657C85.9515 74.0821 85.5329 74.5007 85.0165 74.5007C84.5001 74.5007 84.0816 74.0821 84.0816 73.5657Z" fill="black"/>
<path d="M84.0865 83.3294C84.0865 83.8431 84.5029 84.2594 85.0165 84.2594C85.5302 84.2594 85.9465 83.8431 85.9465 83.3294C85.9465 82.8158 85.5302 82.3995 85.0165 82.3995C84.5029 82.3995 84.0865 82.8158 84.0865 83.3294ZM83.9831 83.3294C83.9831 82.7587 84.4457 82.2961 85.0165 82.2961C85.5873 82.2961 86.0499 82.7587 86.0499 83.3294C86.0499 83.9002 85.5873 84.3628 85.0165 84.3628C84.4457 84.3628 83.9831 83.9002 83.9831 83.3294Z" fill="black"/>
<path d="M83.9979 93.0932C83.9979 93.6558 84.454 94.1118 85.0165 94.1118C85.5791 94.1118 86.0352 93.6558 86.0352 93.0932C86.0352 92.5306 85.5791 92.0745 85.0165 92.0745C84.454 92.0745 83.9979 92.5306 83.9979 93.0932ZM83.8847 93.0932C83.8847 92.4681 84.3915 91.9613 85.0165 91.9613C85.6416 91.9613 86.1484 92.4681 86.1484 93.0932C86.1484 93.7182 85.6416 94.225 85.0165 94.225C84.3915 94.225 83.8847 93.7182 83.8847 93.0932Z" fill="black"/>
<path d="M94.6221 5.21968C94.6221 5.30707 94.6929 5.37786 94.7803 5.37786C94.8677 5.37786 94.9385 5.30707 94.9385 5.21968C94.9385 5.1323 94.8677 5.06151 94.7803 5.06151C94.6929 5.06151 94.6221 5.1323 94.6221 5.21968ZM94.6045 5.21968C94.6045 5.12263 94.6832 5.04393 94.7803 5.04393C94.8773 5.04393 94.956 5.12263 94.956 5.21968C94.956 5.31673 94.8773 5.39543 94.7803 5.39543C94.6832 5.39543 94.6045 5.31673 94.6045 5.21968Z" fill="black"/>
<path d="M94.5589 14.9834C94.5589 15.1056 94.658 15.2048 94.7803 15.2048C94.9026 15.2048 95.0017 15.1056 95.0017 14.9834C95.0017 14.8612 94.9026 14.762 94.7803 14.762C94.658 14.762 94.5589 14.8612 94.5589 14.9834ZM94.5343 14.9834C94.5343 14.8475 94.6444 14.7374 94.7803 14.7374C94.9162 14.7374 95.0264 14.8475 95.0264 14.9834C95.0264 15.1193 94.9162 15.2294 94.7803 15.2294C94.6444 15.2294 94.5343 15.1193 94.5343 14.9834Z" fill="black"/>
<path d="M94.4956 24.7471C94.4956 24.9043 94.6231 25.0318 94.7803 25.0318C94.9375 25.0318 95.065 24.9043 95.065 24.7471C95.065 24.5899 94.9375 24.4624 94.7803 24.4624C94.6231 24.4624 94.4956 24.5899 94.4956 24.7471ZM94.464 24.7471C94.464 24.5724 94.6056 24.4308 94.7803 24.4308C94.955 24.4308 95.0967 24.5724 95.0967 24.7471C95.0967 24.9219 94.955 25.0635 94.7803 25.0635C94.6056 25.0635 94.464 24.9219 94.464 24.7471Z" fill="black"/>
<path d="M94.4323 34.5108C94.4323 34.703 94.5881 34.8588 94.7803 34.8588C94.9725 34.8588 95.1283 34.703 95.1283 34.5108C95.1283 34.3187 94.9725 34.1629 94.7803 34.1629C94.5881 34.1629 94.4323 34.3187 94.4323 34.5108ZM94.3937 34.5108C94.3937 34.2973 94.5668 34.1242 94.7803 34.1242C94.9939 34.1242 95.1669 34.2973 95.1669 34.5108C95.1669 34.7244 94.9939 34.8975 94.7803 34.8975C94.5668 34.8975 94.3937 34.7244 94.3937 34.5108Z" fill="black"/>
<path d="M94.369 44.2746C94.369 44.5017 94.5532 44.6858 94.7803 44.6858C95.0074 44.6858 95.1916 44.5017 95.1916 44.2746C95.1916 44.0475 95.0074 43.8633 94.7803 43.8633C94.5532 43.8633 94.369 44.0475 94.369 44.2746ZM94.3234 44.2746C94.3234 44.0222 94.5279 43.8176 94.7803 43.8176C95.0327 43.8176 95.2372 44.0222 95.2372 44.2746C95.2372 44.527 95.0327 44.7315 94.7803 44.7315C94.5279 44.7315 94.3234 44.527 94.3234 44.2746Z" fill="black"/>
<path d="M94.3058 54.0383C94.3058 54.3004 94.5182 54.5128 94.7803 54.5128C95.0424 54.5128 95.2548 54.3004 95.2548 54.0383C95.2548 53.7761 95.0424 53.5638 94.7803 53.5638C94.5182 53.5638 94.3058 53.7761 94.3058 54.0383ZM94.2531 54.0383C94.2531 53.7471 94.4891 53.511 94.7803 53.511C95.0714 53.511 95.3075 53.7471 95.3075 54.0383C95.3075 54.3294 95.0714 54.5655 94.7803 54.5655C94.4891 54.5655 94.2531 54.3294 94.2531 54.0383Z" fill="black"/>
<path d="M94.2425 63.802C94.2425 64.099 94.4833 64.3398 94.7803 64.3398C95.0773 64.3398 95.3181 64.099 95.3181 63.802C95.3181 63.505 95.0773 63.2642 94.7803 63.2642C94.4833 63.2642 94.2425 63.505 94.2425 63.802ZM94.1828 63.802C94.1828 63.472 94.4503 63.2045 94.7803 63.2045C95.1103 63.2045 95.3778 63.472 95.3778 63.802C95.3778 64.132 95.1103 64.3995 94.7803 64.3995C94.4503 64.3995 94.1828 64.132 94.1828 63.802Z" fill="black"/>
<path d="M94.1792 73.5657C94.1792 73.8976 94.4484 74.1668 94.7803 74.1668C95.1122 74.1668 95.3814 73.8976 95.3814 73.5657C95.3814 73.2339 95.1122 72.9647 94.7803 72.9647C94.4484 72.9647 94.1792 73.2339 94.1792 73.5657ZM94.1125 73.5657C94.1125 73.1969 94.4115 72.8979 94.7803 72.8979C95.1491 72.8979 95.4482 73.1969 95.4482 73.5657C95.4482 73.9345 95.1491 74.2336 94.7803 74.2336C94.4115 74.2336 94.1125 73.9345 94.1125 73.5657Z" fill="black"/>
<path d="M94.116 83.3294C94.116 83.6964 94.4134 83.9938 94.7803 83.9938C95.1472 83.9938 95.4446 83.6964 95.4446 83.3294C95.4446 82.9625 95.1472 82.6651 94.7803 82.6651C94.4134 82.6651 94.116 82.9625 94.116 83.3294ZM94.0422 83.3294C94.0422 82.9218 94.3726 82.5913 94.7803 82.5913C95.188 82.5913 95.5184 82.9218 95.5184 83.3294C95.5184 83.7371 95.188 84.0676 94.7803 84.0676C94.3726 84.0676 94.0422 83.7371 94.0422 83.3294Z" fill="black"/>
<path d="M94.0527 93.0932C94.0527 93.4949 94.3785 93.8208 94.7803 93.8208C95.1821 93.8208 95.5079 93.4949 95.5079 93.0932C95.5079 92.6914 95.1821 92.3656 94.7803 92.3656C94.3785 92.3656 94.0527 92.6914 94.0527 93.0932ZM93.9719 93.0932C93.9719 92.6467 94.3338 92.2847 94.7803 92.2847C95.2268 92.2847 95.5887 92.6467 95.5887 93.0932C95.5887 93.5397 95.2268 93.9016 94.7803 93.9016C94.3338 93.9016 93.9719 93.5397 93.9719 93.0932Z" fill="black"/>
<path d="M1.68718 0.337821C1.68718 0.151334 1.83825 0 2.0246 0C2.21095 0 2.36202 0.151334 2.36202 0.337821C2.36202 0.52421 2.21095 0.675251 2.0246 0.675251C1.83825 0.675251 1.68718 0.52421 1.68718 0.337821Z" fill="black"/>
<path d="M1.51845 10.1015C1.51845 9.822 1.74504 9.59539 2.0246 9.59539C2.30417 9.59539 2.53075 9.822 2.53075 10.1015C2.53075 10.3811 2.30417 10.6077 2.0246 10.6077C1.74504 10.6077 1.51845 10.3811 1.51845 10.1015Z" fill="black"/>
<path d="M1.34972 19.8653C1.34972 19.4926 1.6519 19.1904 2.0246 19.1904C2.3973 19.1904 2.69948 19.4926 2.69948 19.8653C2.69948 20.2379 2.3973 20.5401 2.0246 20.5401C1.6519 20.5401 1.34972 20.2379 1.34972 19.8653Z" fill="black"/>
<path d="M1.18099 29.629C1.18099 29.1632 1.55869 28.7854 2.0246 28.7854C2.49052 28.7854 2.86821 29.1632 2.86821 29.629C2.86821 30.0948 2.49052 30.4726 2.0246 30.4726C1.55869 30.4726 1.18099 30.0948 1.18099 29.629Z" fill="black"/>
<path d="M1.01226 39.3927C1.01226 38.8336 1.46551 38.3804 2.0246 38.3804C2.58369 38.3804 3.03695 38.8336 3.03695 39.3927C3.03695 39.9519 2.58369 40.405 2.0246 40.405C1.46551 40.405 1.01226 39.9519 1.01226 39.3927Z" fill="black"/>
<path d="M0.843569 49.1564C0.843569 48.5041 1.37234 47.9754 2.0246 47.9754C2.67687 47.9754 3.20564 48.5041 3.20564 49.1564C3.20564 49.8087 2.67687 50.3374 2.0246 50.3374C1.37234 50.3374 0.843569 49.8087 0.843569 49.1564Z" fill="black"/>
<path d="M0.674842 58.9201C0.674842 58.1747 1.27916 57.5704 2.0246 57.5704C2.77004 57.5704 3.37436 58.1747 3.37436 58.9201C3.37436 59.6656 2.77004 60.2699 2.0246 60.2699C1.27916 60.2699 0.674842 59.6656 0.674842 58.9201Z" fill="black"/>
<path d="M0.506143 68.6839C0.506143 67.8453 1.18595 67.1654 2.0246 67.1654C2.86326 67.1654 3.54306 67.8453 3.54306 68.6839C3.54306 69.5225 2.86326 70.2023 2.0246 70.2023C1.18595 70.2023 0.506143 69.5225 0.506143 68.6839Z" fill="black"/>
<path d="M0.337455 78.4476C0.337455 77.5157 1.09281 76.7604 2.0246 76.7604C2.95639 76.7604 3.71175 77.5157 3.71175 78.4476C3.71175 79.3794 2.95639 80.1348 2.0246 80.1348C1.09281 80.1348 0.337455 79.3794 0.337455 78.4476Z" fill="black"/>
<path d="M0.168727 88.2113C0.168727 87.1863 0.999604 86.3554 2.0246 86.3554C3.0496 86.3554 3.88048 87.1863 3.88048 88.2113C3.88048 89.2363 3.0496 90.0672 2.0246 90.0672C0.999604 90.0672 0.168727 89.2363 0.168727 88.2113Z" fill="black"/>
<path d="M0 97.975C0 96.8569 0.906458 95.9504 2.0246 95.9504C3.14275 95.9504 4.04921 96.8569 4.04921 97.975C4.04921 99.093 3.14275 100 2.0246 100C0.906458 100 0 99.093 0 97.975Z" fill="black"/>
<path d="M11.479 0.337826C11.479 0.166961 11.6175 0.0283144 11.7884 0.0283144C11.9592 0.0283144 12.0977 0.166961 12.0977 0.337826C12.0977 0.508691 11.9592 0.647138 11.7884 0.647138C11.6175 0.647138 11.479 0.508691 11.479 0.337826Z" fill="black"/>
<path d="M11.3244 10.1015C11.3244 9.84524 11.5321 9.63758 11.7884 9.63758C12.0447 9.63758 12.2523 9.84524 12.2523 10.1015C12.2523 10.3578 12.0447 10.5655 11.7884 10.5655C11.5321 10.5655 11.3244 10.3578 11.3244 10.1015Z" fill="black"/>
<path d="M11.1697 19.8653C11.1697 19.5236 11.4467 19.2466 11.7884 19.2466C12.1301 19.2466 12.407 19.5236 12.407 19.8653C12.407 20.2069 12.1301 20.4839 11.7884 20.4839C11.4467 20.4839 11.1697 20.2069 11.1697 19.8653Z" fill="black"/>
<path d="M11.0151 29.629C11.0151 29.2019 11.3613 28.8557 11.7884 28.8557C12.2154 28.8557 12.5616 29.2019 12.5616 29.629C12.5616 30.056 12.2154 30.4023 11.7884 30.4023C11.3613 30.4023 11.0151 30.056 11.0151 29.629Z" fill="black"/>
<path d="M10.8604 39.3927C10.8604 38.8802 11.2759 38.4648 11.7884 38.4648C12.3009 38.4648 12.7163 38.8802 12.7163 39.3927C12.7163 39.9052 12.3009 40.3206 11.7884 40.3206C11.2759 40.3206 10.8604 39.9052 10.8604 39.3927Z" fill="black"/>
<path d="M10.7058 49.1564C10.7058 48.5585 11.1905 48.0738 11.7884 48.0738C12.3863 48.0738 12.871 48.5585 12.871 49.1564C12.871 49.7544 12.3863 50.239 11.7884 50.239C11.1905 50.239 10.7058 49.7544 10.7058 49.1564Z" fill="black"/>
<path d="M10.5511 58.9201C10.5511 58.2368 11.1051 57.6829 11.7884 57.6829C12.4717 57.6829 13.0256 58.2368 13.0256 58.9201C13.0256 59.6035 12.4717 60.1574 11.7884 60.1574C11.1051 60.1574 10.5511 59.6035 10.5511 58.9201Z" fill="black"/>
<path d="M10.3964 68.6839C10.3964 67.9152 11.0196 67.2919 11.7884 67.2919C12.5572 67.2919 13.1803 67.9152 13.1803 68.6839C13.1803 69.4526 12.5572 70.0758 11.7884 70.0758C11.0196 70.0758 10.3964 69.4526 10.3964 68.6839Z" fill="black"/>
<path d="M10.2418 78.4476C10.2418 77.5935 10.9342 76.901 11.7884 76.901C12.6425 76.901 13.3349 77.5935 13.3349 78.4476C13.3349 79.3017 12.6425 79.9942 11.7884 79.9942C10.9342 79.9942 10.2418 79.3017 10.2418 78.4476Z" fill="black"/>
<path d="M10.0871 88.2113C10.0871 87.2717 10.8488 86.5101 11.7884 86.5101C12.7279 86.5101 13.4896 87.2717 13.4896 88.2113C13.4896 89.1509 12.7279 89.9125 11.7884 89.9125C10.8488 89.9125 10.0871 89.1509 10.0871 88.2113Z" fill="black"/>
<path d="M9.93249 97.975C9.93249 96.95 10.7634 96.1191 11.7884 96.1191C12.8134 96.1191 13.6443 96.95 13.6443 97.975C13.6443 99.0002 12.8134 99.8311 11.7884 99.8311C10.7634 99.8311 9.93249 99.0002 9.93249 97.975Z" fill="black"/>
<path d="M21.2709 0.337817C21.2709 0.182574 21.3968 0.0566236 21.5521 0.0566236C21.7075 0.0566236 21.8333 0.182574 21.8333 0.337817C21.8333 0.493158 21.7075 0.61901 21.5521 0.61901C21.3968 0.61901 21.2709 0.493158 21.2709 0.337817Z" fill="black"/>
<path d="M21.1303 10.1015C21.1303 9.86858 21.3192 9.67975 21.5521 9.67975C21.7851 9.67975 21.9739 9.86858 21.9739 10.1015C21.9739 10.3345 21.7851 10.5233 21.5521 10.5233C21.3192 10.5233 21.1303 10.3345 21.1303 10.1015Z" fill="black"/>
<path d="M20.9897 19.8653C20.9897 19.5547 21.2415 19.3029 21.5521 19.3029C21.8627 19.3029 22.1145 19.5547 22.1145 19.8653C22.1145 20.1758 21.8627 20.4277 21.5521 20.4277C21.2415 20.4277 20.9897 20.1758 20.9897 19.8653Z" fill="black"/>
<path d="M20.8491 29.629C20.8491 29.2407 21.1638 28.926 21.5521 28.926C21.9404 28.926 22.2551 29.2407 22.2551 29.629C22.2551 30.0173 21.9404 30.332 21.5521 30.332C21.1638 30.332 20.8491 30.0173 20.8491 29.629Z" fill="black"/>
<path d="M20.7085 39.3927C20.7085 38.9269 21.0862 38.5491 21.5521 38.5491C22.018 38.5491 22.3957 38.9269 22.3957 39.3927C22.3957 39.8585 22.018 40.2363 21.5521 40.2363C21.0862 40.2363 20.7085 39.8585 20.7085 39.3927Z" fill="black"/>
<path d="M20.5679 49.1564C20.5679 48.6129 21.0086 48.1722 21.5521 48.1722C22.0957 48.1722 22.5363 48.6129 22.5363 49.1564C22.5363 49.7 22.0957 50.1406 21.5521 50.1406C21.0086 50.1406 20.5679 49.7 20.5679 49.1564Z" fill="black"/>
<path d="M20.4273 58.9201C20.4273 58.299 20.9309 57.7954 21.5521 57.7954C22.1733 57.7954 22.6769 58.299 22.6769 58.9201C22.6769 59.5413 22.1733 60.0449 21.5521 60.0449C20.9309 60.0449 20.4273 59.5413 20.4273 58.9201Z" fill="black"/>
<path d="M20.2867 68.6839C20.2867 67.9851 20.8532 67.4185 21.5521 67.4185C22.251 67.4185 22.8175 67.9851 22.8175 68.6839C22.8175 69.3827 22.251 69.9492 21.5521 69.9492C20.8532 69.9492 20.2867 69.3827 20.2867 68.6839Z" fill="black"/>
<path d="M20.1461 78.4476C20.1461 77.6711 20.7756 77.0416 21.5521 77.0416C22.3286 77.0416 22.9581 77.6711 22.9581 78.4476C22.9581 79.2241 22.3286 79.8536 21.5521 79.8536C20.7756 79.8536 20.1461 79.2241 20.1461 78.4476Z" fill="black"/>
<path d="M20.0055 88.2113C20.0055 87.3572 20.698 86.6647 21.5521 86.6647C22.4063 86.6647 23.0987 87.3572 23.0987 88.2113C23.0987 89.0654 22.4063 89.7579 21.5521 89.7579C20.698 89.7579 20.0055 89.0654 20.0055 88.2113Z" fill="black"/>
<path d="M19.8649 97.975C19.8649 97.0432 20.6204 96.2878 21.5521 96.2878C22.4839 96.2878 23.2393 97.0432 23.2393 97.975C23.2393 98.9065 22.4839 99.6622 21.5521 99.6622C20.6204 99.6622 19.8649 98.9065 19.8649 97.975Z" fill="black"/>
<path d="M31.0628 0.337815C31.0628 0.198193 31.1761 0.0849305 31.3159 0.0849305C31.4557 0.0849305 31.569 0.198193 31.569 0.337815C31.569 0.477631 31.4557 0.59089 31.3159 0.59089C31.1761 0.59089 31.0628 0.477631 31.0628 0.337815Z" fill="black"/>
<path d="M30.9363 10.1015C30.9363 9.89182 31.1062 9.72193 31.3159 9.72193C31.5255 9.72193 31.6955 9.89182 31.6955 10.1015C31.6955 10.3112 31.5255 10.4812 31.3159 10.4812C31.1062 10.4812 30.9363 10.3112 30.9363 10.1015Z" fill="black"/>
<path d="M30.8097 19.8653C30.8097 19.5857 31.0363 19.3591 31.3159 19.3591C31.5954 19.3591 31.822 19.5857 31.822 19.8653C31.822 20.1448 31.5954 20.3714 31.3159 20.3714C31.0363 20.3714 30.8097 20.1448 30.8097 19.8653Z" fill="black"/>
<path d="M30.6832 29.629C30.6832 29.2795 30.9664 28.9963 31.3159 28.9963C31.6653 28.9963 31.9486 29.2795 31.9486 29.629C31.9486 29.9784 31.6653 30.2617 31.3159 30.2617C30.9664 30.2617 30.6832 29.9784 30.6832 29.629Z" fill="black"/>
<path d="M30.5566 39.3927C30.5566 38.9734 30.8966 38.6335 31.3159 38.6335C31.7351 38.6335 32.0751 38.9734 32.0751 39.3927C32.0751 39.8121 31.7351 40.1519 31.3159 40.1519C30.8966 40.1519 30.5566 39.8121 30.5566 39.3927Z" fill="black"/>
<path d="M30.4301 49.1564C30.4301 48.6672 30.8267 48.2707 31.3159 48.2707C31.805 48.2707 32.2016 48.6672 32.2016 49.1564C32.2016 49.6457 31.805 50.0422 31.3159 50.0422C30.8267 50.0422 30.4301 49.6457 30.4301 49.1564Z" fill="black"/>
<path d="M30.3036 58.9201C30.3036 58.361 30.7568 57.9078 31.3159 57.9078C31.875 57.9078 32.3282 58.361 32.3282 58.9201C32.3282 59.4793 31.875 59.9324 31.3159 59.9324C30.7568 59.9324 30.3036 59.4793 30.3036 58.9201Z" fill="black"/>
<path d="M30.177 68.6839C30.177 68.055 30.6869 67.545 31.3159 67.545C31.9448 67.545 32.4547 68.055 32.4547 68.6839C32.4547 69.3128 31.9448 69.8227 31.3159 69.8227C30.6869 69.8227 30.177 69.3128 30.177 68.6839Z" fill="black"/>
<path d="M30.0505 78.4476C30.0505 77.7488 30.617 77.1822 31.3159 77.1822C32.0147 77.1822 32.5813 77.7488 32.5813 78.4476C32.5813 79.1464 32.0147 79.713 31.3159 79.713C30.617 79.713 30.0505 79.1464 30.0505 78.4476Z" fill="black"/>
<path d="M29.924 88.2113C29.924 87.4426 30.5471 86.8194 31.3159 86.8194C32.0846 86.8194 32.7078 87.4426 32.7078 88.2113C32.7078 88.98 32.0846 89.6032 31.3159 89.6032C30.5471 89.6032 29.924 88.98 29.924 88.2113Z" fill="black"/>
<path d="M29.7974 97.975C29.7974 97.1364 30.4773 96.4566 31.3159 96.4566C32.1545 96.4566 32.8343 97.1364 32.8343 97.975C32.8343 98.8137 32.1545 99.4933 31.3159 99.4933C30.4773 99.4933 29.7974 98.8137 29.7974 97.975Z" fill="black"/>
<path d="M40.8547 0.33782C40.8547 0.213821 40.9554 0.113254 41.0796 0.113254C41.2038 0.113254 41.3046 0.213821 41.3046 0.33782C41.3046 0.462015 41.2038 0.562777 41.0796 0.562777C40.9554 0.562777 40.8547 0.462015 40.8547 0.33782Z" fill="black"/>
<path d="M40.7422 10.1015C40.7422 9.91515 40.8933 9.76411 41.0796 9.76411C41.2659 9.76411 41.4171 9.91515 41.4171 10.1015C41.4171 10.2879 41.2659 10.439 41.0796 10.439C40.8933 10.439 40.7422 10.2879 40.7422 10.1015Z" fill="black"/>
<path d="M40.6297 19.8653C40.6297 19.6168 40.8312 19.4153 41.0796 19.4153C41.3281 19.4153 41.5295 19.6168 41.5295 19.8653C41.5295 20.1137 41.3281 20.3152 41.0796 20.3152C40.8312 20.3152 40.6297 20.1137 40.6297 19.8653Z" fill="black"/>
<path d="M40.5172 29.629C40.5172 29.3184 40.769 29.0666 41.0796 29.0666C41.3903 29.0666 41.642 29.3184 41.642 29.629C41.642 29.9396 41.3903 30.1914 41.0796 30.1914C40.769 30.1914 40.5172 29.9396 40.5172 29.629Z" fill="black"/>
<path d="M40.4048 39.3927C40.4048 39.02 40.707 38.7178 41.0796 38.7178C41.4523 38.7178 41.7545 39.02 41.7545 39.3927C41.7545 39.7654 41.4523 40.0676 41.0796 40.0676C40.707 40.0676 40.4048 39.7654 40.4048 39.3927Z" fill="black"/>
<path d="M40.2923 49.1564C40.2923 48.7216 40.6449 48.3691 41.0796 48.3691C41.5144 48.3691 41.867 48.7216 41.867 49.1564C41.867 49.5912 41.5144 49.9438 41.0796 49.9438C40.6449 49.9438 40.2923 49.5912 40.2923 49.1564Z" fill="black"/>
<path d="M40.1798 58.9201C40.1798 58.4232 40.5827 58.0203 41.0796 58.0203C41.5766 58.0203 41.9795 58.4232 41.9795 58.9201C41.9795 59.4171 41.5766 59.82 41.0796 59.82C40.5827 59.82 40.1798 59.4171 40.1798 58.9201Z" fill="black"/>
<path d="M40.0673 68.6839C40.0673 68.1247 40.5205 67.6716 41.0796 67.6716C41.6388 67.6716 42.0919 68.1247 42.0919 68.6839C42.0919 69.243 41.6388 69.6962 41.0796 69.6962C40.5205 69.6962 40.0673 69.243 40.0673 68.6839Z" fill="black"/>
<path d="M39.9548 78.4476C39.9548 77.8264 40.4585 77.3228 41.0796 77.3228C41.7008 77.3228 42.2044 77.8264 42.2044 78.4476C42.2044 79.0687 41.7008 79.5724 41.0796 79.5724C40.4585 79.5724 39.9548 79.0687 39.9548 78.4476Z" fill="black"/>
<path d="M39.8424 88.2113C39.8424 87.5279 40.3963 86.974 41.0796 86.974C41.763 86.974 42.3169 87.5279 42.3169 88.2113C42.3169 88.8946 41.763 89.4486 41.0796 89.4486C40.3963 89.4486 39.8424 88.8946 39.8424 88.2113Z" fill="black"/>
<path d="M39.7299 97.975C39.7299 97.2295 40.3342 96.6253 41.0796 96.6253C41.8251 96.6253 42.4294 97.2295 42.4294 97.975C42.4294 98.72 41.8251 99.3244 41.0796 99.3244C40.3342 99.3244 39.7299 98.72 39.7299 97.975Z" fill="black"/>
<path d="M50.6466 0.337818C50.6466 0.229441 50.7347 0.140589 50.8434 0.140589C50.9521 0.140589 51.0402 0.229441 51.0402 0.337818C51.0402 0.446488 50.9521 0.534656 50.8434 0.534656C50.7347 0.534656 50.6466 0.446488 50.6466 0.337818Z" fill="black"/>
<path d="M50.5481 10.1015C50.5481 9.93848 50.6803 9.80628 50.8434 9.80628C51.0065 9.80628 51.1387 9.93848 51.1387 10.1015C51.1387 10.2646 51.0065 10.3968 50.8434 10.3968C50.6803 10.3968 50.5481 10.2646 50.5481 10.1015Z" fill="black"/>
<path d="M50.4497 19.8653C50.4497 19.6478 50.626 19.4716 50.8434 19.4716C51.0608 19.4716 51.2371 19.6478 51.2371 19.8653C51.2371 20.0827 51.0608 20.2589 50.8434 20.2589C50.626 20.2589 50.4497 20.0827 50.4497 19.8653Z" fill="black"/>
<path d="M50.3513 29.629C50.3513 29.3572 50.5717 29.1369 50.8434 29.1369C51.1151 29.1369 51.3355 29.3572 51.3355 29.629C51.3355 29.9008 51.1151 30.1211 50.8434 30.1211C50.5717 30.1211 50.3513 29.9008 50.3513 29.629Z" fill="black"/>
<path d="M50.2529 39.3927C50.2529 39.0666 50.5173 38.8022 50.8434 38.8022C51.1695 38.8022 51.4339 39.0666 51.4339 39.3927C51.4339 39.7188 51.1695 39.9832 50.8434 39.9832C50.5173 39.9832 50.2529 39.7188 50.2529 39.3927Z" fill="black"/>
<path d="M50.1545 49.1564C50.1545 48.776 50.463 48.4675 50.8434 48.4675C51.2238 48.4675 51.5323 48.776 51.5323 49.1564C51.5323 49.5368 51.2238 49.8453 50.8434 49.8453C50.463 49.8453 50.1545 49.5368 50.1545 49.1564Z" fill="black"/>
<path d="M50.056 58.9201C50.056 58.4853 50.4086 58.1328 50.8434 58.1328C51.2782 58.1328 51.6307 58.4853 51.6307 58.9201C51.6307 59.355 51.2782 59.7075 50.8434 59.7075C50.4086 59.7075 50.056 59.355 50.056 58.9201Z" fill="black"/>
<path d="M49.9576 68.6839C49.9576 68.1946 50.3541 67.7981 50.8434 67.7981C51.3327 67.7981 51.7292 68.1946 51.7292 68.6839C51.7292 69.1731 51.3327 69.5696 50.8434 69.5696C50.3541 69.5696 49.9576 69.1731 49.9576 68.6839Z" fill="black"/>
<path d="M49.8592 78.4476C49.8592 77.904 50.2999 77.4634 50.8434 77.4634C51.3869 77.4634 51.8276 77.904 51.8276 78.4476C51.8276 78.9911 51.3869 79.4318 50.8434 79.4318C50.2999 79.4318 49.8592 78.9911 49.8592 78.4476Z" fill="black"/>
<path d="M49.7608 88.2113C49.7608 87.6134 50.2455 87.1287 50.8434 87.1287C51.4413 87.1287 51.926 87.6134 51.926 88.2113C51.926 88.8092 51.4413 89.2939 50.8434 89.2939C50.2455 89.2939 49.7608 88.8092 49.7608 88.2113Z" fill="black"/>
<path d="M49.6624 97.975C49.6624 97.3227 50.1911 96.794 50.8434 96.794C51.4957 96.794 52.0244 97.3227 52.0244 97.975C52.0244 98.6273 51.4957 99.1564 50.8434 99.1564C50.1911 99.1564 49.6624 98.6273 49.6624 97.975Z" fill="black"/>
<path d="M60.4383 0.337823C60.4383 0.245068 60.514 0.168913 60.6072 0.168913C60.7003 0.168913 60.776 0.245068 60.776 0.337823C60.776 0.430969 60.7003 0.506543 60.6072 0.506543C60.514 0.506543 60.4383 0.430969 60.4383 0.337823Z" fill="black"/>
<path d="M60.3541 10.1015C60.3541 9.96173 60.4673 9.84847 60.6072 9.84847C60.747 9.84847 60.8602 9.96173 60.8602 10.1015C60.8602 10.2414 60.747 10.3546 60.6072 10.3546C60.4673 10.3546 60.3541 10.2414 60.3541 10.1015Z" fill="black"/>
<path d="M60.2697 19.8653C60.2697 19.6789 60.4209 19.5278 60.6072 19.5278C60.7934 19.5278 60.9446 19.6789 60.9446 19.8653C60.9446 20.0517 60.7934 20.2027 60.6072 20.2027C60.4209 20.2027 60.2697 20.0517 60.2697 19.8653Z" fill="black"/>
<path d="M60.1854 29.629C60.1854 29.396 60.3742 29.2072 60.6072 29.2072C60.8401 29.2072 61.0289 29.396 61.0289 29.629C61.0289 29.8619 60.8401 30.0508 60.6072 30.0508C60.3742 30.0508 60.1854 29.8619 60.1854 29.629Z" fill="black"/>
<path d="M60.101 39.3927C60.101 39.1132 60.3276 38.8865 60.6072 38.8865C60.8867 38.8865 61.1133 39.1132 61.1133 39.3927C61.1133 39.6722 60.8867 39.8988 60.6072 39.8988C60.3276 39.8988 60.101 39.6722 60.101 39.3927Z" fill="black"/>
<path d="M60.0166 49.1564C60.0166 48.8303 60.281 48.5659 60.6072 48.5659C60.9333 48.5659 61.1977 48.8303 61.1977 49.1564C61.1977 49.4825 60.9333 49.7469 60.6072 49.7469C60.281 49.7469 60.0166 49.4825 60.0166 49.1564Z" fill="black"/>
<path d="M59.9323 58.9201C59.9323 58.5475 60.2345 58.2453 60.6072 58.2453C60.9798 58.2453 61.282 58.5475 61.282 58.9201C61.282 59.2928 60.9798 59.595 60.6072 59.595C60.2345 59.595 59.9323 59.2928 59.9323 58.9201Z" fill="black"/>
<path d="M59.8479 68.6839C59.8479 68.2645 60.1878 67.9246 60.6072 67.9246C61.0265 67.9246 61.3664 68.2645 61.3664 68.6839C61.3664 69.1032 61.0265 69.4431 60.6072 69.4431C60.1878 69.4431 59.8479 69.1032 59.8479 68.6839Z" fill="black"/>
<path d="M59.7636 78.4476C59.7636 77.9818 60.1413 77.604 60.6072 77.604C61.073 77.604 61.4507 77.9818 61.4507 78.4476C61.4507 78.9134 61.073 79.2912 60.6072 79.2912C60.1413 79.2912 59.7636 78.9134 59.7636 78.4476Z" fill="black"/>
<path d="M59.6792 88.2113C59.6792 87.6988 60.0947 87.2834 60.6072 87.2834C61.1197 87.2834 61.5351 87.6988 61.5351 88.2113C61.5351 88.7238 61.1197 89.1392 60.6072 89.1392C60.0947 89.1392 59.6792 88.7238 59.6792 88.2113Z" fill="black"/>
<path d="M59.5948 97.975C59.5948 97.4159 60.048 96.9627 60.6071 96.9627C61.1663 96.9627 61.6195 97.4159 61.6195 97.975C61.6195 98.5345 61.1663 98.9875 60.6071 98.9875C60.048 98.9875 59.5948 98.5345 59.5948 97.975Z" fill="black"/>
<path d="M70.2303 0.337821C70.2303 0.259711 70.2933 0.19722 70.3709 0.19722C70.4485 0.19722 70.5115 0.259711 70.5115 0.337821C70.5115 0.415443 70.4485 0.478423 70.3709 0.478423C70.2933 0.478423 70.2303 0.415443 70.2303 0.337821Z" fill="black"/>
<path d="M70.16 10.1015C70.16 9.98506 70.2544 9.89065 70.3709 9.89065C70.4874 9.89065 70.5818 9.98506 70.5818 10.1015C70.5818 10.218 70.4874 10.3124 70.3709 10.3124C70.2544 10.3124 70.16 10.218 70.16 10.1015Z" fill="black"/>
<path d="M70.0897 19.8653C70.0897 19.7099 70.2156 19.5841 70.3709 19.5841C70.5262 19.5841 70.6521 19.7099 70.6521 19.8653C70.6521 20.0206 70.5262 20.1465 70.3709 20.1465C70.2156 20.1465 70.0897 20.0206 70.0897 19.8653Z" fill="black"/>
<path d="M70.0194 29.629C70.0194 29.4349 70.1768 29.2775 70.3709 29.2775C70.565 29.2775 70.7224 29.4349 70.7224 29.629C70.7224 29.8231 70.565 29.9805 70.3709 29.9805C70.1768 29.9805 70.0194 29.8231 70.0194 29.629Z" fill="black"/>
<path d="M69.9491 39.3927C69.9491 39.1597 70.1379 38.9709 70.3709 38.9709C70.6039 38.9709 70.7927 39.1597 70.7927 39.3927C70.7927 39.6257 70.6039 39.8145 70.3709 39.8145C70.1379 39.8145 69.9491 39.6257 69.9491 39.3927Z" fill="black"/>
<path d="M69.8788 49.1564C69.8788 48.8847 70.0992 48.6643 70.3709 48.6643C70.6426 48.6643 70.863 48.8847 70.863 49.1564C70.863 49.4281 70.6426 49.6485 70.3709 49.6485C70.0992 49.6485 69.8788 49.4281 69.8788 49.1564Z" fill="black"/>
<path d="M69.8085 58.9201C69.8085 58.6095 70.0602 58.3577 70.3709 58.3577C70.6816 58.3577 70.9333 58.6095 70.9333 58.9201C70.9333 59.2308 70.6816 59.4825 70.3709 59.4825C70.0602 59.4825 69.8085 59.2308 69.8085 58.9201Z" fill="black"/>
<path d="M69.7382 68.6839C69.7382 68.3344 70.0215 68.0512 70.3709 68.0512C70.7204 68.0512 71.0036 68.3344 71.0036 68.6839C71.0036 69.0333 70.7204 69.3166 70.3709 69.3166C70.0215 69.3166 69.7382 69.0333 69.7382 68.6839Z" fill="black"/>
<path d="M69.6679 78.4476C69.6679 78.0593 69.9826 77.7446 70.3709 77.7446C70.7592 77.7446 71.0739 78.0593 71.0739 78.4476C71.0739 78.8359 70.7592 79.1506 70.3709 79.1506C69.9826 79.1506 69.6679 78.8359 69.6679 78.4476Z" fill="black"/>
<path d="M69.5976 88.2113C69.5976 87.7842 69.9438 87.438 70.3709 87.438C70.798 87.438 71.1442 87.7842 71.1442 88.2113C71.1442 88.6384 70.798 88.9846 70.3709 88.9846C69.9438 88.9846 69.5976 88.6384 69.5976 88.2113Z" fill="black"/>
<path d="M69.5273 97.975C69.5273 97.5092 69.9051 97.1314 70.3709 97.1314C70.8367 97.1314 71.2145 97.5092 71.2145 97.975C71.2145 98.4407 70.8367 98.8186 70.3709 98.8186C69.9051 98.8186 69.5273 98.4407 69.5273 97.975Z" fill="black"/>
<path d="M80.0222 0.337829C80.0222 0.275341 80.0725 0.225546 80.1347 0.225546C80.1969 0.225546 80.2471 0.275341 80.2471 0.337829C80.2471 0.399926 80.1969 0.450302 80.1347 0.450302C80.0725 0.450302 80.0222 0.399926 80.0222 0.337829Z" fill="black"/>
<path d="M79.9658 10.1015C79.9658 10.0084 80.0415 9.93282 80.1347 9.93282C80.2278 9.93282 80.3035 10.0084 80.3035 10.1015C80.3035 10.1947 80.2278 10.2703 80.1347 10.2703C80.0415 10.2703 79.9658 10.1947 79.9658 10.1015Z" fill="black"/>
<path d="M79.9097 19.8653C79.9097 19.7411 80.0105 19.6403 80.1347 19.6403C80.2589 19.6403 80.3596 19.7411 80.3596 19.8653C80.3596 19.9895 80.2589 20.0902 80.1347 20.0902C80.0105 20.0902 79.9097 19.9895 79.9097 19.8653Z" fill="black"/>
<path d="M79.8535 29.629C79.8535 29.4736 79.9793 29.3478 80.1347 29.3478C80.29 29.3478 80.4159 29.4736 80.4159 29.629C80.4159 29.7843 80.29 29.9102 80.1347 29.9102C79.9793 29.9102 79.8535 29.7843 79.8535 29.629Z" fill="black"/>
<path d="M79.7972 39.3927C79.7972 39.2064 79.9484 39.0553 80.1347 39.0553C80.321 39.0553 80.4721 39.2064 80.4721 39.3927C80.4721 39.579 80.321 39.7301 80.1347 39.7301C79.9484 39.7301 79.7972 39.579 79.7972 39.3927Z" fill="black"/>
<path d="M79.741 49.1564C79.741 48.939 79.9172 48.7627 80.1347 48.7627C80.3521 48.7627 80.5283 48.939 80.5283 49.1564C80.5283 49.3739 80.3521 49.5501 80.1347 49.5501C79.9172 49.5501 79.741 49.3739 79.741 49.1564Z" fill="black"/>
<path d="M79.6847 58.9201C79.6847 58.6716 79.8862 58.4702 80.1347 58.4702C80.3831 58.4702 80.5846 58.6716 80.5846 58.9201C80.5846 59.1686 80.3831 59.3701 80.1347 59.3701C79.8862 59.3701 79.6847 59.1686 79.6847 58.9201Z" fill="black"/>
<path d="M79.6285 68.6839C79.6285 68.4043 79.8551 68.1777 80.1347 68.1777C80.4142 68.1777 80.6408 68.4043 80.6408 68.6839C80.6408 68.9634 80.4142 69.19 80.1347 69.19C79.8551 69.19 79.6285 68.9634 79.6285 68.6839Z" fill="black"/>
<path d="M79.5723 78.4476C79.5723 78.1369 79.824 77.8852 80.1347 77.8852C80.4453 77.8852 80.6971 78.1369 80.6971 78.4476C80.6971 78.7583 80.4453 79.01 80.1347 79.01C79.824 79.01 79.5723 78.7583 79.5723 78.4476Z" fill="black"/>
<path d="M79.516 88.2113C79.516 87.8697 79.793 87.5927 80.1347 87.5927C80.4763 87.5927 80.7533 87.8697 80.7533 88.2113C80.7533 88.5529 80.4763 88.8299 80.1347 88.8299C79.793 88.8299 79.516 88.5529 79.516 88.2113Z" fill="black"/>
<path d="M79.4598 97.975C79.4598 97.6023 79.762 97.3001 80.1347 97.3001C80.5073 97.3001 80.8095 97.6023 80.8095 97.975C80.8095 98.348 80.5073 98.6497 80.1347 98.6497C79.762 98.6497 79.4598 98.348 79.4598 97.975Z" fill="black"/>
<path d="M89.8141 0.337819C89.8141 0.290953 89.8518 0.253855 89.8984 0.253855C89.9451 0.253855 89.9828 0.290953 89.9828 0.337819C89.9828 0.384392 89.9451 0.422174 89.8984 0.422174C89.8518 0.422174 89.8141 0.384392 89.8141 0.337819Z" fill="black"/>
<path d="M89.7719 10.1016C89.7719 10.0316 89.8285 9.97501 89.8984 9.97501C89.9683 9.97501 90.025 10.0316 90.025 10.1016C90.025 10.1715 89.9683 10.2281 89.8984 10.2281C89.8285 10.2281 89.7719 10.1715 89.7719 10.1016Z" fill="black"/>
<path d="M89.7296 19.8653C89.7296 19.7721 89.8053 19.6965 89.8984 19.6965C89.9916 19.6965 90.0672 19.7721 90.0672 19.8653C90.0672 19.9584 89.9916 20.034 89.8984 20.034C89.8053 20.034 89.7296 19.9584 89.7296 19.8653Z" fill="black"/>
<path d="M89.6875 29.629C89.6875 29.5125 89.7819 29.4181 89.8984 29.4181C90.0149 29.4181 90.1093 29.5125 90.1093 29.629C90.1093 29.7455 90.0149 29.8399 89.8984 29.8399C89.7819 29.8399 89.6875 29.7455 89.6875 29.629Z" fill="black"/>
<path d="M89.6453 39.3927C89.6453 39.2529 89.7586 39.1396 89.8984 39.1396C90.0382 39.1396 90.1515 39.2529 90.1515 39.3927C90.1515 39.5325 90.0382 39.6458 89.8984 39.6458C89.7586 39.6458 89.6453 39.5325 89.6453 39.3927Z" fill="black"/>
<path d="M89.6032 49.1564C89.6032 48.9934 89.7354 48.8612 89.8984 48.8612C90.0615 48.8612 90.1937 48.9934 90.1937 49.1564C90.1937 49.3195 90.0615 49.4517 89.8984 49.4517C89.7354 49.4517 89.6032 49.3195 89.6032 49.1564Z" fill="black"/>
<path d="M89.561 58.9201C89.561 58.7338 89.7121 58.5827 89.8984 58.5827C90.0847 58.5827 90.2359 58.7338 90.2359 58.9201C90.2359 59.1064 90.0847 59.2576 89.8984 59.2576C89.7121 59.2576 89.561 59.1064 89.561 58.9201Z" fill="black"/>
<path d="M89.5188 68.6839C89.5188 68.4742 89.6888 68.3043 89.8984 68.3043C90.108 68.3043 90.278 68.4742 90.278 68.6839C90.278 68.8935 90.108 69.0635 89.8984 69.0635C89.6888 69.0635 89.5188 68.8935 89.5188 68.6839Z" fill="black"/>
<path d="M89.4766 78.4476C89.4766 78.2146 89.6655 78.0258 89.8984 78.0258C90.1314 78.0258 90.3202 78.2146 90.3202 78.4476C90.3202 78.6805 90.1314 78.8694 89.8984 78.8694C89.6655 78.8694 89.4766 78.6805 89.4766 78.4476Z" fill="black"/>
<path d="M89.4345 88.2113C89.4345 87.9551 89.6422 87.7473 89.8984 87.7473C90.1546 87.7473 90.3624 87.9551 90.3624 88.2113C90.3624 88.4675 90.1546 88.6753 89.8984 88.6753C89.6422 88.6753 89.4345 88.4675 89.4345 88.2113Z" fill="black"/>
<path d="M89.3923 97.975C89.3923 97.6955 89.6189 97.4689 89.8984 97.4689C90.178 97.4689 90.4046 97.6955 90.4046 97.975C90.4046 98.2542 90.178 98.4808 89.8984 98.4808C89.6189 98.4808 89.3923 98.2542 89.3923 97.975Z" fill="black"/>
<path d="M99.6059 0.337817C99.6059 0.306573 99.6311 0.281189 99.6622 0.281189C99.6934 0.281189 99.7188 0.306573 99.7188 0.337817C99.7188 0.368866 99.6934 0.394054 99.6622 0.394054C99.6311 0.394054 99.6059 0.368866 99.6059 0.337817Z" fill="black"/>
<path d="M99.5778 10.1015C99.5778 10.055 99.6155 10.0172 99.6622 10.0172C99.709 10.0172 99.7461 10.055 99.7461 10.1015C99.7461 10.1481 99.709 10.1859 99.6622 10.1859C99.6155 10.1859 99.5778 10.1481 99.5778 10.1015Z" fill="black"/>
<path d="M99.5497 19.8653C99.5497 19.8032 99.6 19.7528 99.6622 19.7528C99.7247 19.7528 99.7745 19.8032 99.7745 19.8653C99.7745 19.9274 99.7247 19.9777 99.6622 19.9777C99.6 19.9777 99.5497 19.9274 99.5497 19.8653Z" fill="black"/>
<path d="M99.5216 29.629C99.5216 29.5514 99.5845 29.4884 99.6622 29.4884C99.7393 29.4884 99.8028 29.5514 99.8028 29.629C99.8028 29.7066 99.7393 29.7696 99.6622 29.7696C99.5845 29.7696 99.5216 29.7066 99.5216 29.629Z" fill="black"/>
<path d="M99.4934 39.3927C99.4934 39.2996 99.569 39.224 99.6622 39.224C99.7549 39.224 99.8311 39.2996 99.8311 39.3927C99.8311 39.4858 99.7549 39.5614 99.6622 39.5614C99.569 39.5614 99.4934 39.4858 99.4934 39.3927Z" fill="black"/>
<path d="M99.4653 49.1564C99.4653 49.0478 99.5535 48.9596 99.6622 48.9596C99.7706 48.9596 99.8594 49.0478 99.8594 49.1564C99.8594 49.2651 99.7706 49.3533 99.6622 49.3533C99.5535 49.3533 99.4653 49.2651 99.4653 49.1564Z" fill="black"/>
<path d="M99.4372 58.9201C99.4372 58.796 99.538 58.6952 99.6622 58.6952C99.7862 58.6952 99.8867 58.796 99.8867 58.9201C99.8867 59.0443 99.7862 59.1451 99.6622 59.1451C99.538 59.1451 99.4372 59.0443 99.4372 58.9201Z" fill="black"/>
<path d="M99.4091 68.6839C99.4091 68.544 99.5224 68.4308 99.6622 68.4308C99.8018 68.4308 99.9151 68.544 99.9151 68.6839C99.9151 68.8237 99.8018 68.9369 99.6622 68.9369C99.5224 68.9369 99.4091 68.8237 99.4091 68.6839Z" fill="black"/>
<path d="M99.381 78.4476C99.381 78.2923 99.5068 78.1664 99.6622 78.1664C99.8174 78.1664 99.9434 78.2923 99.9434 78.4476C99.9434 78.6029 99.8174 78.7288 99.6622 78.7288C99.5068 78.7288 99.381 78.6029 99.381 78.4476Z" fill="black"/>
<path d="M99.3529 88.2113C99.3529 88.0404 99.4913 87.902 99.6622 87.902C99.833 87.902 99.9717 88.0404 99.9717 88.2113C99.9717 88.3822 99.833 88.5206 99.6622 88.5206C99.4913 88.5206 99.3529 88.3822 99.3529 88.2113Z" fill="black"/>
<path d="M99.3248 97.975C99.3248 97.7887 99.4759 97.6376 99.6622 97.6376C99.8487 97.6376 100 97.7887 100 97.975C100 98.1615 99.8487 98.3129 99.6622 98.3129C99.4759 98.3129 99.3248 98.1615 99.3248 97.975Z" fill="black"/>
</svg>
