<svg width="53" height="100" viewBox="0 0 53 100" fill="none" xmlns="http://www.w3.org/2000/svg">
<g id="Vector">
<path d="M6.17889 5.21971C6.17889 5.62158 6.50464 5.9473 6.90648 5.9473C7.30832 5.9473 7.63408 5.62158 7.63408 5.21971C7.63408 4.81783 7.30832 4.49211 6.90648 4.49211C6.50464 4.49211 6.17889 4.81783 6.17889 5.21971ZM6.09807 5.21971C6.09807 4.77321 6.46001 4.41127 6.90648 4.41127C7.35295 4.41127 7.71489 4.77321 7.71489 5.21971C7.71489 5.6662 7.35295 6.02814 6.90648 6.02814C6.46001 6.02814 6.09807 5.6662 6.09807 5.21971Z" fill="black"/>
<path d="M5.88789 14.9835C5.88789 15.546 6.34392 16.0021 6.90648 16.0021C7.46904 16.0021 7.92508 15.546 7.92508 14.9835C7.92508 14.4209 7.46904 13.9648 6.90648 13.9648C6.34392 13.9648 5.88789 14.4209 5.88789 14.9835ZM5.77469 14.9835C5.77469 14.3584 6.28141 13.8516 6.90648 13.8516C7.53156 13.8516 8.03828 14.3584 8.03828 14.9835C8.03828 15.6085 7.53156 16.1153 6.90648 16.1153C6.28141 16.1153 5.77469 15.6085 5.77469 14.9835Z" fill="black"/>
<path d="M5.5968 24.7472C5.5968 25.4705 6.18316 26.0569 6.90648 26.0569C7.6298 26.0569 8.21616 25.4705 8.21616 24.7472C8.21616 24.0239 7.6298 23.4375 6.90648 23.4375C6.18316 23.4375 5.5968 24.0239 5.5968 24.7472ZM5.4513 24.7472C5.4513 23.9436 6.10281 23.292 6.90648 23.292C7.71017 23.292 8.36166 23.9436 8.36166 24.7472C8.36166 25.5509 7.71017 26.2024 6.90648 26.2024C6.10281 26.2024 5.4513 25.5509 5.4513 24.7472Z" fill="black"/>
<path d="M5.30576 34.511C5.30576 35.395 6.02244 36.1117 6.90648 36.1117C7.79052 36.1117 8.5072 35.395 8.5072 34.511C8.5072 33.627 7.79052 32.9102 6.90648 32.9102C6.02244 32.9102 5.30576 33.627 5.30576 34.511ZM5.12795 34.511C5.12795 33.5286 5.9242 32.7324 6.90648 32.7324C7.88877 32.7324 8.68501 33.5286 8.68501 34.511C8.68501 35.4933 7.88877 36.2895 6.90648 36.2895C5.9242 36.2895 5.12795 35.4933 5.12795 34.511Z" fill="black"/>
<path d="M5.01475 44.2747C5.01475 45.3195 5.86168 46.1665 6.90648 46.1665C7.95128 46.1665 8.79821 45.3195 8.79821 44.2747C8.79821 43.23 7.95128 42.383 6.90648 42.383C5.86168 42.383 5.01475 43.23 5.01475 44.2747ZM4.80457 44.2747C4.80457 43.1138 5.74562 42.1728 6.90648 42.1728C8.06734 42.1728 9.00839 43.1138 9.00839 44.2747C9.00839 45.4356 8.06734 46.3767 6.90648 46.3767C5.74562 46.3767 4.80457 45.4356 4.80457 44.2747Z" fill="black"/>
<path d="M4.72371 54.0385C4.72371 55.244 5.70096 56.2213 6.90648 56.2213C8.112 56.2213 9.08926 55.244 9.08926 54.0385C9.08926 52.833 8.112 51.8557 6.90648 51.8557C5.70096 51.8557 4.72371 52.833 4.72371 54.0385ZM4.48118 54.0385C4.48118 52.699 5.56702 51.6132 6.90648 51.6132C8.24595 51.6132 9.33178 52.699 9.33178 54.0385C9.33178 55.378 8.24595 56.4638 6.90648 56.4638C5.56702 56.4638 4.48118 55.378 4.48118 54.0385Z" fill="black"/>
<path d="M4.43267 63.8022C4.43267 65.1685 5.5402 66.2761 6.90648 66.2761C8.27276 66.2761 9.3803 65.1685 9.3803 63.8022C9.3803 62.436 8.27276 61.3284 6.90648 61.3284C5.5402 61.3284 4.43267 62.436 4.43267 63.8022ZM4.15779 63.8022C4.15779 62.2842 5.38841 61.0536 6.90648 61.0536C8.42455 61.0536 9.65518 62.2842 9.65518 63.8022C9.65518 65.3203 8.42455 66.5509 6.90648 66.5509C5.38841 66.5509 4.15779 65.3203 4.15779 63.8022Z" fill="black"/>
<path d="M4.14162 73.566C4.14162 75.0931 5.37952 76.3308 6.90648 76.3308C8.43345 76.3308 9.67134 75.0931 9.67134 73.566C9.67134 72.0389 8.43345 70.8012 6.90648 70.8012C5.37952 70.8012 4.14162 72.0389 4.14162 73.566ZM3.8344 73.566C3.8344 71.8694 5.20983 70.4939 6.90648 70.4939C8.60313 70.4939 9.97856 71.8694 9.97856 73.566C9.97856 75.2626 8.60313 76.6381 6.90648 76.6381C5.20983 76.6381 3.8344 75.2626 3.8344 73.566Z" fill="black"/>
<path d="M3.85058 83.3298C3.85058 85.0174 5.21877 86.3857 6.90648 86.3857C8.5942 86.3857 9.96238 85.0174 9.96238 83.3298C9.96238 81.6421 8.5942 80.2738 6.90648 80.2738C5.21877 80.2738 3.85058 81.6421 3.85058 83.3298ZM3.51106 83.3298C3.51106 81.4545 5.03124 79.9343 6.90648 79.9343C8.78174 79.9343 10.3019 81.4545 10.3019 83.3298C10.3019 85.205 8.78174 86.7252 6.90648 86.7252C5.03124 86.7252 3.51106 85.205 3.51106 83.3298Z" fill="black"/>
<path d="M3.55953 93.0935C3.55953 94.942 5.05805 96.4404 6.90648 96.4404C8.75492 96.4404 10.2534 94.942 10.2534 93.0935C10.2534 91.245 8.75492 89.7466 6.90648 89.7466C5.05805 89.7466 3.55953 91.245 3.55953 93.0935ZM3.18767 93.0935C3.18767 91.0397 4.85263 89.3747 6.90648 89.3747C8.96034 89.3747 10.6253 91.0397 10.6253 93.0935C10.6253 95.1473 8.96034 96.8123 6.90648 96.8123C4.85263 96.8123 3.18767 95.1473 3.18767 93.0935Z" fill="black"/>
<path d="M16.0059 5.2197C16.0059 5.58662 16.3033 5.88403 16.6702 5.88403C17.0372 5.88403 17.3346 5.58662 17.3346 5.2197C17.3346 4.85278 17.0372 4.55537 16.6702 4.55537C16.3033 4.55537 16.0059 4.85278 16.0059 5.2197ZM15.9321 5.2197C15.9321 4.81206 16.2626 4.48156 16.6702 4.48156C17.0779 4.48156 17.4084 4.81206 17.4084 5.2197C17.4084 5.62734 17.0779 5.95784 16.6702 5.95784C16.2626 5.95784 15.9321 5.62734 15.9321 5.2197Z" fill="black"/>
<path d="M15.7402 14.9835C15.7402 15.4971 16.1566 15.9135 16.6702 15.9135C17.1839 15.9135 17.6002 15.4971 17.6002 14.9835C17.6002 14.4698 17.1839 14.0535 16.6702 14.0535C16.1566 14.0535 15.7402 14.4698 15.7402 14.9835ZM15.6368 14.9835C15.6368 14.4128 16.0995 13.9501 16.6702 13.9501C17.2409 13.9501 17.7036 14.4128 17.7036 14.9835C17.7036 15.5541 17.2409 16.0168 16.6702 16.0168C16.0995 16.0168 15.6368 15.5541 15.6368 14.9835Z" fill="black"/>
<path d="M15.4745 24.7472C15.4745 25.4076 16.0098 25.943 16.6702 25.943C17.3307 25.943 17.866 25.4076 17.866 24.7472C17.866 24.0868 17.3307 23.5514 16.6702 23.5514C16.0098 23.5514 15.4745 24.0868 15.4745 24.7472ZM15.3416 24.7472C15.3416 24.0134 15.9364 23.4186 16.6702 23.4186C17.4041 23.4186 17.9989 24.0134 17.9989 24.7472C17.9989 25.4811 17.4041 26.0759 16.6702 26.0759C15.9364 26.0759 15.3416 25.4811 15.3416 24.7472Z" fill="black"/>
<path d="M15.2087 34.511C15.2087 35.3181 15.8631 35.9725 16.6702 35.9725C17.4774 35.9725 18.1318 35.3181 18.1318 34.511C18.1318 33.7038 17.4774 33.0494 16.6702 33.0494C15.8631 33.0494 15.2087 33.7038 15.2087 34.511ZM15.0463 34.511C15.0463 33.6141 15.7733 32.8871 16.6702 32.8871C17.5671 32.8871 18.2941 33.6141 18.2941 34.511C18.2941 35.4079 17.5671 36.1349 16.6702 36.1349C15.7733 36.1349 15.0463 35.4079 15.0463 34.511Z" fill="black"/>
<path d="M14.943 44.2747C14.943 45.2287 15.7163 46.0019 16.6702 46.0019C17.6242 46.0019 18.3974 45.2287 18.3974 44.2747C18.3974 43.3207 17.6242 42.5475 16.6702 42.5475C15.7163 42.5475 14.943 43.3207 14.943 44.2747ZM14.7511 44.2747C14.7511 43.2149 15.6104 42.3556 16.6702 42.3556C17.7301 42.3556 18.5894 43.2149 18.5894 44.2747C18.5894 45.3346 17.7301 46.1939 16.6702 46.1939C15.6104 46.1939 14.7511 45.3346 14.7511 44.2747Z" fill="black"/>
<path d="M14.6773 54.0385C14.6773 55.1392 15.5696 56.0315 16.6702 56.0315C17.7709 56.0315 18.6632 55.1392 18.6632 54.0385C18.6632 52.9378 17.7709 52.0455 16.6702 52.0455C15.5696 52.0455 14.6773 52.9378 14.6773 54.0385ZM14.4558 54.0385C14.4558 52.8156 15.4472 51.8241 16.6702 51.8241C17.8932 51.8241 18.8847 52.8156 18.8847 54.0385C18.8847 55.2614 17.8932 56.2529 16.6702 56.2529C15.4472 56.2529 14.4558 55.2614 14.4558 54.0385Z" fill="black"/>
<path d="M14.4115 63.8022C14.4115 65.0497 15.4228 66.061 16.6702 66.061C17.9177 66.061 18.929 65.0497 18.929 63.8022C18.929 62.5548 17.9177 61.5435 16.6702 61.5435C15.4228 61.5435 14.4115 62.5548 14.4115 63.8022ZM14.1606 63.8022C14.1606 62.4162 15.2842 61.2926 16.6702 61.2926C18.0563 61.2926 19.1799 62.4162 19.1799 63.8022C19.1799 65.1883 18.0563 66.3119 16.6702 66.3119C15.2842 66.3119 14.1606 65.1883 14.1606 63.8022Z" fill="black"/>
<path d="M14.1458 73.566C14.1458 74.9602 15.2761 76.0904 16.6702 76.0904C18.0644 76.0904 19.1947 74.9602 19.1947 73.566C19.1947 72.1718 18.0644 71.0416 16.6702 71.0416C15.2761 71.0416 14.1458 72.1718 14.1458 73.566ZM13.8653 73.566C13.8653 72.0169 15.1211 70.7611 16.6702 70.7611C18.2194 70.7611 19.4752 72.0169 19.4752 73.566C19.4752 75.1151 18.2194 76.3709 16.6702 76.3709C15.1211 76.3709 13.8653 75.1151 13.8653 73.566Z" fill="black"/>
<path d="M13.8801 83.3298C13.8801 84.8707 15.1292 86.1199 16.6702 86.1199C18.2113 86.1199 19.4604 84.8707 19.4604 83.3298C19.4604 81.7888 18.2113 80.5396 16.6702 80.5396C15.1292 80.5396 13.8801 81.7888 13.8801 83.3298ZM13.5701 83.3298C13.5701 81.6176 14.9581 80.2296 16.6702 80.2296C18.3824 80.2296 19.7704 81.6176 19.7704 83.3298C19.7704 85.0419 18.3824 86.4299 16.6702 86.4299C14.9581 86.4299 13.5701 85.0419 13.5701 83.3298Z" fill="black"/>
<path d="M13.6144 93.0935C13.6144 94.7812 14.9825 96.1495 16.6702 96.1495C18.358 96.1495 19.7261 94.7812 19.7261 93.0935C19.7261 91.4058 18.358 90.0375 16.6702 90.0375C14.9825 90.0375 13.6144 91.4058 13.6144 93.0935ZM13.2748 93.0935C13.2748 91.2183 14.795 89.6981 16.6702 89.6981C18.5455 89.6981 20.0657 91.2183 20.0657 93.0935C20.0657 94.9687 18.5455 96.4889 16.6702 96.4889C14.795 96.4889 13.2748 94.9687 13.2748 93.0935Z" fill="black"/>
<path d="M25.8329 5.2197C25.8329 5.55167 26.102 5.82076 26.434 5.82076C26.766 5.82076 27.0351 5.55167 27.0351 5.2197C27.0351 4.88773 26.766 4.61865 26.434 4.61865C26.102 4.61865 25.8329 4.88773 25.8329 5.2197ZM25.7662 5.2197C25.7662 4.85083 26.0651 4.55186 26.434 4.55186C26.8029 4.55186 27.1018 4.85083 27.1018 5.2197C27.1018 5.58858 26.8029 5.88755 26.434 5.88755C26.0651 5.88755 25.7662 5.58858 25.7662 5.2197Z" fill="black"/>
<path d="M25.5926 14.9835C25.5926 15.4482 25.9692 15.8249 26.434 15.8249C26.8988 15.8249 27.2754 15.4482 27.2754 14.9835C27.2754 14.5187 26.8988 14.142 26.434 14.142C25.9692 14.142 25.5926 14.5187 25.5926 14.9835ZM25.499 14.9835C25.499 14.4671 25.9176 14.0485 26.434 14.0485C26.9504 14.0485 27.369 14.4671 27.369 14.9835C27.369 15.4999 26.9504 15.9184 26.434 15.9184C25.9176 15.9184 25.499 15.4999 25.499 14.9835Z" fill="black"/>
<path d="M25.3521 24.7472C25.3521 25.3447 25.8365 25.8291 26.434 25.8291C27.0315 25.8291 27.5159 25.3447 27.5159 24.7472C27.5159 24.1497 27.0315 23.6653 26.434 23.6653C25.8365 23.6653 25.3521 24.1497 25.3521 24.7472ZM25.2319 24.7472C25.2319 24.0833 25.7701 23.5451 26.434 23.5451C27.0979 23.5451 27.6361 24.0833 27.6361 24.7472C27.6361 25.4111 27.0979 25.9493 26.434 25.9493C25.7701 25.9493 25.2319 25.4111 25.2319 24.7472Z" fill="black"/>
<path d="M25.1117 34.511C25.1117 35.2412 25.7038 35.8333 26.434 35.8333C27.1642 35.8333 27.7563 35.2412 27.7563 34.511C27.7563 33.7807 27.1642 33.1887 26.434 33.1887C25.7038 33.1887 25.1117 33.7807 25.1117 34.511ZM24.9647 34.511C24.9647 33.6995 25.6225 33.0417 26.434 33.0417C27.2455 33.0417 27.9032 33.6995 27.9032 34.511C27.9032 35.3224 27.2455 35.9802 26.434 35.9802C25.6225 35.9802 24.9647 35.3224 24.9647 34.511Z" fill="black"/>
<path d="M24.8713 44.2747C24.8713 45.1378 25.5709 45.8375 26.434 45.8375C27.2971 45.8375 27.9968 45.1378 27.9968 44.2747C27.9968 43.4116 27.2971 42.7119 26.434 42.7119C25.5709 42.7119 24.8713 43.4116 24.8713 44.2747ZM24.6976 44.2747C24.6976 43.3157 25.475 42.5383 26.434 42.5383C27.393 42.5383 28.1704 43.3157 28.1704 44.2747C28.1704 45.2337 27.393 46.0111 26.434 46.0111C25.475 46.0111 24.6976 45.2337 24.6976 44.2747Z" fill="black"/>
<path d="M24.6308 54.0385C24.6308 55.0343 25.4381 55.8417 26.434 55.8417C27.4299 55.8417 28.2372 55.0343 28.2372 54.0385C28.2372 53.0427 27.4299 52.2353 26.434 52.2353C25.4381 52.2353 24.6308 53.0427 24.6308 54.0385ZM24.4305 54.0385C24.4305 52.932 25.3275 52.035 26.434 52.035C27.5405 52.035 28.4375 52.932 28.4375 54.0385C28.4375 55.145 27.5405 56.042 26.434 56.042C25.3275 56.042 24.4305 55.145 24.4305 54.0385Z" fill="black"/>
<path d="M24.3904 63.8022C24.3904 64.9309 25.3053 65.8459 26.434 65.8459C27.5627 65.8459 28.4776 64.9309 28.4776 63.8022C28.4776 62.6736 27.5627 61.7586 26.434 61.7586C25.3053 61.7586 24.3904 62.6736 24.3904 63.8022ZM24.1633 63.8022C24.1633 62.5482 25.1799 61.5316 26.434 61.5316C27.6881 61.5316 28.7047 62.5482 28.7047 63.8022C28.7047 65.0563 27.6881 66.0729 26.434 66.0729C25.1799 66.0729 24.1633 65.0563 24.1633 63.8022Z" fill="black"/>
<path d="M24.15 73.566C24.15 74.8275 25.1726 75.85 26.434 75.85C27.6954 75.85 28.718 74.8275 28.718 73.566C28.718 72.3045 27.6954 71.282 26.434 71.282C25.1726 71.282 24.15 72.3045 24.15 73.566ZM23.8962 73.566C23.8962 72.1644 25.0324 71.0282 26.434 71.0282C27.8356 71.0282 28.9718 72.1644 28.9718 73.566C28.9718 74.9676 27.8356 76.1038 26.434 76.1038C25.0324 76.1038 23.8962 74.9676 23.8962 73.566Z" fill="black"/>
<path d="M23.9096 83.3298C23.9096 84.7239 25.0398 85.8542 26.434 85.8542C27.8282 85.8542 28.9584 84.7239 28.9584 83.3298C28.9584 81.9356 27.8282 80.8053 26.434 80.8053C25.0398 80.8053 23.9096 81.9356 23.9096 83.3298ZM23.6291 83.3298C23.6291 81.7806 24.8849 80.5248 26.434 80.5248C27.9831 80.5248 29.2389 81.7806 29.2389 83.3298C29.2389 84.8789 27.9831 86.1347 26.434 86.1347C24.8849 86.1347 23.6291 84.8789 23.6291 83.3298Z" fill="black"/>
<path d="M23.6692 93.0935C23.6692 94.6205 24.907 95.8583 26.434 95.8583C27.961 95.8583 29.1988 94.6205 29.1988 93.0935C29.1988 91.5664 27.961 90.3287 26.434 90.3287C24.907 90.3287 23.6692 91.5664 23.6692 93.0935ZM23.3619 93.0935C23.3619 91.3969 24.7374 90.0214 26.434 90.0214C28.1306 90.0214 29.5061 91.3969 29.5061 93.0935C29.5061 94.7902 28.1306 96.1656 26.434 96.1656C24.7374 96.1656 23.3619 94.7902 23.3619 93.0935Z" fill="black"/>
<path d="M35.66 5.2197C35.66 5.51671 35.9007 5.75749 36.1978 5.75749C36.4948 5.75749 36.7355 5.51671 36.7355 5.2197C36.7355 4.92268 36.4948 4.68191 36.1978 4.68191C35.9007 4.68191 35.66 4.92268 35.66 5.2197ZM35.6002 5.2197C35.6002 4.88968 35.8677 4.62215 36.1978 4.62215C36.5278 4.62215 36.7953 4.88968 36.7953 5.2197C36.7953 5.54971 36.5278 5.81724 36.1978 5.81724C35.8677 5.81724 35.6002 5.54971 35.6002 5.2197Z" fill="black"/>
<path d="M35.4449 14.9835C35.4449 15.3993 35.7819 15.7363 36.1978 15.7363C36.6136 15.7363 36.9506 15.3993 36.9506 14.9835C36.9506 14.5676 36.6136 14.2306 36.1978 14.2306C35.7819 14.2306 35.4449 14.5676 35.4449 14.9835ZM35.3612 14.9835C35.3612 14.5214 35.7357 14.1469 36.1978 14.1469C36.6598 14.1469 37.0343 14.5214 37.0343 14.9835C37.0343 15.4455 36.6598 15.82 36.1978 15.82C35.7357 15.82 35.3612 15.4455 35.3612 14.9835Z" fill="black"/>
<path d="M35.2298 24.7472C35.2298 25.2819 35.6631 25.7153 36.1978 25.7153C36.7324 25.7153 37.1657 25.2819 37.1657 24.7472C37.1657 24.2125 36.7324 23.7791 36.1978 23.7791C35.6631 23.7791 35.2298 24.2125 35.2298 24.7472ZM35.1222 24.7472C35.1222 24.1532 35.6037 23.6716 36.1978 23.6716C36.7918 23.6716 37.2733 24.1532 37.2733 24.7472C37.2733 25.3412 36.7918 25.8228 36.1978 25.8228C35.6037 25.8228 35.1222 25.3412 35.1222 24.7472Z" fill="black"/>
<path d="M35.0147 34.511C35.0147 35.1644 35.5444 35.6941 36.1978 35.6941C36.8511 35.6941 37.3808 35.1644 37.3808 34.511C37.3808 33.8576 36.8511 33.3278 36.1978 33.3278C35.5444 33.3278 35.0147 33.8576 35.0147 34.511ZM34.8832 34.511C34.8832 33.7849 35.4717 33.1964 36.1978 33.1964C36.9238 33.1964 37.5123 33.7849 37.5123 34.511C37.5123 35.237 36.9238 35.8256 36.1978 35.8256C35.4717 35.8256 34.8832 35.237 34.8832 34.511Z" fill="black"/>
<path d="M34.7996 44.2747C34.7996 45.0469 35.4255 45.6729 36.1978 45.6729C36.97 45.6729 37.5959 45.0469 37.5959 44.2747C37.5959 43.5025 36.97 42.8766 36.1978 42.8766C35.4255 42.8766 34.7996 43.5025 34.7996 44.2747ZM34.6441 44.2747C34.6441 43.4167 35.3397 42.7211 36.1978 42.7211C37.0558 42.7211 37.7514 43.4167 37.7514 44.2747C37.7514 45.1328 37.0558 45.8283 36.1978 45.8283C35.3397 45.8283 34.6441 45.1328 34.6441 44.2747Z" fill="black"/>
<path d="M34.5844 54.0385C34.5844 54.9295 35.3067 55.6519 36.1978 55.6519C37.0888 55.6519 37.8111 54.9295 37.8111 54.0385C37.8111 53.1474 37.0888 52.4251 36.1978 52.4251C35.3067 52.4251 34.5844 53.1474 34.5844 54.0385ZM34.4051 54.0385C34.4051 53.0484 35.2077 52.2459 36.1978 52.2459C37.1878 52.2459 37.9904 53.0484 37.9904 54.0385C37.9904 55.0285 37.1878 55.8311 36.1978 55.8311C35.2077 55.8311 34.4051 55.0285 34.4051 54.0385Z" fill="black"/>
<path d="M34.3692 63.8022C34.3692 64.8121 35.1879 65.6308 36.1978 65.6308C37.2076 65.6308 38.0263 64.8121 38.0263 63.8022C38.0263 62.7924 37.2076 61.9737 36.1978 61.9737C35.1879 61.9737 34.3692 62.7924 34.3692 63.8022ZM34.1661 63.8022C34.1661 62.6802 35.0757 61.7706 36.1978 61.7706C37.3198 61.7706 38.2294 62.6802 38.2294 63.8022C38.2294 64.9243 37.3198 65.8339 36.1978 65.8339C35.0757 65.8339 34.1661 64.9243 34.1661 63.8022Z" fill="black"/>
<path d="M34.1541 73.566C34.1541 74.6947 35.0691 75.6097 36.1978 75.6097C37.3264 75.6097 38.2414 74.6947 38.2414 73.566C38.2414 72.4373 37.3264 71.5224 36.1978 71.5224C35.0691 71.5224 34.1541 72.4373 34.1541 73.566ZM33.9271 73.566C33.9271 72.3119 34.9437 71.2953 36.1978 71.2953C37.4518 71.2953 38.4684 72.3119 38.4684 73.566C38.4684 74.8201 37.4518 75.8367 36.1978 75.8367C34.9437 75.8367 33.9271 74.8201 33.9271 73.566Z" fill="black"/>
<path d="M33.939 83.3298C33.939 84.5772 34.9503 85.5885 36.1978 85.5885C37.4452 85.5885 38.4565 84.5772 38.4565 83.3298C38.4565 82.0823 37.4452 81.071 36.1978 81.071C34.9503 81.071 33.939 82.0823 33.939 83.3298ZM33.6881 83.3298C33.6881 81.9437 34.8117 80.8201 36.1978 80.8201C37.5838 80.8201 38.7074 81.9437 38.7074 83.3298C38.7074 84.7158 37.5838 85.8394 36.1978 85.8394C34.8117 85.8394 33.6881 84.7158 33.6881 83.3298Z" fill="black"/>
<path d="M33.7239 93.0935C33.7239 94.4598 34.8315 95.5674 36.1978 95.5674C37.564 95.5674 38.6716 94.4598 38.6716 93.0935C38.6716 91.7273 37.564 90.6197 36.1978 90.6197C34.8315 90.6197 33.7239 91.7273 33.7239 93.0935ZM33.4491 93.0935C33.4491 91.5754 34.6797 90.3448 36.1978 90.3448C37.7158 90.3448 38.9464 91.5754 38.9464 93.0935C38.9464 94.6116 37.7158 95.8422 36.1978 95.8422C34.6797 95.8422 33.4491 94.6116 33.4491 93.0935Z" fill="black"/>
<path d="M45.487 5.2197C45.487 5.48176 45.6994 5.69422 45.9615 5.69422C46.2237 5.69422 46.436 5.48176 46.436 5.2197C46.436 4.95764 46.2237 4.74519 45.9615 4.74519C45.6994 4.74519 45.487 4.95764 45.487 5.2197ZM45.4343 5.2197C45.4343 4.92855 45.6704 4.69246 45.9615 4.69246C46.2527 4.69246 46.4888 4.92855 46.4888 5.2197C46.4888 5.51086 46.2527 5.74694 45.9615 5.74694C45.6704 5.74694 45.4343 5.51086 45.4343 5.2197Z" fill="black"/>
<path d="M45.2972 14.9835C45.2972 15.3504 45.5946 15.6478 45.9615 15.6478C46.3284 15.6478 46.6258 15.3504 46.6258 14.9835C46.6258 14.6165 46.3284 14.3191 45.9615 14.3191C45.5946 14.3191 45.2972 14.6165 45.2972 14.9835ZM45.2234 14.9835C45.2234 14.5758 45.5539 14.2453 45.9615 14.2453C46.3692 14.2453 46.6997 14.5758 46.6997 14.9835C46.6997 15.3911 46.3692 15.7216 45.9615 15.7216C45.5539 15.7216 45.2234 15.3911 45.2234 14.9835Z" fill="black"/>
<path d="M45.1074 24.7472C45.1074 25.219 45.4898 25.6013 45.9615 25.6013C46.4332 25.6013 46.8156 25.219 46.8156 24.7472C46.8156 24.2754 46.4332 23.8931 45.9615 23.8931C45.4898 23.8931 45.1074 24.2754 45.1074 24.7472ZM45.0125 24.7472C45.0125 24.2231 45.4374 23.7982 45.9615 23.7982C46.4856 23.7982 46.9106 24.2231 46.9106 24.7472C46.9106 25.2713 46.4856 25.6963 45.9615 25.6963C45.4374 25.6963 45.0125 25.2713 45.0125 24.7472Z" fill="black"/>
<path d="M44.9176 34.511C44.9176 35.0875 45.385 35.5549 45.9615 35.5549C46.5381 35.5549 47.0055 35.0875 47.0055 34.511C47.0055 33.9344 46.5381 33.467 45.9615 33.467C45.385 33.467 44.9176 33.9344 44.9176 34.511ZM44.8016 34.511C44.8016 33.8704 45.3208 33.351 45.9615 33.351C46.6022 33.351 47.1214 33.8704 47.1214 34.511C47.1214 35.1516 46.6022 35.6709 45.9615 35.6709C45.3208 35.6709 44.8016 35.1516 44.8016 34.511Z" fill="black"/>
<path d="M44.7278 44.2747C44.7278 44.9561 45.2801 45.5085 45.9615 45.5085C46.6429 45.5085 47.1953 44.9561 47.1953 44.2747C47.1953 43.5933 46.6429 43.041 45.9615 43.041C45.2801 43.041 44.7278 43.5933 44.7278 44.2747ZM44.5907 44.2747C44.5907 43.5176 45.2044 42.9039 45.9615 42.9039C46.7186 42.9039 47.3324 43.5176 47.3324 44.2747C47.3324 45.0318 46.7186 45.6456 45.9615 45.6456C45.2044 45.6456 44.5907 45.0318 44.5907 44.2747Z" fill="black"/>
<path d="M44.538 54.0385C44.538 54.8248 45.1752 55.462 45.9615 55.462C46.7478 55.462 47.3851 54.8248 47.3851 54.0385C47.3851 53.2522 46.7478 52.6149 45.9615 52.6149C45.1752 52.6149 44.538 53.2522 44.538 54.0385ZM44.3798 54.0385C44.3798 53.1649 45.0879 52.4568 45.9615 52.4568C46.8351 52.4568 47.5432 53.1649 47.5432 54.0385C47.5432 54.912 46.8351 55.6202 45.9615 55.6202C45.0879 55.6202 44.3798 54.912 44.3798 54.0385Z" fill="black"/>
<path d="M44.3481 63.8022C44.3481 64.6933 45.0705 65.4156 45.9615 65.4156C46.8526 65.4156 47.5749 64.6933 47.5749 63.8022C47.5749 62.9112 46.8526 62.1889 45.9615 62.1889C45.0705 62.1889 44.3481 62.9112 44.3481 63.8022ZM44.1689 63.8022C44.1689 62.8122 44.9715 62.0096 45.9615 62.0096C46.9516 62.0096 47.7541 62.8122 47.7541 63.8022C47.7541 64.7923 46.9516 65.5949 45.9615 65.5949C44.9715 65.5949 44.1689 64.7923 44.1689 63.8022Z" fill="black"/>
<path d="M44.1583 73.566C44.1583 74.5618 44.9657 75.3692 45.9615 75.3692C46.9573 75.3692 47.7647 74.5618 47.7647 73.566C47.7647 72.5702 46.9573 71.7628 45.9615 71.7628C44.9657 71.7628 44.1583 72.5702 44.1583 73.566ZM43.958 73.566C43.958 72.4595 44.855 71.5625 45.9615 71.5625C47.068 71.5625 47.965 72.4595 47.965 73.566C47.965 74.6725 47.068 75.5695 45.9615 75.5695C44.855 75.5695 43.958 74.6725 43.958 73.566Z" fill="black"/>
<path d="M43.9685 83.3298C43.9685 84.4304 44.8608 85.3227 45.9615 85.3227C47.0622 85.3227 47.9545 84.4304 47.9545 83.3298C47.9545 82.2291 47.0622 81.3368 45.9615 81.3368C44.8608 81.3368 43.9685 82.2291 43.9685 83.3298ZM43.7471 83.3298C43.7471 82.1068 44.7386 81.1153 45.9615 81.1153C47.1844 81.1153 48.1759 82.1068 48.1759 83.3298C48.1759 84.5527 47.1844 85.5442 45.9615 85.5442C44.7386 85.5442 43.7471 84.5527 43.7471 83.3298Z" fill="black"/>
<path d="M43.7787 93.0935C43.7787 94.299 44.756 95.2763 45.9615 95.2763C47.167 95.2763 48.1443 94.299 48.1443 93.0935C48.1443 91.888 47.167 90.9107 45.9615 90.9107C44.756 90.9107 43.7787 91.888 43.7787 93.0935ZM43.5362 93.0935C43.5362 91.754 44.622 90.6682 45.9615 90.6682C47.301 90.6682 48.3868 91.754 48.3868 93.0935C48.3868 94.433 47.301 95.5188 45.9615 95.5188C44.622 95.5188 43.5362 94.433 43.5362 93.0935Z" fill="black"/>
<path d="M1.68718 0.337822C1.68718 0.151334 1.83825 0 2.0246 0C2.21095 0 2.36202 0.151334 2.36202 0.337822C2.36202 0.524212 2.21095 0.675254 2.0246 0.675254C1.83825 0.675254 1.68718 0.524212 1.68718 0.337822Z" fill="black"/>
<path d="M1.51845 10.1016C1.51845 9.82204 1.74504 9.59542 2.0246 9.59542C2.30417 9.59542 2.53075 9.82204 2.53075 10.1016C2.53075 10.3811 2.30417 10.6077 2.0246 10.6077C1.74504 10.6077 1.51845 10.3811 1.51845 10.1016Z" fill="black"/>
<path d="M1.34972 19.8653C1.34972 19.4927 1.6519 19.1905 2.0246 19.1905C2.3973 19.1905 2.69948 19.4927 2.69948 19.8653C2.69948 20.238 2.3973 20.5402 2.0246 20.5402C1.6519 20.5402 1.34972 20.238 1.34972 19.8653Z" fill="black"/>
<path d="M1.18099 29.6291C1.18099 29.1633 1.55869 28.7855 2.0246 28.7855C2.49052 28.7855 2.86821 29.1633 2.86821 29.6291C2.86821 30.0949 2.49052 30.4727 2.0246 30.4727C1.55869 30.4727 1.18099 30.0949 1.18099 29.6291Z" fill="black"/>
<path d="M1.01226 39.3928C1.01226 38.8338 1.46551 38.3805 2.0246 38.3805C2.58369 38.3805 3.03695 38.8338 3.03695 39.3928C3.03695 39.952 2.58369 40.4052 2.0246 40.4052C1.46551 40.4052 1.01226 39.952 1.01226 39.3928Z" fill="black"/>
<path d="M0.843569 49.1566C0.843569 48.5043 1.37234 47.9756 2.0246 47.9756C2.67687 47.9756 3.20564 48.5043 3.20564 49.1566C3.20564 49.8089 2.67687 50.3376 2.0246 50.3376C1.37234 50.3376 0.843569 49.8089 0.843569 49.1566Z" fill="black"/>
<path d="M0.674842 58.9204C0.674842 58.1749 1.27916 57.5706 2.0246 57.5706C2.77004 57.5706 3.37436 58.1749 3.37436 58.9204C3.37436 59.6658 2.77004 60.2701 2.0246 60.2701C1.27916 60.2701 0.674842 59.6658 0.674842 58.9204Z" fill="black"/>
<path d="M0.506143 68.6841C0.506143 67.8455 1.18595 67.1657 2.0246 67.1657C2.86326 67.1657 3.54306 67.8455 3.54306 68.6841C3.54306 69.5227 2.86326 70.2026 2.0246 70.2026C1.18595 70.2026 0.506143 69.5227 0.506143 68.6841Z" fill="black"/>
<path d="M0.337455 78.4479C0.337455 77.516 1.09281 76.7607 2.0246 76.7607C2.95639 76.7607 3.71175 77.516 3.71175 78.4479C3.71175 79.3797 2.95639 80.1351 2.0246 80.1351C1.09281 80.1351 0.337455 79.3797 0.337455 78.4479Z" fill="black"/>
<path d="M0.168727 88.2116C0.168727 87.1866 0.999604 86.3558 2.0246 86.3558C3.0496 86.3558 3.88048 87.1866 3.88048 88.2116C3.88048 89.2366 3.0496 90.0675 2.0246 90.0675C0.999604 90.0675 0.168727 89.2366 0.168727 88.2116Z" fill="black"/>
<path d="M0 97.9754C0 96.8573 0.906458 95.9508 2.0246 95.9508C3.14275 95.9508 4.04921 96.8573 4.04921 97.9754C4.04921 99.0934 3.14275 100 2.0246 100C0.906458 100 0 99.0934 0 97.9754Z" fill="black"/>
<path d="M11.479 0.337828C11.479 0.166962 11.6175 0.0283145 11.7884 0.0283145C11.9592 0.0283145 12.0977 0.166962 12.0977 0.337828C12.0977 0.508693 11.9592 0.64714 11.7884 0.64714C11.6175 0.64714 11.479 0.508693 11.479 0.337828Z" fill="black"/>
<path d="M11.3244 10.1016C11.3244 9.84528 11.5321 9.63761 11.7884 9.63761C12.0447 9.63761 12.2523 9.84528 12.2523 10.1016C12.2523 10.3579 12.0447 10.5655 11.7884 10.5655C11.5321 10.5655 11.3244 10.3579 11.3244 10.1016Z" fill="black"/>
<path d="M11.1697 19.8653C11.1697 19.5237 11.4467 19.2467 11.7884 19.2467C12.1301 19.2467 12.407 19.5237 12.407 19.8653C12.407 20.207 12.1301 20.484 11.7884 20.484C11.4467 20.484 11.1697 20.207 11.1697 19.8653Z" fill="black"/>
<path d="M11.0151 29.6291C11.0151 29.202 11.3613 28.8558 11.7884 28.8558C12.2154 28.8558 12.5616 29.202 12.5616 29.6291C12.5616 30.0562 12.2154 30.4024 11.7884 30.4024C11.3613 30.4024 11.0151 30.0562 11.0151 29.6291Z" fill="black"/>
<path d="M10.8604 39.3929C10.8604 38.8804 11.2759 38.4649 11.7884 38.4649C12.3009 38.4649 12.7163 38.8804 12.7163 39.3929C12.7163 39.9054 12.3009 40.3208 11.7884 40.3208C11.2759 40.3208 10.8604 39.9054 10.8604 39.3929Z" fill="black"/>
<path d="M10.7058 49.1566C10.7058 48.5587 11.1905 48.074 11.7884 48.074C12.3863 48.074 12.871 48.5587 12.871 49.1566C12.871 49.7545 12.3863 50.2392 11.7884 50.2392C11.1905 50.2392 10.7058 49.7545 10.7058 49.1566Z" fill="black"/>
<path d="M10.5511 58.9204C10.5511 58.237 11.1051 57.6831 11.7884 57.6831C12.4717 57.6831 13.0256 58.237 13.0256 58.9204C13.0256 59.6037 12.4717 60.1576 11.7884 60.1576C11.1051 60.1576 10.5511 59.6037 10.5511 58.9204Z" fill="black"/>
<path d="M10.3964 68.6841C10.3964 67.9154 11.0196 67.2922 11.7884 67.2922C12.5572 67.2922 13.1803 67.9154 13.1803 68.6841C13.1803 69.4528 12.5572 70.076 11.7884 70.076C11.0196 70.076 10.3964 69.4528 10.3964 68.6841Z" fill="black"/>
<path d="M10.2418 78.4479C10.2418 77.5938 10.9342 76.9013 11.7884 76.9013C12.6425 76.9013 13.3349 77.5938 13.3349 78.4479C13.3349 79.302 12.6425 79.9945 11.7884 79.9945C10.9342 79.9945 10.2418 79.302 10.2418 78.4479Z" fill="black"/>
<path d="M10.0871 88.2116C10.0871 87.2721 10.8488 86.5104 11.7884 86.5104C12.7279 86.5104 13.4896 87.2721 13.4896 88.2116C13.4896 89.1512 12.7279 89.9129 11.7884 89.9129C10.8488 89.9129 10.0871 89.1512 10.0871 88.2116Z" fill="black"/>
<path d="M9.93249 97.9754C9.93249 96.9504 10.7634 96.1195 11.7884 96.1195C12.8134 96.1195 13.6443 96.9504 13.6443 97.9754C13.6443 99.0006 12.8134 99.8315 11.7884 99.8315C10.7634 99.8315 9.93249 99.0006 9.93249 97.9754Z" fill="black"/>
<path d="M21.2709 0.337818C21.2709 0.182574 21.3968 0.0566238 21.5521 0.0566238C21.7075 0.0566238 21.8333 0.182574 21.8333 0.337818C21.8333 0.493159 21.7075 0.619012 21.5521 0.619012C21.3968 0.619012 21.2709 0.493159 21.2709 0.337818Z" fill="black"/>
<path d="M21.1303 10.1016C21.1303 9.86862 21.3192 9.67979 21.5521 9.67979C21.7851 9.67979 21.9739 9.86862 21.9739 10.1016C21.9739 10.3345 21.7851 10.5234 21.5521 10.5234C21.3192 10.5234 21.1303 10.3345 21.1303 10.1016Z" fill="black"/>
<path d="M20.9897 19.8653C20.9897 19.5548 21.2415 19.3029 21.5521 19.3029C21.8627 19.3029 22.1145 19.5548 22.1145 19.8653C22.1145 20.1759 21.8627 20.4277 21.5521 20.4277C21.2415 20.4277 20.9897 20.1759 20.9897 19.8653Z" fill="black"/>
<path d="M20.8491 29.6291C20.8491 29.2408 21.1638 28.9261 21.5521 28.9261C21.9404 28.9261 22.2551 29.2408 22.2551 29.6291C22.2551 30.0174 21.9404 30.3321 21.5521 30.3321C21.1638 30.3321 20.8491 30.0174 20.8491 29.6291Z" fill="black"/>
<path d="M20.7085 39.3928C20.7085 38.927 21.0862 38.5493 21.5521 38.5493C22.018 38.5493 22.3957 38.927 22.3957 39.3928C22.3957 39.8587 22.018 40.2364 21.5521 40.2364C21.0862 40.2364 20.7085 39.8587 20.7085 39.3928Z" fill="black"/>
<path d="M20.5679 49.1566C20.5679 48.6131 21.0086 48.1724 21.5521 48.1724C22.0957 48.1724 22.5363 48.6131 22.5363 49.1566C22.5363 49.7002 22.0957 50.1408 21.5521 50.1408C21.0086 50.1408 20.5679 49.7002 20.5679 49.1566Z" fill="black"/>
<path d="M20.4273 58.9204C20.4273 58.2992 20.931 57.7956 21.5521 57.7956C22.1733 57.7956 22.6769 58.2992 22.6769 58.9204C22.6769 59.5415 22.1733 60.0452 21.5521 60.0452C20.931 60.0452 20.4273 59.5415 20.4273 58.9204Z" fill="black"/>
<path d="M20.2867 68.6841C20.2867 67.9853 20.8532 67.4187 21.5521 67.4187C22.251 67.4187 22.8175 67.9853 22.8175 68.6841C22.8175 69.3829 22.251 69.9495 21.5521 69.9495C20.8532 69.9495 20.2867 69.3829 20.2867 68.6841Z" fill="black"/>
<path d="M20.1461 78.4479C20.1461 77.6714 20.7756 77.0419 21.5521 77.0419C22.3286 77.0419 22.9581 77.6714 22.9581 78.4479C22.9581 79.2244 22.3286 79.8539 21.5521 79.8539C20.7756 79.8539 20.1461 79.2244 20.1461 78.4479Z" fill="black"/>
<path d="M20.0055 88.2116C20.0055 87.3575 20.698 86.6651 21.5521 86.6651C22.4063 86.6651 23.0987 87.3575 23.0987 88.2116C23.0987 89.0658 22.4063 89.7582 21.5521 89.7582C20.698 89.7582 20.0055 89.0658 20.0055 88.2116Z" fill="black"/>
<path d="M19.8649 97.9754C19.8649 97.0435 20.6204 96.2882 21.5521 96.2882C22.4839 96.2882 23.2393 97.0435 23.2393 97.9754C23.2393 98.9068 22.4839 99.6626 21.5521 99.6626C20.6204 99.6626 19.8649 98.9068 19.8649 97.9754Z" fill="black"/>
<path d="M31.0628 0.337816C31.0628 0.198194 31.1761 0.0849308 31.3159 0.0849308C31.4557 0.0849308 31.569 0.198194 31.569 0.337816C31.569 0.477633 31.4557 0.590892 31.3159 0.590892C31.1761 0.590892 31.0628 0.477633 31.0628 0.337816Z" fill="black"/>
<path d="M30.9363 10.1016C30.9363 9.89186 31.1062 9.72197 31.3159 9.72197C31.5255 9.72197 31.6955 9.89186 31.6955 10.1016C31.6955 10.3112 31.5255 10.4812 31.3159 10.4812C31.1062 10.4812 30.9363 10.3112 30.9363 10.1016Z" fill="black"/>
<path d="M30.8097 19.8653C30.8097 19.5858 31.0363 19.3592 31.3159 19.3592C31.5954 19.3592 31.822 19.5858 31.822 19.8653C31.822 20.1449 31.5954 20.3715 31.3159 20.3715C31.0363 20.3715 30.8097 20.1449 30.8097 19.8653Z" fill="black"/>
<path d="M30.6832 29.6291C30.6832 29.2796 30.9664 28.9964 31.3159 28.9964C31.6653 28.9964 31.9486 29.2796 31.9486 29.6291C31.9486 29.9785 31.6653 30.2618 31.3159 30.2618C30.9664 30.2618 30.6832 29.9785 30.6832 29.6291Z" fill="black"/>
<path d="M30.5566 39.3928C30.5566 38.9736 30.8966 38.6336 31.3159 38.6336C31.7351 38.6336 32.0751 38.9736 32.0751 39.3928C32.0751 39.8122 31.7351 40.1521 31.3159 40.1521C30.8966 40.1521 30.5566 39.8122 30.5566 39.3928Z" fill="black"/>
<path d="M30.4301 49.1566C30.4301 48.6673 30.8267 48.2708 31.3159 48.2708C31.805 48.2708 32.2016 48.6673 32.2016 49.1566C32.2016 49.6459 31.805 50.0424 31.3159 50.0424C30.8267 50.0424 30.4301 49.6459 30.4301 49.1566Z" fill="black"/>
<path d="M30.3036 58.9204C30.3036 58.3612 30.7568 57.9081 31.3159 57.9081C31.875 57.9081 32.3282 58.3612 32.3282 58.9204C32.3282 59.4795 31.875 59.9327 31.3159 59.9327C30.7568 59.9327 30.3036 59.4795 30.3036 58.9204Z" fill="black"/>
<path d="M30.177 68.6841C30.177 68.0552 30.6869 67.5453 31.3159 67.5453C31.9448 67.5453 32.4547 68.0552 32.4547 68.6841C32.4547 69.313 31.9448 69.823 31.3159 69.823C30.6869 69.823 30.177 69.313 30.177 68.6841Z" fill="black"/>
<path d="M30.0505 78.4479C30.0505 77.7491 30.617 77.1825 31.3159 77.1825C32.0147 77.1825 32.5813 77.7491 32.5813 78.4479C32.5813 79.1467 32.0147 79.7133 31.3159 79.7133C30.617 79.7133 30.0505 79.1467 30.0505 78.4479Z" fill="black"/>
<path d="M29.924 88.2116C29.924 87.4429 30.5471 86.8197 31.3159 86.8197C32.0846 86.8197 32.7078 87.4429 32.7078 88.2116C32.7078 88.9803 32.0846 89.6035 31.3159 89.6035C30.5471 89.6035 29.924 88.9803 29.924 88.2116Z" fill="black"/>
<path d="M29.7974 97.9754C29.7974 97.1368 30.4773 96.4569 31.3159 96.4569C32.1545 96.4569 32.8343 97.1368 32.8343 97.9754C32.8343 98.8141 32.1545 99.4937 31.3159 99.4937C30.4773 99.4937 29.7974 98.8141 29.7974 97.9754Z" fill="black"/>
<path d="M40.8547 0.337821C40.8547 0.213822 40.9554 0.113255 41.0796 0.113255C41.2038 0.113255 41.3046 0.213822 41.3046 0.337821C41.3046 0.462016 41.2038 0.562779 41.0796 0.562779C40.9554 0.562779 40.8547 0.462016 40.8547 0.337821Z" fill="black"/>
<path d="M40.7422 10.1016C40.7422 9.91519 40.8933 9.76415 41.0796 9.76415C41.2659 9.76415 41.4171 9.91519 41.4171 10.1016C41.4171 10.288 41.2659 10.439 41.0796 10.439C40.8933 10.439 40.7422 10.288 40.7422 10.1016Z" fill="black"/>
<path d="M40.6297 19.8653C40.6297 19.6168 40.8311 19.4154 41.0796 19.4154C41.3281 19.4154 41.5295 19.6168 41.5295 19.8653C41.5295 20.1138 41.3281 20.3153 41.0796 20.3153C40.8311 20.3153 40.6297 20.1138 40.6297 19.8653Z" fill="black"/>
<path d="M40.5172 29.6291C40.5172 29.3185 40.769 29.0667 41.0796 29.0667C41.3903 29.0667 41.642 29.3185 41.642 29.6291C41.642 29.9397 41.3903 30.1915 41.0796 30.1915C40.769 30.1915 40.5172 29.9397 40.5172 29.6291Z" fill="black"/>
<path d="M40.4048 39.3928C40.4048 39.0202 40.707 38.718 41.0796 38.718C41.4523 38.718 41.7545 39.0202 41.7545 39.3928C41.7545 39.7655 41.4523 40.0677 41.0796 40.0677C40.707 40.0677 40.4048 39.7655 40.4048 39.3928Z" fill="black"/>
<path d="M40.2923 49.1566C40.2923 48.7218 40.6449 48.3693 41.0796 48.3693C41.5144 48.3693 41.867 48.7218 41.867 49.1566C41.867 49.5914 41.5144 49.944 41.0796 49.944C40.6449 49.944 40.2923 49.5914 40.2923 49.1566Z" fill="black"/>
<path d="M40.1798 58.9204C40.1798 58.4234 40.5827 58.0205 41.0796 58.0205C41.5766 58.0205 41.9795 58.4234 41.9795 58.9204C41.9795 59.4173 41.5766 59.8202 41.0796 59.8202C40.5827 59.8202 40.1798 59.4173 40.1798 58.9204Z" fill="black"/>
<path d="M40.0673 68.6841C40.0673 68.1249 40.5205 67.6718 41.0796 67.6718C41.6388 67.6718 42.0919 68.1249 42.0919 68.6841C42.0919 69.2433 41.6388 69.6964 41.0796 69.6964C40.5205 69.6964 40.0673 69.2433 40.0673 68.6841Z" fill="black"/>
<path d="M39.9548 78.4479C39.9548 77.8267 40.4585 77.3231 41.0796 77.3231C41.7008 77.3231 42.2044 77.8267 42.2044 78.4479C42.2044 79.0691 41.7008 79.5727 41.0796 79.5727C40.4585 79.5727 39.9548 79.0691 39.9548 78.4479Z" fill="black"/>
<path d="M39.8424 88.2116C39.8424 87.5283 40.3963 86.9744 41.0796 86.9744C41.763 86.9744 42.3169 87.5283 42.3169 88.2116C42.3169 88.895 41.763 89.4489 41.0796 89.4489C40.3963 89.4489 39.8424 88.895 39.8424 88.2116Z" fill="black"/>
<path d="M39.7299 97.9754C39.7299 97.2299 40.3342 96.6256 41.0796 96.6256C41.8251 96.6256 42.4294 97.2299 42.4294 97.9754C42.4294 98.7204 41.8251 99.3247 41.0796 99.3247C40.3342 99.3247 39.7299 98.7204 39.7299 97.9754Z" fill="black"/>
<path d="M50.6466 0.337819C50.6466 0.229442 50.7347 0.140589 50.8434 0.140589C50.9521 0.140589 51.0402 0.229442 51.0402 0.337819C51.0402 0.44649 50.9521 0.534658 50.8434 0.534658C50.7347 0.534658 50.6466 0.44649 50.6466 0.337819Z" fill="black"/>
<path d="M50.5481 10.1016C50.5481 9.93852 50.6803 9.80632 50.8434 9.80632C51.0065 9.80632 51.1387 9.93852 51.1387 10.1016C51.1387 10.2646 51.0065 10.3968 50.8434 10.3968C50.6803 10.3968 50.5481 10.2646 50.5481 10.1016Z" fill="black"/>
<path d="M50.4497 19.8653C50.4497 19.6479 50.626 19.4717 50.8434 19.4717C51.0608 19.4717 51.2371 19.6479 51.2371 19.8653C51.2371 20.0828 51.0608 20.259 50.8434 20.259C50.626 20.259 50.4497 20.0828 50.4497 19.8653Z" fill="black"/>
<path d="M50.3513 29.6291C50.3513 29.3573 50.5717 29.137 50.8434 29.137C51.1151 29.137 51.3355 29.3573 51.3355 29.6291C51.3355 29.9009 51.1151 30.1212 50.8434 30.1212C50.5717 30.1212 50.3513 29.9009 50.3513 29.6291Z" fill="black"/>
<path d="M50.2529 39.3928C50.2529 39.0667 50.5173 38.8023 50.8434 38.8023C51.1695 38.8023 51.4339 39.0667 51.4339 39.3928C51.4339 39.719 51.1695 39.9834 50.8434 39.9834C50.5173 39.9834 50.2529 39.719 50.2529 39.3928Z" fill="black"/>
<path d="M50.1545 49.1566C50.1545 48.7762 50.463 48.4677 50.8434 48.4677C51.2238 48.4677 51.5323 48.7762 51.5323 49.1566C51.5323 49.537 51.2238 49.8455 50.8434 49.8455C50.463 49.8455 50.1545 49.537 50.1545 49.1566Z" fill="black"/>
<path d="M50.056 58.9204C50.056 58.4855 50.4086 58.133 50.8434 58.133C51.2782 58.133 51.6307 58.4855 51.6307 58.9204C51.6307 59.3552 51.2782 59.7077 50.8434 59.7077C50.4086 59.7077 50.056 59.3552 50.056 58.9204Z" fill="black"/>
<path d="M49.9576 68.6841C49.9576 68.1949 50.3541 67.7984 50.8434 67.7984C51.3327 67.7984 51.7292 68.1949 51.7292 68.6841C51.7292 69.1734 51.3327 69.5699 50.8434 69.5699C50.3541 69.5699 49.9576 69.1734 49.9576 68.6841Z" fill="black"/>
<path d="M49.8592 78.4479C49.8592 77.9043 50.2999 77.4637 50.8434 77.4637C51.3869 77.4637 51.8276 77.9043 51.8276 78.4479C51.8276 78.9914 51.3869 79.4321 50.8434 79.4321C50.2999 79.4321 49.8592 78.9914 49.8592 78.4479Z" fill="black"/>
<path d="M49.7608 88.2116C49.7608 87.6137 50.2455 87.129 50.8434 87.129C51.4413 87.129 51.926 87.6137 51.926 88.2116C51.926 88.8096 51.4413 89.2942 50.8434 89.2942C50.2455 89.2942 49.7608 88.8096 49.7608 88.2116Z" fill="black"/>
<path d="M49.6624 97.9754C49.6624 97.3231 50.1911 96.7944 50.8434 96.7944C51.4957 96.7944 52.0244 97.3231 52.0244 97.9754C52.0244 98.6276 51.4957 99.1568 50.8434 99.1568C50.1911 99.1568 49.6624 98.6276 49.6624 97.9754Z" fill="black"/>
</g>
</svg>
