<svg width="93" height="8" viewBox="0 0 93 8" fill="none" xmlns="http://www.w3.org/2000/svg">
<path d="M0.371863 4.2812C0.371863 6.12966 1.87037 7.6281 3.71881 7.6281C5.56724 7.6281 7.06576 6.12966 7.06576 4.2812C7.06576 2.43273 5.56724 0.934303 3.71881 0.934303C1.87037 0.934303 0.371863 2.43273 0.371863 4.2812ZM0 4.2812C0 2.22738 1.66495 0.562408 3.71881 0.562408C5.77266 0.562408 7.43762 2.22738 7.43762 4.2812C7.43762 6.33498 5.77266 8 3.71881 8C1.66495 8 0 6.33498 0 4.2812Z" fill="black"/>
<path d="M10.4267 4.2812C10.4267 5.96884 11.7948 7.33713 13.4826 7.33713C15.1703 7.33713 16.5384 5.96884 16.5384 4.2812C16.5384 2.59352 15.1703 1.22523 13.4826 1.22523C11.7948 1.22523 10.4267 2.59352 10.4267 4.2812ZM10.0871 4.2812C10.0871 2.40599 11.6073 0.88575 13.4826 0.88575C15.3578 0.88575 16.878 2.40599 16.878 4.2812C16.878 6.15641 15.3578 7.67661 13.4826 7.67661C11.6073 7.67661 10.0871 6.15641 10.0871 4.2812Z" fill="black"/>
<path d="M20.4815 4.2812C20.4815 5.80822 21.7194 7.04597 23.2463 7.04597C24.7733 7.04597 26.0111 5.80822 26.0111 4.2812C26.0111 2.75413 24.7733 1.51639 23.2463 1.51639C21.7194 1.51639 20.4815 2.75413 20.4815 4.2812ZM20.1743 4.2812C20.1743 2.58455 21.5497 1.20913 23.2463 1.20913C24.943 1.20913 26.3184 2.58455 26.3184 4.2812C26.3184 5.97784 24.943 7.35327 23.2463 7.35327C21.5497 7.35327 20.1743 5.97784 20.1743 4.2812Z" fill="black"/>
<path d="M30.5362 4.2812C30.5362 5.64743 31.6438 6.75504 33.0101 6.75504C34.3763 6.75504 35.4839 5.64743 35.4839 4.2812C35.4839 2.91496 34.3763 1.80736 33.0101 1.80736C31.6438 1.80736 30.5362 2.91496 30.5362 4.2812ZM30.2614 4.2812C30.2614 2.76313 31.492 1.53252 33.0101 1.53252C34.5282 1.53252 35.7588 2.76313 35.7588 4.2812C35.7588 5.79926 34.5282 7.02988 33.0101 7.02988C31.492 7.02988 30.2614 5.79926 30.2614 4.2812Z" fill="black"/>
<path d="M40.5911 4.2812C40.5911 5.48671 41.5683 6.46397 42.7738 6.46397C43.9794 6.46397 44.9566 5.48671 44.9566 4.2812C44.9566 3.07568 43.9794 2.0984 42.7738 2.0984C41.5683 2.0984 40.5911 3.07568 40.5911 4.2812ZM40.3485 4.2812C40.3485 2.9417 41.4344 1.85587 42.7738 1.85587C44.1133 1.85587 45.1992 2.9417 45.1992 4.2812C45.1992 5.62065 44.1133 6.70649 42.7738 6.70649C41.4344 6.70649 40.3485 5.62065 40.3485 4.2812Z" fill="black"/>
<path d="M50.6459 4.2812C50.6459 5.32591 51.4929 6.17292 52.5376 6.17292C53.5823 6.17292 54.4293 5.32591 54.4293 4.2812C54.4293 3.23648 53.5823 2.38948 52.5376 2.38948C51.4929 2.38948 50.6459 3.23648 50.6459 4.2812ZM50.4357 4.2812C50.4357 3.12027 51.3767 2.17925 52.5376 2.17925C53.6985 2.17925 54.6395 3.12027 54.6395 4.2812C54.6395 5.44208 53.6985 6.38315 52.5376 6.38315C51.3767 6.38315 50.4357 5.44208 50.4357 4.2812Z" fill="black"/>
<path d="M60.7006 4.2812C60.7006 5.16531 61.4173 5.88196 62.3014 5.88196C63.1855 5.88196 63.9022 5.16531 63.9022 4.2812C63.9022 3.39708 63.1855 2.68045 62.3014 2.68045C61.4173 2.68045 60.7006 3.39708 60.7006 4.2812ZM60.5228 4.2812C60.5228 3.29888 61.319 2.50265 62.3014 2.50265C63.2837 2.50265 64.08 3.29888 64.08 4.2812C64.08 5.26351 63.2837 6.05976 62.3014 6.05976C61.319 6.05976 60.5228 5.26351 60.5228 4.2812Z" fill="black"/>
<path d="M70.7554 4.2812C70.7554 5.00447 71.3419 5.59092 72.0651 5.59092C72.7884 5.59092 73.3749 5.00447 73.3749 4.2812C73.3749 3.55788 72.7884 2.97148 72.0651 2.97148C71.3419 2.97148 70.7554 3.55788 70.7554 4.2812ZM70.61 4.2812C70.61 3.47752 71.2615 2.82603 72.0651 2.82603C72.8688 2.82603 73.5203 3.47752 73.5203 4.2812C73.5203 5.08484 72.8688 5.73637 72.0651 5.73637C71.2615 5.73637 70.61 5.08484 70.61 4.2812Z" fill="black"/>
<path d="M80.8102 4.2812C80.8102 4.84379 81.2663 5.29983 81.8289 5.29983C82.3915 5.29983 82.8475 4.84379 82.8475 4.2812C82.8475 3.7186 82.3915 3.26253 81.8289 3.26253C81.2663 3.26253 80.8102 3.7186 80.8102 4.2812ZM80.6971 4.2812C80.6971 3.65612 81.2038 3.14937 81.8289 3.14937C82.454 3.14937 82.9607 3.65612 82.9607 4.2812C82.9607 4.90627 82.454 5.41299 81.8289 5.41299C81.2038 5.41299 80.6971 4.90627 80.6971 4.2812Z" fill="black"/>
<path d="M90.8651 4.2812C90.8651 4.68295 91.1909 5.00879 91.5927 5.00879C91.9944 5.00879 92.3203 4.68295 92.3203 4.2812C92.3203 3.8794 91.9944 3.5536 91.5927 3.5536C91.1909 3.5536 90.8651 3.8794 90.8651 4.2812ZM90.7842 4.2812C90.7842 3.8347 91.1462 3.47276 91.5927 3.47276C92.0392 3.47276 92.4011 3.8347 92.4011 4.2812C92.4011 4.72769 92.0392 5.08965 91.5927 5.08965C91.1462 5.08965 90.7842 4.72769 90.7842 4.2812Z" fill="black"/>
<path d="M0.371863 4.2812C0.371863 6.12966 1.87037 7.6281 3.71881 7.6281C5.56724 7.6281 7.06576 6.12966 7.06576 4.2812C7.06576 2.43273 5.56724 0.934303 3.71881 0.934303C1.87037 0.934303 0.371863 2.43273 0.371863 4.2812Z" fill="black"/>
<path d="M10.4267 4.2812C10.4267 5.96884 11.7948 7.33713 13.4826 7.33713C15.1703 7.33713 16.5384 5.96884 16.5384 4.2812C16.5384 2.59352 15.1703 1.22523 13.4826 1.22523C11.7948 1.22523 10.4267 2.59352 10.4267 4.2812Z" fill="black"/>
<path d="M20.4815 4.2812C20.4815 5.80822 21.7194 7.04597 23.2463 7.04597C24.7733 7.04597 26.0111 5.80822 26.0111 4.2812C26.0111 2.75413 24.7733 1.51639 23.2463 1.51639C21.7194 1.51639 20.4815 2.75413 20.4815 4.2812Z" fill="black"/>
<path d="M30.5362 4.2812C30.5362 5.64743 31.6438 6.75504 33.0101 6.75504C34.3763 6.75504 35.4839 5.64743 35.4839 4.2812C35.4839 2.91496 34.3763 1.80736 33.0101 1.80736C31.6438 1.80736 30.5362 2.91496 30.5362 4.2812Z" fill="black"/>
<path d="M40.5911 4.2812C40.5911 5.48671 41.5683 6.46397 42.7738 6.46397C43.9794 6.46397 44.9566 5.48671 44.9566 4.2812C44.9566 3.07568 43.9794 2.0984 42.7738 2.0984C41.5683 2.0984 40.5911 3.07568 40.5911 4.2812Z" fill="black"/>
<path d="M50.6459 4.2812C50.6459 5.32591 51.4929 6.17292 52.5376 6.17292C53.5823 6.17292 54.4293 5.32591 54.4293 4.2812C54.4293 3.23648 53.5823 2.38948 52.5376 2.38948C51.4929 2.38948 50.6459 3.23648 50.6459 4.2812Z" fill="black"/>
<path d="M60.7006 4.2812C60.7006 5.16531 61.4173 5.88196 62.3014 5.88196C63.1855 5.88196 63.9022 5.16531 63.9022 4.2812C63.9022 3.39708 63.1855 2.68045 62.3014 2.68045C61.4173 2.68045 60.7006 3.39708 60.7006 4.2812Z" fill="black"/>
<path d="M70.7554 4.2812C70.7554 5.00447 71.3419 5.59092 72.0651 5.59092C72.7884 5.59092 73.3749 5.00447 73.3749 4.2812C73.3749 3.55788 72.7884 2.97148 72.0651 2.97148C71.3419 2.97148 70.7554 3.55788 70.7554 4.2812Z" fill="black"/>
<path d="M80.8102 4.2812C80.8102 4.84379 81.2663 5.29983 81.8289 5.29983C82.3915 5.29983 82.8475 4.84379 82.8475 4.2812C82.8475 3.7186 82.3915 3.26253 81.8289 3.26253C81.2663 3.26253 80.8102 3.7186 80.8102 4.2812Z" fill="black"/>
<path d="M90.8651 4.2812C90.8651 4.68295 91.1909 5.00879 91.5927 5.00879C91.9944 5.00879 92.3203 4.68295 92.3203 4.2812C92.3203 3.8794 91.9944 3.5536 91.5927 3.5536C91.1909 3.5536 90.8651 3.8794 90.8651 4.2812Z" fill="black"/>
</svg>
