<svg width="93" height="8" viewBox="0 0 93 8" fill="none" xmlns="http://www.w3.org/2000/svg">
<path d="M0.371863 3.71879C0.371863 5.56726 1.87037 7.06569 3.71881 7.06569C5.56724 7.06569 7.06576 5.56726 7.06576 3.71879C7.06576 1.87032 5.56724 0.371895 3.71881 0.371895C1.87037 0.371895 0.371863 1.87032 0.371863 3.71879ZM0 3.71879C0 1.66497 1.66495 0 3.71881 0C5.77266 0 7.43762 1.66497 7.43762 3.71879C7.43762 5.77257 5.77266 7.43759 3.71881 7.43759C1.66495 7.43759 0 5.77257 0 3.71879Z" fill="black"/>
<path d="M10.4267 3.71879C10.4267 5.40643 11.7948 6.77472 13.4826 6.77472C15.1703 6.77472 16.5384 5.40643 16.5384 3.71879C16.5384 2.03111 15.1703 0.662827 13.4826 0.662827C11.7948 0.662827 10.4267 2.03111 10.4267 3.71879ZM10.0871 3.71879C10.0871 1.84358 11.6073 0.323341 13.4826 0.323341C15.3578 0.323341 16.878 1.84358 16.878 3.71879C16.878 5.594 15.3578 7.1142 13.4826 7.1142C11.6073 7.1142 10.0871 5.594 10.0871 3.71879Z" fill="black"/>
<path d="M20.4815 3.71879C20.4815 5.24581 21.7194 6.48357 23.2463 6.48357C24.7733 6.48357 26.0111 5.24581 26.0111 3.71879C26.0111 2.19172 24.7733 0.953979 23.2463 0.953979C21.7194 0.953979 20.4815 2.19172 20.4815 3.71879ZM20.1743 3.71879C20.1743 2.02215 21.5497 0.646721 23.2463 0.646721C24.943 0.646721 26.3184 2.02215 26.3184 3.71879C26.3184 5.41543 24.943 6.79086 23.2463 6.79086C21.5497 6.79086 20.1743 5.41543 20.1743 3.71879Z" fill="black"/>
<path d="M30.5362 3.71879C30.5362 5.08503 31.6438 6.19263 33.0101 6.19263C34.3763 6.19263 35.4839 5.08503 35.4839 3.71879C35.4839 2.35255 34.3763 1.24495 33.0101 1.24495C31.6438 1.24495 30.5362 2.35255 30.5362 3.71879ZM30.2614 3.71879C30.2614 2.20072 31.492 0.970108 33.0101 0.970108C34.5282 0.970108 35.7588 2.20072 35.7588 3.71879C35.7588 5.23685 34.5282 6.46748 33.0101 6.46748C31.492 6.46748 30.2614 5.23685 30.2614 3.71879Z" fill="black"/>
<path d="M40.5911 3.71879C40.5911 4.9243 41.5683 5.90157 42.7738 5.90157C43.9794 5.90157 44.9566 4.9243 44.9566 3.71879C44.9566 2.51327 43.9794 1.53599 42.7738 1.53599C41.5683 1.53599 40.5911 2.51327 40.5911 3.71879ZM40.3485 3.71879C40.3485 2.37929 41.4344 1.29346 42.7738 1.29346C44.1133 1.29346 45.1992 2.37929 45.1992 3.71879C45.1992 5.05824 44.1133 6.14408 42.7738 6.14408C41.4344 6.14408 40.3485 5.05824 40.3485 3.71879Z" fill="black"/>
<path d="M50.6459 3.71879C50.6459 4.76351 51.4929 5.61051 52.5376 5.61051C53.5823 5.61051 54.4293 4.76351 54.4293 3.71879C54.4293 2.67407 53.5823 1.82707 52.5376 1.82707C51.4929 1.82707 50.6459 2.67407 50.6459 3.71879ZM50.4357 3.71879C50.4357 2.55786 51.3767 1.61684 52.5376 1.61684C53.6985 1.61684 54.6395 2.55786 54.6395 3.71879C54.6395 4.87967 53.6985 5.82074 52.5376 5.82074C51.3767 5.82074 50.4357 4.87967 50.4357 3.71879Z" fill="black"/>
<path d="M60.7006 3.71879C60.7006 4.6029 61.4173 5.31955 62.3014 5.31955C63.1855 5.31955 63.9022 4.6029 63.9022 3.71879C63.9022 2.83467 63.1855 2.11804 62.3014 2.11804C61.4173 2.11804 60.7006 2.83467 60.7006 3.71879ZM60.5228 3.71879C60.5228 2.73647 61.319 1.94024 62.3014 1.94024C63.2837 1.94024 64.08 2.73647 64.08 3.71879C64.08 4.70111 63.2837 5.49735 62.3014 5.49735C61.319 5.49735 60.5228 4.70111 60.5228 3.71879Z" fill="black"/>
<path d="M70.7554 3.71879C70.7554 4.44207 71.3419 5.02851 72.0651 5.02851C72.7884 5.02851 73.3749 4.44207 73.3749 3.71879C73.3749 2.99547 72.7884 2.40907 72.0651 2.40907C71.3419 2.40907 70.7554 2.99547 70.7554 3.71879ZM70.61 3.71879C70.61 2.91511 71.2615 2.26362 72.0651 2.26362C72.8688 2.26362 73.5203 2.91511 73.5203 3.71879C73.5203 4.52243 72.8688 5.17397 72.0651 5.17397C71.2615 5.17397 70.61 4.52243 70.61 3.71879Z" fill="black"/>
<path d="M80.8102 3.71879C80.8102 4.28138 81.2663 4.73742 81.8289 4.73742C82.3915 4.73742 82.8475 4.28138 82.8475 3.71879C82.8475 3.15619 82.3915 2.70012 81.8289 2.70012C81.2663 2.70012 80.8102 3.15619 80.8102 3.71879ZM80.6971 3.71879C80.6971 3.09371 81.2038 2.58696 81.8289 2.58696C82.454 2.58696 82.9607 3.09371 82.9607 3.71879C82.9607 4.34386 82.454 4.85058 81.8289 4.85058C81.2038 4.85058 80.6971 4.34386 80.6971 3.71879Z" fill="black"/>
<path d="M90.8651 3.71879C90.8651 4.12055 91.1909 4.44638 91.5927 4.44638C91.9944 4.44638 92.3203 4.12055 92.3203 3.71879C92.3203 3.31699 91.9944 2.9912 91.5927 2.9912C91.1909 2.9912 90.8651 3.31699 90.8651 3.71879ZM90.7842 3.71879C90.7842 3.27229 91.1462 2.91035 91.5927 2.91035C92.0392 2.91035 92.4011 3.27229 92.4011 3.71879C92.4011 4.16528 92.0392 4.52724 91.5927 4.52724C91.1462 4.52724 90.7842 4.16528 90.7842 3.71879Z" fill="black"/>
</svg>
